<?xml version="1.0" encoding="utf-8"?>
<svg xmlns="http://www.w3.org/2000/svg" fill="none" height="372" viewBox="0 0 4698 372" width="4698">
  <path d="M1287.42 93.1533L1277.42 75.7845H1271.99V93.1533H1264.87V49.7313H1279.86C1283.19 49.7313 1286 50.3144 1288.29 51.4807C1290.63 52.6469 1292.36 54.2089 1293.48 56.1665C1294.65 58.1242 1295.23 60.3109 1295.23 62.7267C1295.23 65.559 1294.4 68.1414 1292.73 70.4739C1291.11 72.7648 1288.59 74.3267 1285.17 75.1597L1295.92 93.1533H1287.42ZM1271.99 70.099H1279.86C1282.53 70.099 1284.52 69.4326 1285.86 68.0998C1287.23 66.7669 1287.92 64.9759 1287.92 62.7267C1287.92 60.4775 1287.25 58.7281 1285.92 57.4786C1284.59 56.1873 1282.57 55.5417 1279.86 55.5417H1271.99V70.099ZM1307.96 54.1672C1306.67 54.1672 1305.59 53.7299 1304.72 52.8552C1303.84 51.9805 1303.4 50.8976 1303.4 49.6064C1303.4 48.3152 1303.84 47.2322 1304.72 46.3575C1305.59 45.4828 1306.67 45.0455 1307.96 45.0455C1309.21 45.0455 1310.28 45.4828 1311.15 46.3575C1312.03 47.2322 1312.46 48.3152 1312.46 49.6064C1312.46 50.8976 1312.03 51.9805 1311.15 52.8552C1310.28 53.7299 1309.21 54.1672 1307.96 54.1672ZM1311.46 58.7281V93.1533H1304.34V58.7281H1311.46ZM1318.44 75.7845C1318.44 72.3274 1319.15 69.266 1320.56 66.6003C1322.02 63.9346 1323.98 61.8728 1326.44 60.415C1328.94 58.9155 1331.71 58.1658 1334.75 58.1658C1337 58.1658 1339.2 58.6656 1341.37 59.6653C1343.58 60.6233 1345.33 61.9145 1346.62 63.5389V46.9198H1353.8V93.1533H1346.62V87.9677C1345.45 89.6337 1343.83 91.0083 1341.74 92.0912C1339.7 93.1741 1337.35 93.7156 1334.68 93.7156C1331.69 93.7156 1328.94 92.9659 1326.44 91.4664C1323.98 89.9253 1322.02 87.8011 1320.56 85.0937C1319.15 82.3447 1318.44 79.2416 1318.44 75.7845ZM1346.62 75.9095C1346.62 73.5353 1346.12 71.4736 1345.12 69.7242C1344.16 67.9748 1342.89 66.6419 1341.31 65.7256C1339.72 64.8093 1338.02 64.3511 1336.18 64.3511C1334.35 64.3511 1332.64 64.8093 1331.06 65.7256C1329.48 66.6003 1328.19 67.9123 1327.19 69.6617C1326.23 71.3694 1325.75 73.4104 1325.75 75.7845C1325.75 78.1587 1326.23 80.2413 1327.19 82.0323C1328.19 83.8233 1329.48 85.1978 1331.06 86.1558C1332.69 87.0722 1334.39 87.5303 1336.18 87.5303C1338.02 87.5303 1339.72 87.0722 1341.31 86.1558C1342.89 85.2395 1344.16 83.9066 1345.12 82.1572C1346.12 80.3662 1346.62 78.2836 1346.62 75.9095ZM1394.71 75.0973C1394.71 76.3885 1394.63 77.5547 1394.46 78.596H1368.16C1368.36 81.345 1369.38 83.5526 1371.22 85.2187C1373.05 86.8847 1375.3 87.7178 1377.96 87.7178C1381.8 87.7178 1384.5 86.1142 1386.09 82.907H1393.77C1392.73 86.0725 1390.84 88.6758 1388.09 90.7167C1385.38 92.716 1382.01 93.7156 1377.96 93.7156C1374.67 93.7156 1371.72 92.9867 1369.09 91.5289C1366.51 90.0294 1364.47 87.9468 1362.97 85.2811C1361.51 82.5738 1360.78 79.4499 1360.78 75.9095C1360.78 72.3691 1361.49 69.266 1362.91 66.6003C1364.37 63.8929 1366.39 61.8103 1368.97 60.3525C1371.59 58.8947 1374.59 58.1658 1377.96 58.1658C1381.21 58.1658 1384.11 58.8739 1386.65 60.29C1389.19 61.7062 1391.17 63.7055 1392.58 66.2879C1394 68.8287 1394.71 71.7651 1394.71 75.0973ZM1387.27 72.8481C1387.23 70.224 1386.3 68.1206 1384.46 66.5378C1382.63 64.9551 1380.36 64.1637 1377.65 64.1637C1375.19 64.1637 1373.09 64.9551 1371.34 66.5378C1369.59 68.0789 1368.55 70.1824 1368.22 72.8481H1387.27ZM1440.5 93.1533L1430.51 75.7845H1425.07V93.1533H1417.95V49.7313H1432.94C1436.27 49.7313 1439.09 50.3144 1441.38 51.4807C1443.71 52.6469 1445.44 54.2089 1446.56 56.1665C1447.73 58.1242 1448.31 60.3109 1448.31 62.7267C1448.31 65.559 1447.48 68.1414 1445.81 70.4739C1444.19 72.7648 1441.67 74.3267 1438.25 75.1597L1449 93.1533H1440.5ZM1425.07 70.099H1432.94C1435.61 70.099 1437.61 69.4326 1438.94 68.0998C1440.31 66.7669 1441 64.9759 1441 62.7267C1441 60.4775 1440.34 58.7281 1439 57.4786C1437.67 56.1873 1435.65 55.5417 1432.94 55.5417H1425.07V70.099ZM1488.97 75.0973C1488.97 76.3885 1488.89 77.5547 1488.72 78.596H1462.42C1462.63 81.345 1463.65 83.5526 1465.48 85.2187C1467.32 86.8847 1469.56 87.7178 1472.23 87.7178C1476.06 87.7178 1478.77 86.1142 1480.35 82.907H1488.04C1487 86.0725 1485.1 88.6758 1482.35 90.7167C1479.64 92.716 1476.27 93.7156 1472.23 93.7156C1468.94 93.7156 1465.98 92.9867 1463.36 91.5289C1460.78 90.0294 1458.74 87.9468 1457.24 85.2811C1455.78 82.5738 1455.05 79.4499 1455.05 75.9095C1455.05 72.3691 1455.76 69.266 1457.17 66.6003C1458.63 63.8929 1460.65 61.8103 1463.23 60.3525C1465.86 58.8947 1468.86 58.1658 1472.23 58.1658C1475.48 58.1658 1478.37 58.8739 1480.91 60.29C1483.46 61.7062 1485.43 63.7055 1486.85 66.2879C1488.27 68.8287 1488.97 71.7651 1488.97 75.0973ZM1481.54 72.8481C1481.5 70.224 1480.56 68.1206 1478.73 66.5378C1476.9 64.9551 1474.63 64.1637 1471.92 64.1637C1469.46 64.1637 1467.36 64.9551 1465.61 66.5378C1463.86 68.0789 1462.82 70.1824 1462.48 72.8481H1481.54ZM1493.61 75.7845C1493.61 72.3274 1494.32 69.266 1495.73 66.6003C1497.19 63.9346 1499.15 61.8728 1501.61 60.415C1504.11 58.9155 1506.88 58.1658 1509.92 58.1658C1512.58 58.1658 1514.94 58.7073 1516.98 59.7902C1519.06 60.8732 1520.66 62.1852 1521.79 63.7263V58.7281H1528.97V109.522H1521.79V88.1551C1520.66 89.6962 1519.04 91.0083 1516.91 92.0912C1514.79 93.1741 1512.37 93.7156 1509.67 93.7156C1506.71 93.7156 1504 92.9659 1501.54 91.4664C1499.13 89.9253 1497.19 87.8011 1495.73 85.0937C1494.32 82.3447 1493.61 79.2416 1493.61 75.7845ZM1521.79 75.9095C1521.79 73.5353 1521.29 71.4736 1520.29 69.7242C1519.33 67.9748 1518.06 66.6419 1516.48 65.7256C1514.89 64.8093 1513.19 64.3511 1511.35 64.3511C1509.52 64.3511 1507.81 64.8093 1506.23 65.7256C1504.65 66.6003 1503.36 67.9123 1502.36 69.6617C1501.4 71.3694 1500.92 73.4104 1500.92 75.7845C1500.92 78.1587 1501.4 80.2413 1502.36 82.0323C1503.36 83.8233 1504.65 85.1978 1506.23 86.1558C1507.85 87.0722 1509.56 87.5303 1511.35 87.5303C1513.19 87.5303 1514.89 87.0722 1516.48 86.1558C1518.06 85.2395 1519.33 83.9066 1520.29 82.1572C1521.29 80.3662 1521.79 78.2836 1521.79 75.9095ZM1569.5 58.7281V93.1533H1562.38V89.0923C1561.26 90.5084 1559.78 91.633 1557.95 92.4661C1556.15 93.2574 1554.24 93.6531 1552.2 93.6531C1549.49 93.6531 1547.05 93.0908 1544.89 91.9662C1542.76 90.8416 1541.08 89.1756 1539.83 86.968C1538.62 84.7605 1538.01 82.0948 1538.01 78.9709V58.7281H1545.07V77.9088C1545.07 80.991 1545.85 83.3651 1547.39 85.0312C1548.93 86.6556 1551.03 87.4678 1553.7 87.4678C1556.36 87.4678 1558.47 86.6556 1560.01 85.0312C1561.59 83.3651 1562.38 80.991 1562.38 77.9088V58.7281H1569.5ZM1610.45 75.0973C1610.45 76.3885 1610.37 77.5547 1610.2 78.596H1583.9C1584.11 81.345 1585.13 83.5526 1586.96 85.2187C1588.79 86.8847 1591.04 87.7178 1593.71 87.7178C1597.54 87.7178 1600.25 86.1142 1601.83 82.907H1609.51C1608.47 86.0725 1606.58 88.6758 1603.83 90.7167C1601.12 92.716 1597.75 93.7156 1593.71 93.7156C1590.42 93.7156 1587.46 92.9867 1584.84 91.5289C1582.25 90.0294 1580.21 87.9468 1578.71 85.2811C1577.26 82.5738 1576.53 79.4499 1576.53 75.9095C1576.53 72.3691 1577.23 69.266 1578.65 66.6003C1580.11 63.8929 1582.13 61.8103 1584.71 60.3525C1587.34 58.8947 1590.33 58.1658 1593.71 58.1658C1596.96 58.1658 1599.85 58.8739 1602.39 60.29C1604.93 61.7062 1606.91 63.7055 1608.33 66.2879C1609.74 68.8287 1610.45 71.7651 1610.45 75.0973ZM1603.02 72.8481C1602.98 70.224 1602.04 68.1206 1600.21 66.5378C1598.37 64.9551 1596.1 64.1637 1593.4 64.1637C1590.94 64.1637 1588.83 64.9551 1587.09 66.5378C1585.34 68.0789 1584.29 70.1824 1583.96 72.8481H1603.02ZM1629.96 93.7156C1627.25 93.7156 1624.81 93.2366 1622.65 92.2786C1620.52 91.279 1618.84 89.9461 1617.59 88.2801C1616.34 86.5723 1615.67 84.6772 1615.59 82.5946H1622.96C1623.08 84.0524 1623.77 85.2811 1625.02 86.2808C1626.31 87.2388 1627.92 87.7178 1629.83 87.7178C1631.83 87.7178 1633.37 87.3429 1634.46 86.5932C1635.58 85.8018 1636.14 84.8021 1636.14 83.5942C1636.14 82.303 1635.52 81.345 1634.27 80.7203C1633.06 80.0955 1631.12 79.4082 1628.46 78.6585C1625.88 77.9504 1623.77 77.2632 1622.15 76.5967C1620.52 75.9303 1619.11 74.9098 1617.9 73.5353C1616.73 72.1608 1616.15 70.349 1616.15 68.0998C1616.15 66.2671 1616.69 64.601 1617.77 63.1015C1618.86 61.5604 1620.4 60.3525 1622.4 59.4778C1624.44 58.6032 1626.77 58.1658 1629.39 58.1658C1633.31 58.1658 1636.45 59.1655 1638.83 61.1647C1641.24 63.1224 1642.54 65.8089 1642.7 69.2244H1635.58C1635.45 67.6832 1634.83 66.4545 1633.71 65.5382C1632.58 64.6218 1631.06 64.1637 1629.14 64.1637C1627.27 64.1637 1625.83 64.5177 1624.83 65.2258C1623.83 65.9339 1623.33 66.871 1623.33 68.0373C1623.33 68.9536 1623.67 69.7242 1624.33 70.349C1625 70.9737 1625.81 71.4736 1626.77 71.8484C1627.73 72.1816 1629.14 72.619 1631.02 73.1605C1633.52 73.8269 1635.56 74.5141 1637.14 75.2222C1638.77 75.8886 1640.16 76.8883 1641.33 78.2211C1642.49 79.554 1643.1 81.3242 1643.14 83.5318C1643.14 85.4894 1642.6 87.2388 1641.52 88.7799C1640.43 90.321 1638.89 91.5289 1636.89 92.4036C1634.93 93.2783 1632.62 93.7156 1629.96 93.7156ZM1659.15 64.5385V83.5942C1659.15 84.8854 1659.44 85.8226 1660.02 86.4057C1660.64 86.9472 1661.69 87.2179 1663.14 87.2179H1667.52V93.1533H1661.89C1658.69 93.1533 1656.23 92.4036 1654.52 90.9041C1652.81 89.4047 1651.96 86.968 1651.96 83.5942V64.5385H1647.9V58.7281H1651.96V50.1687H1659.15V58.7281H1667.52V64.5385H1659.15Z" fill="#585858"/>
  <path d="M178 356C79.8 356 0 276.1 0 178C0 79.9 79.9 0 178 0H895.8C994 0 1073.8 79.9 1073.8 178C1073.8 276.1 993.9 356 895.8 356H178Z" fill="#F4F4F4"/>
  <path d="M178 338.501H895.8C984.5 338.501 1056.4 266.601 1056.4 177.901C1056.4 89.2008 984.5 17.3008 895.8 17.3008H178C89.2999 17.3008 17.3999 89.2008 17.3999 177.901C17.3999 266.601 89.2999 338.501 178 338.501Z" fill="url(#paint0_linear_920_2815)"/>
  <path d="M181.2 325.7C262.165 325.7 327.8 260.065 327.8 179.1C327.8 98.135 262.165 32.5 181.2 32.5C100.235 32.5 34.6001 98.135 34.6001 179.1C34.6001 260.065 100.235 325.7 181.2 325.7Z" fill="white"/>
  <path d="M467.546 150.619V108.205H484.996C488.753 108.205 491.964 108.811 494.63 110.023C497.337 111.235 499.417 112.972 500.871 115.234C502.326 117.496 503.053 120.182 503.053 123.293C503.053 126.403 502.326 129.089 500.871 131.351C499.417 133.573 497.337 135.29 494.63 136.501C491.964 137.673 488.753 138.259 484.996 138.259H471.909L475.423 134.684V150.619H467.546ZM495.297 150.619L484.572 135.229H492.994L503.78 150.619H495.297ZM475.423 135.532L471.909 131.775H484.633C488.107 131.775 490.712 131.028 492.449 129.533C494.226 128.039 495.115 125.959 495.115 123.293C495.115 120.586 494.226 118.506 492.449 117.052C490.712 115.597 488.107 114.87 484.633 114.87H471.909L475.423 110.992V135.532ZM511.138 150.619V118.263H518.712V150.619H511.138ZM514.955 112.931C513.542 112.931 512.37 112.487 511.441 111.598C510.552 110.71 510.108 109.639 510.108 108.387C510.108 107.094 510.552 106.024 511.441 105.176C512.37 104.287 513.542 103.843 514.955 103.843C516.369 103.843 517.52 104.267 518.409 105.115C519.338 105.923 519.803 106.953 519.803 108.205C519.803 109.538 519.358 110.669 518.47 111.598C517.581 112.487 516.41 112.931 514.955 112.931ZM542.346 151.043C539.236 151.043 536.429 150.357 533.924 148.983C531.46 147.569 529.521 145.63 528.108 143.166C526.694 140.702 525.987 137.794 525.987 134.441C525.987 131.089 526.694 128.18 528.108 125.716C529.521 123.252 531.46 121.333 533.924 119.96C536.429 118.587 539.236 117.9 542.346 117.9C545.053 117.9 547.477 118.506 549.617 119.718C551.758 120.889 553.455 122.687 554.707 125.11C555.959 127.534 556.585 130.644 556.585 134.441C556.585 138.198 555.979 141.308 554.768 143.772C553.556 146.196 551.879 148.014 549.739 149.226C547.598 150.437 545.134 151.043 542.346 151.043ZM543.255 144.56C545.073 144.56 546.689 144.156 548.103 143.348C549.557 142.54 550.708 141.369 551.556 139.834C552.445 138.299 552.889 136.501 552.889 134.441C552.889 132.341 552.445 130.543 551.556 129.049C550.708 127.514 549.557 126.342 548.103 125.534C546.689 124.726 545.073 124.323 543.255 124.323C541.438 124.323 539.802 124.726 538.347 125.534C536.934 126.342 535.782 127.514 534.894 129.049C534.045 130.543 533.621 132.341 533.621 134.441C533.621 136.501 534.045 138.299 534.894 139.834C535.782 141.369 536.934 142.54 538.347 143.348C539.802 144.156 541.438 144.56 543.255 144.56ZM553.071 150.619V142.985L553.374 134.381L552.768 125.777V105.66H560.281V150.619H553.071ZM585.459 151.043C581.863 151.043 578.713 150.336 576.006 148.923C573.34 147.468 571.26 145.489 569.765 142.985C568.311 140.48 567.584 137.632 567.584 134.441C567.584 131.21 568.291 128.362 569.705 125.898C571.159 123.393 573.138 121.434 575.643 120.021C578.188 118.607 581.076 117.9 584.307 117.9C587.458 117.9 590.265 118.587 592.729 119.96C595.194 121.333 597.132 123.272 598.546 125.777C599.96 128.281 600.667 131.23 600.667 134.623C600.667 134.946 600.647 135.31 600.606 135.714C600.606 136.118 600.586 136.501 600.546 136.865H573.583V131.836H596.547L593.578 133.411C593.618 131.553 593.234 129.917 592.427 128.503C591.619 127.09 590.508 125.979 589.094 125.171C587.721 124.363 586.125 123.959 584.307 123.959C582.449 123.959 580.813 124.363 579.399 125.171C578.026 125.979 576.935 127.11 576.127 128.564C575.36 129.978 574.976 131.654 574.976 133.593V134.805C574.976 136.744 575.421 138.461 576.309 139.955C577.198 141.45 578.45 142.601 580.066 143.409C581.682 144.217 583.54 144.621 585.64 144.621C587.458 144.621 589.094 144.338 590.548 143.772C592.002 143.207 593.295 142.318 594.426 141.106L598.486 145.772C597.031 147.468 595.194 148.781 592.972 149.71C590.791 150.599 588.286 151.043 585.459 151.043ZM607.942 150.619V118.263H615.152V127.17L614.304 124.565C615.274 122.384 616.788 120.727 618.849 119.596C620.949 118.465 623.554 117.9 626.665 117.9V125.11C626.342 125.029 626.039 124.989 625.756 124.989C625.473 124.949 625.19 124.928 624.908 124.928C622.04 124.928 619.757 125.777 618.061 127.473C616.364 129.129 615.516 131.614 615.516 134.926V150.619H607.942Z" fill="white"/>
  <path d="M382.083 218.923C385.748 218.923 388.964 219.639 391.729 221.072C394.528 222.505 396.678 224.554 398.177 227.22C399.71 229.852 400.476 232.918 400.476 236.417C400.476 239.916 399.71 242.981 398.177 245.613C396.678 248.213 394.528 250.228 391.729 251.661C388.964 253.094 385.748 253.811 382.083 253.811H369.887V218.923H382.083ZM381.833 247.863C385.498 247.863 388.331 246.863 390.33 244.864C392.329 242.864 393.329 240.049 393.329 236.417C393.329 232.785 392.329 229.952 390.33 227.92C388.331 225.854 385.498 224.821 381.833 224.821H376.885V247.863H381.833ZM412.712 230.419C413.611 228.953 414.778 227.803 416.21 226.97C417.677 226.137 419.343 225.721 421.209 225.721V233.068H419.359C417.16 233.068 415.494 233.584 414.361 234.617C413.262 235.65 412.712 237.45 412.712 240.015V253.811H405.714V226.12H412.712V230.419ZM429.471 222.822C428.238 222.822 427.205 222.438 426.372 221.672C425.572 220.872 425.172 219.889 425.172 218.723C425.172 217.557 425.572 216.591 426.372 215.824C427.205 215.024 428.238 214.625 429.471 214.625C430.703 214.625 431.72 215.024 432.52 215.824C433.353 216.591 433.769 217.557 433.769 218.723C433.769 219.889 433.353 220.872 432.52 221.672C431.72 222.438 430.703 222.822 429.471 222.822ZM432.919 226.12V253.811H425.922V226.12H432.919ZM451.379 247.363L458.376 226.12H465.824L455.577 253.811H447.08L436.884 226.12H444.381L451.379 247.363ZM495.495 239.366C495.495 240.365 495.428 241.265 495.295 242.065H475.052C475.219 244.064 475.918 245.63 477.151 246.763C478.384 247.896 479.9 248.462 481.7 248.462C484.299 248.462 486.148 247.346 487.248 245.114H494.795C493.995 247.779 492.462 249.979 490.196 251.711C487.931 253.411 485.148 254.26 481.849 254.26C479.184 254.26 476.785 253.677 474.652 252.511C472.553 251.311 470.903 249.629 469.704 247.463C468.538 245.297 467.954 242.798 467.954 239.966C467.954 237.1 468.538 234.584 469.704 232.418C470.87 230.252 472.503 228.586 474.602 227.42C476.701 226.254 479.117 225.671 481.849 225.671C484.482 225.671 486.831 226.237 488.897 227.37C490.996 228.503 492.612 230.119 493.745 232.218C494.911 234.284 495.495 236.667 495.495 239.366ZM488.247 237.366C488.214 235.567 487.564 234.134 486.298 233.068C485.032 231.968 483.482 231.419 481.65 231.419C479.917 231.419 478.451 231.952 477.251 233.018C476.085 234.051 475.368 235.5 475.102 237.366H488.247ZM507.6 230.419C508.499 228.953 509.666 227.803 511.098 226.97C512.565 226.137 514.231 225.721 516.097 225.721V233.068H514.247C512.048 233.068 510.382 233.584 509.249 234.617C508.149 235.65 507.6 237.45 507.6 240.015V253.811H500.602V226.12H507.6V230.419ZM539.717 230.119C540.617 228.853 541.85 227.803 543.416 226.97C545.015 226.104 546.831 225.671 548.864 225.671C551.23 225.671 553.362 226.254 555.261 227.42C557.194 228.586 558.71 230.252 559.81 232.418C560.943 234.551 561.509 237.033 561.509 239.866C561.509 242.698 560.943 245.214 559.81 247.413C558.71 249.579 557.194 251.261 555.261 252.461C553.362 253.661 551.23 254.26 548.864 254.26C546.831 254.26 545.032 253.844 543.466 253.011C541.933 252.178 540.683 251.128 539.717 249.862V267.006H532.72V226.12H539.717V230.119ZM554.362 239.866C554.362 238.199 554.012 236.767 553.312 235.567C552.646 234.334 551.746 233.401 550.613 232.768C549.514 232.135 548.314 231.818 547.014 231.818C545.748 231.818 544.549 232.152 543.416 232.818C542.316 233.451 541.416 234.384 540.717 235.617C540.05 236.85 539.717 238.299 539.717 239.966C539.717 241.632 540.05 243.081 540.717 244.314C541.416 245.547 542.316 246.496 543.416 247.163C544.549 247.796 545.748 248.113 547.014 248.113C548.314 248.113 549.514 247.779 550.613 247.113C551.746 246.447 552.646 245.497 553.312 244.264C554.012 243.031 554.362 241.565 554.362 239.866ZM573.592 230.419C574.491 228.953 575.658 227.803 577.09 226.97C578.557 226.137 580.223 225.721 582.089 225.721V233.068H580.239C578.04 233.068 576.374 233.584 575.241 234.617C574.141 235.65 573.592 237.45 573.592 240.015V253.811H566.594V226.12H573.592V230.419ZM599.097 254.26C596.432 254.26 594.032 253.677 591.9 252.511C589.767 251.311 588.085 249.629 586.852 247.463C585.652 245.297 585.052 242.798 585.052 239.966C585.052 237.133 585.669 234.634 586.902 232.468C588.168 230.302 589.884 228.636 592.05 227.47C594.216 226.27 596.632 225.671 599.297 225.671C601.963 225.671 604.379 226.27 606.545 227.47C608.711 228.636 610.41 230.302 611.643 232.468C612.909 234.634 613.542 237.133 613.542 239.966C613.542 242.798 612.892 245.297 611.593 247.463C610.327 249.629 608.594 251.311 606.395 252.511C604.229 253.677 601.796 254.26 599.097 254.26ZM599.097 248.163C600.364 248.163 601.546 247.863 602.646 247.263C603.779 246.63 604.679 245.697 605.345 244.464C606.012 243.231 606.345 241.732 606.345 239.966C606.345 237.333 605.645 235.317 604.246 233.918C602.879 232.485 601.197 231.768 599.197 231.768C597.198 231.768 595.515 232.485 594.149 233.918C592.816 235.317 592.15 237.333 592.15 239.966C592.15 242.598 592.8 244.631 594.099 246.063C595.432 247.463 597.098 248.163 599.097 248.163ZM631.371 231.868H626.522V253.811H619.425V231.868H616.276V226.12H619.425V224.721C619.425 221.322 620.391 218.823 622.324 217.224C624.256 215.624 627.172 214.874 631.071 214.974V220.872C629.371 220.839 628.188 221.122 627.522 221.722C626.856 222.322 626.522 223.405 626.522 224.971V226.12H631.371V231.868ZM639.454 222.822C638.221 222.822 637.188 222.438 636.355 221.672C635.555 220.872 635.156 219.889 635.156 218.723C635.156 217.557 635.555 216.591 636.355 215.824C637.188 215.024 638.221 214.625 639.454 214.625C640.687 214.625 641.703 215.024 642.503 215.824C643.336 216.591 643.752 217.557 643.752 218.723C643.752 219.889 643.336 220.872 642.503 221.672C641.703 222.438 640.687 222.822 639.454 222.822ZM642.903 226.12V253.811H635.905V226.12H642.903ZM656.814 216.824V253.811H649.816V216.824H656.814ZM689.468 239.366C689.468 240.365 689.401 241.265 689.268 242.065H669.025C669.192 244.064 669.892 245.63 671.125 246.763C672.358 247.896 673.874 248.462 675.673 248.462C678.272 248.462 680.121 247.346 681.221 245.114H688.768C687.969 247.779 686.436 249.979 684.17 251.711C681.904 253.411 679.122 254.26 675.823 254.26C673.157 254.26 670.758 253.677 668.626 252.511C666.526 251.311 664.877 249.629 663.677 247.463C662.511 245.297 661.928 242.798 661.928 239.966C661.928 237.1 662.511 234.584 663.677 232.418C664.844 230.252 666.476 228.586 668.576 227.42C670.675 226.254 673.091 225.671 675.823 225.671C678.455 225.671 680.805 226.237 682.87 227.37C684.97 228.503 686.586 230.119 687.719 232.218C688.885 234.284 689.468 236.667 689.468 239.366ZM682.221 237.366C682.187 235.567 681.538 234.134 680.271 233.068C679.005 231.968 677.456 231.419 675.623 231.419C673.89 231.419 672.424 231.952 671.225 233.018C670.058 234.051 669.342 235.5 669.075 237.366H682.221ZM713.483 216.824V253.811H706.485V216.824H713.483ZM732.692 254.26C730.026 254.26 727.627 253.677 725.495 252.511C723.362 251.311 721.679 249.629 720.446 247.463C719.247 245.297 718.647 242.798 718.647 239.966C718.647 237.133 719.264 234.634 720.496 232.468C721.763 230.302 723.479 228.636 725.645 227.47C727.811 226.27 730.226 225.671 732.892 225.671C735.558 225.671 737.974 226.27 740.139 227.47C742.305 228.636 744.005 230.302 745.238 232.468C746.504 234.634 747.137 237.133 747.137 239.966C747.137 242.798 746.487 245.297 745.188 247.463C743.921 249.629 742.189 251.311 739.989 252.511C737.824 253.677 735.391 254.26 732.692 254.26ZM732.692 248.163C733.958 248.163 735.141 247.863 736.241 247.263C737.374 246.63 738.273 245.697 738.94 244.464C739.606 243.231 739.939 241.732 739.939 239.966C739.939 237.333 739.24 235.317 737.84 233.918C736.474 232.485 734.791 231.768 732.792 231.768C730.793 231.768 729.11 232.485 727.744 233.918C726.411 235.317 725.745 237.333 725.745 239.966C725.745 242.598 726.394 244.631 727.694 246.063C729.027 247.463 730.693 248.163 732.692 248.163ZM764.565 254.26C761.9 254.26 759.501 253.677 757.368 252.511C755.235 251.311 753.553 249.629 752.32 247.463C751.12 245.297 750.52 242.798 750.52 239.966C750.52 237.133 751.137 234.634 752.37 232.468C753.636 230.302 755.352 228.636 757.518 227.47C759.684 226.27 762.1 225.671 764.765 225.671C767.431 225.671 769.847 226.27 772.013 227.47C774.179 228.636 775.878 230.302 777.111 232.468C778.377 234.634 779.01 237.133 779.01 239.966C779.01 242.798 778.36 245.297 777.061 247.463C775.795 249.629 774.062 251.311 771.863 252.511C769.697 253.677 767.264 254.26 764.565 254.26ZM764.565 248.163C765.832 248.163 767.015 247.863 768.114 247.263C769.247 246.63 770.147 245.697 770.813 244.464C771.48 243.231 771.813 241.732 771.813 239.966C771.813 237.333 771.113 235.317 769.714 233.918C768.347 232.485 766.665 231.768 764.665 231.768C762.666 231.768 760.983 232.485 759.617 233.918C758.284 235.317 757.618 237.333 757.618 239.966C757.618 242.598 758.268 244.631 759.567 246.063C760.9 247.463 762.566 248.163 764.565 248.163ZM800.537 253.811L791.141 242.015V253.811H784.143V216.824H791.141V237.866L800.437 226.12H809.534L797.338 240.015L809.634 253.811H800.537ZM823.928 254.26C821.662 254.26 819.63 253.861 817.83 253.061C816.031 252.228 814.598 251.112 813.532 249.712C812.499 248.313 811.932 246.763 811.832 245.064H818.88C819.013 246.13 819.53 247.013 820.429 247.713C821.362 248.412 822.512 248.762 823.878 248.762C825.211 248.762 826.244 248.496 826.977 247.963C827.743 247.429 828.127 246.746 828.127 245.913C828.127 245.014 827.66 244.347 826.727 243.914C825.827 243.448 824.378 242.948 822.379 242.415C820.313 241.915 818.613 241.398 817.281 240.865C815.981 240.332 814.848 239.516 813.882 238.416C812.949 237.316 812.482 235.834 812.482 233.968C812.482 232.435 812.915 231.035 813.782 229.769C814.681 228.503 815.948 227.503 817.58 226.77C819.246 226.037 821.196 225.671 823.428 225.671C826.727 225.671 829.36 226.504 831.326 228.17C833.291 229.802 834.374 232.018 834.574 234.817H827.877C827.777 233.718 827.31 232.851 826.477 232.218C825.678 231.552 824.595 231.219 823.228 231.219C821.962 231.219 820.979 231.452 820.279 231.918C819.613 232.385 819.28 233.035 819.28 233.868C819.28 234.801 819.746 235.517 820.679 236.017C821.612 236.483 823.062 236.967 825.028 237.466C827.027 237.966 828.676 238.483 829.976 239.016C831.276 239.549 832.392 240.382 833.325 241.515C834.291 242.615 834.791 244.081 834.824 245.913C834.824 247.513 834.374 248.946 833.475 250.212C832.608 251.478 831.342 252.478 829.676 253.211C828.043 253.911 826.127 254.26 823.928 254.26ZM863.324 225.671C865.39 225.671 867.206 226.087 868.772 226.92C870.338 227.72 871.571 228.77 872.471 230.069V226.12H879.518V254.01C879.518 256.576 879.002 258.859 877.969 260.858C876.936 262.891 875.387 264.49 873.321 265.656C871.255 266.856 868.756 267.456 865.823 267.456C861.891 267.456 858.659 266.539 856.127 264.707C853.628 262.874 852.212 260.375 851.878 257.209H858.826C859.192 258.476 859.975 259.475 861.175 260.208C862.408 260.975 863.891 261.358 865.623 261.358C867.656 261.358 869.305 260.741 870.572 259.509C871.838 258.309 872.471 256.476 872.471 254.01V249.712C871.571 251.012 870.322 252.094 868.722 252.961C867.156 253.827 865.357 254.26 863.324 254.26C860.992 254.26 858.859 253.661 856.926 252.461C854.994 251.261 853.461 249.579 852.328 247.413C851.229 245.214 850.679 242.698 850.679 239.866C850.679 237.067 851.229 234.584 852.328 232.418C853.461 230.252 854.977 228.586 856.877 227.42C858.809 226.254 860.958 225.671 863.324 225.671ZM872.471 239.966C872.471 238.266 872.138 236.817 871.471 235.617C870.805 234.384 869.905 233.451 868.772 232.818C867.639 232.152 866.423 231.818 865.124 231.818C863.824 231.818 862.624 232.135 861.525 232.768C860.425 233.401 859.526 234.334 858.826 235.567C858.159 236.767 857.826 238.199 857.826 239.866C857.826 241.532 858.159 242.998 858.826 244.264C859.526 245.497 860.425 246.447 861.525 247.113C862.658 247.779 863.857 248.113 865.124 248.113C866.423 248.113 867.639 247.796 868.772 247.163C869.905 246.496 870.805 245.563 871.471 244.364C872.138 243.131 872.471 241.665 872.471 239.966ZM898.648 254.26C895.983 254.26 893.583 253.677 891.451 252.511C889.318 251.311 887.636 249.629 886.403 247.463C885.203 245.297 884.603 242.798 884.603 239.966C884.603 237.133 885.22 234.634 886.453 232.468C887.719 230.302 889.435 228.636 891.601 227.47C893.767 226.27 896.183 225.671 898.848 225.671C901.514 225.671 903.93 226.27 906.096 227.47C908.262 228.636 909.961 230.302 911.194 232.468C912.46 234.634 913.093 237.133 913.093 239.966C913.093 242.798 912.443 245.297 911.144 247.463C909.878 249.629 908.145 251.311 905.946 252.511C903.78 253.677 901.347 254.26 898.648 254.26ZM898.648 248.163C899.915 248.163 901.097 247.863 902.197 247.263C903.33 246.63 904.23 245.697 904.896 244.464C905.562 243.231 905.896 241.732 905.896 239.966C905.896 237.333 905.196 235.317 903.796 233.918C902.43 232.485 900.748 231.768 898.748 231.768C896.749 231.768 895.066 232.485 893.7 233.918C892.367 235.317 891.701 237.333 891.701 239.966C891.701 242.598 892.351 244.631 893.65 246.063C894.983 247.463 896.649 248.163 898.648 248.163ZM930.522 254.26C927.856 254.26 925.457 253.677 923.324 252.511C921.192 251.311 919.509 249.629 918.276 247.463C917.076 245.297 916.477 242.798 916.477 239.966C916.477 237.133 917.093 234.634 918.326 232.468C919.592 230.302 921.308 228.636 923.474 227.47C925.64 226.27 928.056 225.671 930.722 225.671C933.387 225.671 935.803 226.27 937.969 227.47C940.135 228.636 941.834 230.302 943.067 232.468C944.333 234.634 944.966 237.133 944.966 239.966C944.966 242.798 944.317 245.297 943.017 247.463C941.751 249.629 940.018 251.311 937.819 252.511C935.653 253.677 933.221 254.26 930.522 254.26ZM930.522 248.163C931.788 248.163 932.971 247.863 934.07 247.263C935.203 246.63 936.103 245.697 936.769 244.464C937.436 243.231 937.769 241.732 937.769 239.966C937.769 237.333 937.069 235.317 935.67 233.918C934.304 232.485 932.621 231.768 930.622 231.768C928.622 231.768 926.94 232.485 925.573 233.918C924.241 235.317 923.574 237.333 923.574 239.966C923.574 242.598 924.224 244.631 925.523 246.063C926.856 247.463 928.522 248.163 930.522 248.163ZM948.3 239.866C948.3 237.067 948.85 234.584 949.949 232.418C951.082 230.252 952.615 228.586 954.548 227.42C956.48 226.254 958.63 225.671 960.995 225.671C962.795 225.671 964.511 226.07 966.144 226.87C967.776 227.637 969.076 228.67 970.042 229.969V216.824H977.14V253.811H970.042V249.712C969.176 251.078 967.96 252.178 966.394 253.011C964.827 253.844 963.011 254.26 960.946 254.26C958.613 254.26 956.48 253.661 954.548 252.461C952.615 251.261 951.082 249.579 949.949 247.413C948.85 245.214 948.3 242.698 948.3 239.866ZM970.092 239.966C970.092 238.266 969.759 236.817 969.093 235.617C968.426 234.384 967.526 233.451 966.394 232.818C965.261 232.152 964.044 231.818 962.745 231.818C961.445 231.818 960.246 232.135 959.146 232.768C958.047 233.401 957.147 234.334 956.447 235.567C955.781 236.767 955.447 238.199 955.447 239.866C955.447 241.532 955.781 242.998 956.447 244.264C957.147 245.497 958.047 246.447 959.146 247.113C960.279 247.779 961.479 248.113 962.745 248.113C964.044 248.113 965.261 247.796 966.394 247.163C967.526 246.496 968.426 245.563 969.093 244.364C969.759 243.131 970.092 241.665 970.092 239.966ZM993.021 218.323L992.221 242.465H986.323L985.473 218.323H993.021ZM989.422 254.16C988.156 254.16 987.106 253.777 986.273 253.011C985.473 252.211 985.074 251.228 985.074 250.062C985.074 248.896 985.473 247.929 986.273 247.163C987.106 246.363 988.156 245.963 989.422 245.963C990.655 245.963 991.671 246.363 992.471 247.163C993.271 247.929 993.671 248.896 993.671 250.062C993.671 251.228 993.271 252.211 992.471 253.011C991.671 253.777 990.655 254.16 989.422 254.16Z" fill="white"/>
  <path d="M394 96.8008C374.9 96.8008 359.4 112.301 359.4 131.401C359.4 150.501 374.9 166.001 394 166.001C413.1 166.001 428.6 150.501 428.6 131.401C428.6 112.301 413.1 96.8008 394 96.8008ZM406.8 136.001L390.6 152.201C389.4 153.401 387.8 154.001 386.3 154.001C384.8 154.001 383.2 153.401 382 152.201C379.6 149.801 379.6 146.001 382 143.601L393.9 131.701L381.3 119.101C378.9 116.701 378.9 112.901 381.3 110.501C383.7 108.101 387.5 108.101 389.9 110.501L406.8 127.401C409.2 129.801 409.2 133.601 406.8 136.001Z" fill="white"/>
  <path d="M178 72.2007H895.8C969.7 72.2007 1031.1 126.201 1042.9 196.801C1044.2 188.801 1045 180.601 1045 172.201C1045 90.0007 978.1 23.1006 895.9 23.1006H178C95.7999 23.1006 28.8999 90.0007 28.8999 172.201C28.8999 180.601 29.5999 188.801 30.9999 196.801C42.6999 126.201 104.2 72.2007 178 72.2007Z" fill="url(#paint1_linear_920_2815)" opacity="0.2"/>
  <path d="M1989.9 356C1891.7 356 1811.9 276.1 1811.9 178C1811.9 79.9 1891.8 0 1989.9 0H2707.8C2806 0 2885.8 79.9 2885.8 178C2885.8 276.1 2805.9 356 2707.8 356H1989.9Z" fill="#F4F4F4"/>
  <path d="M1989.9 338.501H2707.7C2796.4 338.501 2868.3 266.601 2868.3 177.901C2868.3 89.2008 2796.4 17.3008 2707.7 17.3008H1989.8C1901.1 17.3008 1829.2 89.2008 1829.2 177.901C1829.3 266.601 1901.2 338.501 1989.9 338.501Z" fill="url(#paint2_linear_920_2815)"/>
  <path d="M1993 325.7C2073.96 325.7 2139.6 260.065 2139.6 179.1C2139.6 98.135 2073.96 32.5 1993 32.5C1912.03 32.5 1846.4 98.135 1846.4 179.1C1846.4 260.065 1912.03 325.7 1993 325.7Z" fill="white"/>
  <path d="M2279.4 150.619V108.205H2297.94C2302.54 108.205 2306.58 109.094 2310.06 110.871C2313.53 112.649 2316.24 115.113 2318.18 118.263C2320.11 121.414 2321.08 125.13 2321.08 129.412C2321.08 133.654 2320.11 137.37 2318.18 140.561C2316.24 143.712 2313.53 146.176 2310.06 147.953C2306.58 149.73 2302.54 150.619 2297.94 150.619H2279.4ZM2287.27 143.954H2297.57C2300.77 143.954 2303.51 143.348 2305.81 142.136C2308.16 140.925 2309.95 139.228 2311.21 137.047C2312.5 134.865 2313.15 132.321 2313.15 129.412C2313.15 126.463 2312.5 123.919 2311.21 121.778C2309.95 119.596 2308.16 117.9 2305.81 116.688C2303.51 115.476 2300.77 114.87 2297.57 114.87H2287.27V143.954ZM2328.73 150.619V118.263H2335.94V127.17L2335.09 124.565C2336.06 122.384 2337.57 120.727 2339.63 119.596C2341.74 118.465 2344.34 117.9 2347.45 117.9V125.11C2347.13 125.029 2346.82 124.989 2346.54 124.989C2346.26 124.949 2345.98 124.928 2345.69 124.928C2342.83 124.928 2340.54 125.777 2338.85 127.473C2337.15 129.129 2336.3 131.614 2336.3 134.926V150.619H2328.73ZM2353.88 150.619V118.263H2361.45V150.619H2353.88ZM2357.69 112.931C2356.28 112.931 2355.11 112.487 2354.18 111.598C2353.29 110.71 2352.85 109.639 2352.85 108.387C2352.85 107.094 2353.29 106.024 2354.18 105.176C2355.11 104.287 2356.28 103.843 2357.69 103.843C2359.11 103.843 2360.26 104.267 2361.15 105.115C2362.08 105.923 2362.54 106.953 2362.54 108.205C2362.54 109.538 2362.1 110.669 2361.21 111.598C2360.32 112.487 2359.15 112.931 2357.69 112.931ZM2379.99 150.619L2366.12 118.263H2374L2385.93 146.802H2382.05L2394.42 118.263H2401.69L2387.81 150.619H2379.99ZM2420.74 151.043C2417.15 151.043 2414 150.336 2411.29 148.923C2408.62 147.468 2406.54 145.489 2405.05 142.985C2403.59 140.48 2402.87 137.632 2402.87 134.441C2402.87 131.21 2403.57 128.362 2404.99 125.898C2406.44 123.393 2408.42 121.434 2410.93 120.021C2413.47 118.607 2416.36 117.9 2419.59 117.9C2422.74 117.9 2425.55 118.587 2428.01 119.96C2430.48 121.333 2432.41 123.272 2433.83 125.777C2435.24 128.281 2435.95 131.23 2435.95 134.623C2435.95 134.946 2435.93 135.31 2435.89 135.714C2435.89 136.118 2435.87 136.501 2435.83 136.865H2408.86V131.836H2431.83L2428.86 133.411C2428.9 131.553 2428.52 129.917 2427.71 128.503C2426.9 127.09 2425.79 125.979 2424.38 125.171C2423 124.363 2421.41 123.959 2419.59 123.959C2417.73 123.959 2416.1 124.363 2414.68 125.171C2413.31 125.979 2412.22 127.11 2411.41 128.564C2410.64 129.978 2410.26 131.654 2410.26 133.593V134.805C2410.26 136.744 2410.7 138.461 2411.59 139.955C2412.48 141.45 2413.73 142.601 2415.35 143.409C2416.96 144.217 2418.82 144.621 2420.92 144.621C2422.74 144.621 2424.38 144.338 2425.83 143.772C2427.28 143.207 2428.58 142.318 2429.71 141.106L2433.77 145.772C2432.31 147.468 2430.48 148.781 2428.25 149.71C2426.07 150.599 2423.57 151.043 2420.74 151.043ZM2443.22 150.619V118.263H2450.43V127.17L2449.59 124.565C2450.56 122.384 2452.07 120.727 2454.13 119.596C2456.23 118.465 2458.84 117.9 2461.95 117.9V125.11C2461.62 125.029 2461.32 124.989 2461.04 124.989C2460.76 124.949 2460.47 124.928 2460.19 124.928C2457.32 124.928 2455.04 125.777 2453.34 127.473C2451.65 129.129 2450.8 131.614 2450.8 134.926V150.619H2443.22Z" fill="white"/>
  <path d="M2199.73 253.811L2192.03 240.215H2188.74V253.811H2181.74V218.923H2194.83C2197.53 218.923 2199.83 219.406 2201.73 220.373C2203.63 221.306 2205.05 222.588 2205.98 224.221C2206.95 225.821 2207.43 227.62 2207.43 229.619C2207.43 231.918 2206.76 234.001 2205.43 235.867C2204.1 237.7 2202.11 238.966 2199.48 239.666L2207.83 253.811H2199.73ZM2188.74 234.967H2194.58C2196.48 234.967 2197.9 234.517 2198.83 233.618C2199.76 232.685 2200.23 231.402 2200.23 229.769C2200.23 228.17 2199.76 226.937 2198.83 226.07C2197.9 225.171 2196.48 224.721 2194.58 224.721H2188.74V234.967ZM2217.31 222.822C2216.07 222.822 2215.04 222.438 2214.21 221.672C2213.41 220.872 2213.01 219.889 2213.01 218.723C2213.01 217.557 2213.41 216.591 2214.21 215.824C2215.04 215.024 2216.07 214.625 2217.31 214.625C2218.54 214.625 2219.56 215.024 2220.36 215.824C2221.19 216.591 2221.6 217.557 2221.6 218.723C2221.6 219.889 2221.19 220.872 2220.36 221.672C2219.56 222.438 2218.54 222.822 2217.31 222.822ZM2220.76 226.12V253.811H2213.76V226.12H2220.76ZM2225.87 239.866C2225.87 237.067 2226.42 234.584 2227.52 232.418C2228.65 230.252 2230.18 228.586 2232.12 227.42C2234.05 226.254 2236.2 225.671 2238.56 225.671C2240.36 225.671 2242.08 226.07 2243.71 226.87C2245.35 227.637 2246.65 228.67 2247.61 229.969V216.824H2254.71V253.811H2247.61V249.712C2246.75 251.078 2245.53 252.178 2243.96 253.011C2242.4 253.844 2240.58 254.26 2238.51 254.26C2236.18 254.26 2234.05 253.661 2232.12 252.461C2230.18 251.261 2228.65 249.579 2227.52 247.413C2226.42 245.214 2225.87 242.698 2225.87 239.866ZM2247.66 239.966C2247.66 238.266 2247.33 236.817 2246.66 235.617C2246 234.384 2245.1 233.451 2243.96 232.818C2242.83 232.152 2241.61 231.818 2240.31 231.818C2239.01 231.818 2237.82 232.135 2236.72 232.768C2235.62 233.401 2234.72 234.334 2234.02 235.567C2233.35 236.767 2233.02 238.199 2233.02 239.866C2233.02 241.532 2233.35 242.998 2234.02 244.264C2234.72 245.497 2235.62 246.447 2236.72 247.113C2237.85 247.779 2239.05 248.113 2240.31 248.113C2241.61 248.113 2242.83 247.796 2243.96 247.163C2245.1 246.496 2246 245.563 2246.66 244.364C2247.33 243.131 2247.66 241.665 2247.66 239.966ZM2287.28 239.366C2287.28 240.365 2287.22 241.265 2287.08 242.065H2266.84C2267.01 244.064 2267.71 245.63 2268.94 246.763C2270.17 247.896 2271.69 248.462 2273.49 248.462C2276.09 248.462 2277.94 247.346 2279.04 245.114H2286.58C2285.78 247.779 2284.25 249.979 2281.99 251.711C2279.72 253.411 2276.94 254.26 2273.64 254.26C2270.97 254.26 2268.57 253.677 2266.44 252.511C2264.34 251.311 2262.69 249.629 2261.49 247.463C2260.33 245.297 2259.74 242.798 2259.74 239.966C2259.74 237.1 2260.33 234.584 2261.49 232.418C2262.66 230.252 2264.29 228.586 2266.39 227.42C2268.49 226.254 2270.91 225.671 2273.64 225.671C2276.27 225.671 2278.62 226.237 2280.69 227.37C2282.79 228.503 2284.4 230.119 2285.53 232.218C2286.7 234.284 2287.28 236.667 2287.28 239.366ZM2280.04 237.366C2280 235.567 2279.35 234.134 2278.09 233.068C2276.82 231.968 2275.27 231.419 2273.44 231.419C2271.71 231.419 2270.24 231.952 2269.04 233.018C2267.87 234.051 2267.16 235.5 2266.89 237.366H2280.04ZM2299.39 230.419C2300.29 228.953 2301.45 227.803 2302.89 226.97C2304.35 226.137 2306.02 225.721 2307.89 225.721V233.068H2306.04C2303.84 233.068 2302.17 233.584 2301.04 234.617C2299.94 235.65 2299.39 237.45 2299.39 240.015V253.811H2292.39V226.12H2299.39V230.419ZM2331.51 230.119C2332.41 228.853 2333.64 227.803 2335.21 226.97C2336.8 226.104 2338.62 225.671 2340.65 225.671C2343.02 225.671 2345.15 226.254 2347.05 227.42C2348.98 228.586 2350.5 230.252 2351.6 232.418C2352.73 234.551 2353.3 237.033 2353.3 239.866C2353.3 242.698 2352.73 245.214 2351.6 247.413C2350.5 249.579 2348.98 251.261 2347.05 252.461C2345.15 253.661 2343.02 254.26 2340.65 254.26C2338.62 254.26 2336.82 253.844 2335.26 253.011C2333.72 252.178 2332.47 251.128 2331.51 249.862V267.006H2324.51V226.12H2331.51V230.119ZM2346.15 239.866C2346.15 238.199 2345.8 236.767 2345.1 235.567C2344.44 234.334 2343.54 233.401 2342.4 232.768C2341.3 232.135 2340.1 231.818 2338.8 231.818C2337.54 231.818 2336.34 232.152 2335.21 232.818C2334.11 233.451 2333.21 234.384 2332.51 235.617C2331.84 236.85 2331.51 238.299 2331.51 239.966C2331.51 241.632 2331.84 243.081 2332.51 244.314C2333.21 245.547 2334.11 246.496 2335.21 247.163C2336.34 247.796 2337.54 248.113 2338.8 248.113C2340.1 248.113 2341.3 247.779 2342.4 247.113C2343.54 246.447 2344.44 245.497 2345.1 244.264C2345.8 243.031 2346.15 241.565 2346.15 239.866ZM2365.38 230.419C2366.28 228.953 2367.45 227.803 2368.88 226.97C2370.35 226.137 2372.01 225.721 2373.88 225.721V233.068H2372.03C2369.83 233.068 2368.16 233.584 2367.03 234.617C2365.93 235.65 2365.38 237.45 2365.38 240.015V253.811H2358.38V226.12H2365.38V230.419ZM2390.89 254.26C2388.22 254.26 2385.82 253.677 2383.69 252.511C2381.56 251.311 2379.87 249.629 2378.64 247.463C2377.44 245.297 2376.84 242.798 2376.84 239.966C2376.84 237.133 2377.46 234.634 2378.69 232.468C2379.96 230.302 2381.67 228.636 2383.84 227.47C2386.01 226.27 2388.42 225.671 2391.09 225.671C2393.75 225.671 2396.17 226.27 2398.33 227.47C2400.5 228.636 2402.2 230.302 2403.43 232.468C2404.7 234.634 2405.33 237.133 2405.33 239.966C2405.33 242.798 2404.68 245.297 2403.38 247.463C2402.12 249.629 2400.38 251.311 2398.18 252.511C2396.02 253.677 2393.59 254.26 2390.89 254.26ZM2390.89 248.163C2392.15 248.163 2393.34 247.863 2394.44 247.263C2395.57 246.63 2396.47 245.697 2397.13 244.464C2397.8 243.231 2398.13 241.732 2398.13 239.966C2398.13 237.333 2397.43 235.317 2396.03 233.918C2394.67 232.485 2392.99 231.768 2390.99 231.768C2388.99 231.768 2387.3 232.485 2385.94 233.918C2384.61 235.317 2383.94 237.333 2383.94 239.966C2383.94 242.598 2384.59 244.631 2385.89 246.063C2387.22 247.463 2388.89 248.163 2390.89 248.163ZM2423.16 231.868H2418.31V253.811H2411.21V231.868H2408.07V226.12H2411.21V224.721C2411.21 221.322 2412.18 218.823 2414.11 217.224C2416.05 215.624 2418.96 214.874 2422.86 214.974V220.872C2421.16 220.839 2419.98 221.122 2419.31 221.722C2418.64 222.322 2418.31 223.405 2418.31 224.971V226.12H2423.16V231.868ZM2431.24 222.822C2430.01 222.822 2428.98 222.438 2428.14 221.672C2427.34 220.872 2426.94 219.889 2426.94 218.723C2426.94 217.557 2427.34 216.591 2428.14 215.824C2428.98 215.024 2430.01 214.625 2431.24 214.625C2432.48 214.625 2433.49 215.024 2434.29 215.824C2435.13 216.591 2435.54 217.557 2435.54 218.723C2435.54 219.889 2435.13 220.872 2434.29 221.672C2433.49 222.438 2432.48 222.822 2431.24 222.822ZM2434.69 226.12V253.811H2427.69V226.12H2434.69ZM2448.6 216.824V253.811H2441.61V216.824H2448.6ZM2481.26 239.366C2481.26 240.365 2481.19 241.265 2481.06 242.065H2460.81C2460.98 244.064 2461.68 245.63 2462.91 246.763C2464.15 247.896 2465.66 248.462 2467.46 248.462C2470.06 248.462 2471.91 247.346 2473.01 245.114H2480.56C2479.76 247.779 2478.23 249.979 2475.96 251.711C2473.69 253.411 2470.91 254.26 2467.61 254.26C2464.95 254.26 2462.55 253.677 2460.41 252.511C2458.32 251.311 2456.67 249.629 2455.47 247.463C2454.3 245.297 2453.72 242.798 2453.72 239.966C2453.72 237.1 2454.3 234.584 2455.47 232.418C2456.63 230.252 2458.27 228.586 2460.36 227.42C2462.46 226.254 2464.88 225.671 2467.61 225.671C2470.24 225.671 2472.59 226.237 2474.66 227.37C2476.76 228.503 2478.38 230.119 2479.51 232.218C2480.67 234.284 2481.26 236.667 2481.26 239.366ZM2474.01 237.366C2473.98 235.567 2473.33 234.134 2472.06 233.068C2470.79 231.968 2469.25 231.419 2467.41 231.419C2465.68 231.419 2464.21 231.952 2463.01 233.018C2461.85 234.051 2461.13 235.5 2460.86 237.366H2474.01ZM2505.27 216.824V253.811H2498.27V216.824H2505.27ZM2524.48 254.26C2521.82 254.26 2519.42 253.677 2517.28 252.511C2515.15 251.311 2513.47 249.629 2512.24 247.463C2511.04 245.297 2510.44 242.798 2510.44 239.966C2510.44 237.133 2511.05 234.634 2512.29 232.468C2513.55 230.302 2515.27 228.636 2517.43 227.47C2519.6 226.27 2522.02 225.671 2524.68 225.671C2527.35 225.671 2529.76 226.27 2531.93 227.47C2534.09 228.636 2535.79 230.302 2537.03 232.468C2538.29 234.634 2538.93 237.133 2538.93 239.966C2538.93 242.798 2538.28 245.297 2536.98 247.463C2535.71 249.629 2533.98 251.311 2531.78 252.511C2529.61 253.677 2527.18 254.26 2524.48 254.26ZM2524.48 248.163C2525.75 248.163 2526.93 247.863 2528.03 247.263C2529.16 246.63 2530.06 245.697 2530.73 244.464C2531.4 243.231 2531.73 241.732 2531.73 239.966C2531.73 237.333 2531.03 235.317 2529.63 233.918C2528.26 232.485 2526.58 231.768 2524.58 231.768C2522.58 231.768 2520.9 232.485 2519.53 233.918C2518.2 235.317 2517.53 237.333 2517.53 239.966C2517.53 242.598 2518.18 244.631 2519.48 246.063C2520.82 247.463 2522.48 248.163 2524.48 248.163ZM2556.35 254.26C2553.69 254.26 2551.29 253.677 2549.16 252.511C2547.02 251.311 2545.34 249.629 2544.11 247.463C2542.91 245.297 2542.31 242.798 2542.31 239.966C2542.31 237.133 2542.93 234.634 2544.16 232.468C2545.43 230.302 2547.14 228.636 2549.31 227.47C2551.47 226.27 2553.89 225.671 2556.55 225.671C2559.22 225.671 2561.64 226.27 2563.8 227.47C2565.97 228.636 2567.67 230.302 2568.9 232.468C2570.17 234.634 2570.8 237.133 2570.8 239.966C2570.8 242.798 2570.15 245.297 2568.85 247.463C2567.58 249.629 2565.85 251.311 2563.65 252.511C2561.49 253.677 2559.05 254.26 2556.35 254.26ZM2556.35 248.163C2557.62 248.163 2558.8 247.863 2559.9 247.263C2561.04 246.63 2561.94 245.697 2562.6 244.464C2563.27 243.231 2563.6 241.732 2563.6 239.966C2563.6 237.333 2562.9 235.317 2561.5 233.918C2560.14 232.485 2558.45 231.768 2556.45 231.768C2554.46 231.768 2552.77 232.485 2551.41 233.918C2550.07 235.317 2549.41 237.333 2549.41 239.966C2549.41 242.598 2550.06 244.631 2551.36 246.063C2552.69 247.463 2554.36 248.163 2556.35 248.163ZM2592.33 253.811L2582.93 242.015V253.811H2575.93V216.824H2582.93V237.866L2592.23 226.12H2601.32L2589.13 240.015L2601.42 253.811H2592.33ZM2615.72 254.26C2613.45 254.26 2611.42 253.861 2609.62 253.061C2607.82 252.228 2606.39 251.112 2605.32 249.712C2604.29 248.313 2603.72 246.763 2603.62 245.064H2610.67C2610.8 246.13 2611.32 247.013 2612.22 247.713C2613.15 248.412 2614.3 248.762 2615.67 248.762C2617 248.762 2618.03 248.496 2618.77 247.963C2619.53 247.429 2619.92 246.746 2619.92 245.913C2619.92 245.014 2619.45 244.347 2618.52 243.914C2617.62 243.448 2616.17 242.948 2614.17 242.415C2612.1 241.915 2610.4 241.398 2609.07 240.865C2607.77 240.332 2606.64 239.516 2605.67 238.416C2604.74 237.316 2604.27 235.834 2604.27 233.968C2604.27 232.435 2604.7 231.035 2605.57 229.769C2606.47 228.503 2607.74 227.503 2609.37 226.77C2611.04 226.037 2612.99 225.671 2615.22 225.671C2618.52 225.671 2621.15 226.504 2623.11 228.17C2625.08 229.802 2626.16 232.018 2626.36 234.817H2619.67C2619.57 233.718 2619.1 232.851 2618.27 232.218C2617.47 231.552 2616.38 231.219 2615.02 231.219C2613.75 231.219 2612.77 231.452 2612.07 231.918C2611.4 232.385 2611.07 233.035 2611.07 233.868C2611.07 234.801 2611.54 235.517 2612.47 236.017C2613.4 236.483 2614.85 236.967 2616.82 237.466C2618.82 237.966 2620.47 238.483 2621.77 239.016C2623.06 239.549 2624.18 240.382 2625.11 241.515C2626.08 242.615 2626.58 244.081 2626.61 245.913C2626.61 247.513 2626.16 248.946 2625.26 250.212C2624.4 251.478 2623.13 252.478 2621.47 253.211C2619.83 253.911 2617.92 254.26 2615.72 254.26ZM2655.11 225.671C2657.18 225.671 2659 226.087 2660.56 226.92C2662.13 227.72 2663.36 228.77 2664.26 230.069V226.12H2671.31V254.01C2671.31 256.576 2670.79 258.859 2669.76 260.858C2668.73 262.891 2667.18 264.49 2665.11 265.656C2663.04 266.856 2660.54 267.456 2657.61 267.456C2653.68 267.456 2650.45 266.539 2647.92 264.707C2645.42 262.874 2644 260.375 2643.67 257.209H2650.62C2650.98 258.476 2651.76 259.475 2652.96 260.208C2654.2 260.975 2655.68 261.358 2657.41 261.358C2659.45 261.358 2661.09 260.741 2662.36 259.509C2663.63 258.309 2664.26 256.476 2664.26 254.01V249.712C2663.36 251.012 2662.11 252.094 2660.51 252.961C2658.95 253.827 2657.15 254.26 2655.11 254.26C2652.78 254.26 2650.65 253.661 2648.72 252.461C2646.78 251.261 2645.25 249.579 2644.12 247.413C2643.02 245.214 2642.47 242.698 2642.47 239.866C2642.47 237.067 2643.02 234.584 2644.12 232.418C2645.25 230.252 2646.77 228.586 2648.67 227.42C2650.6 226.254 2652.75 225.671 2655.11 225.671ZM2664.26 239.966C2664.26 238.266 2663.93 236.817 2663.26 235.617C2662.59 234.384 2661.69 233.451 2660.56 232.818C2659.43 232.152 2658.21 231.818 2656.91 231.818C2655.61 231.818 2654.41 232.135 2653.31 232.768C2652.21 233.401 2651.31 234.334 2650.62 235.567C2649.95 236.767 2649.62 238.199 2649.62 239.866C2649.62 241.532 2649.95 242.998 2650.62 244.264C2651.31 245.497 2652.21 246.447 2653.31 247.113C2654.45 247.779 2655.65 248.113 2656.91 248.113C2658.21 248.113 2659.43 247.796 2660.56 247.163C2661.69 246.496 2662.59 245.563 2663.26 244.364C2663.93 243.131 2664.26 241.665 2664.26 239.966ZM2690.44 254.26C2687.77 254.26 2685.37 253.677 2683.24 252.511C2681.11 251.311 2679.42 249.629 2678.19 247.463C2676.99 245.297 2676.39 242.798 2676.39 239.966C2676.39 237.133 2677.01 234.634 2678.24 232.468C2679.51 230.302 2681.22 228.636 2683.39 227.47C2685.56 226.27 2687.97 225.671 2690.64 225.671C2693.3 225.671 2695.72 226.27 2697.89 227.47C2700.05 228.636 2701.75 230.302 2702.98 232.468C2704.25 234.634 2704.88 237.133 2704.88 239.966C2704.88 242.798 2704.23 245.297 2702.93 247.463C2701.67 249.629 2699.93 251.311 2697.74 252.511C2695.57 253.677 2693.14 254.26 2690.44 254.26ZM2690.44 248.163C2691.7 248.163 2692.89 247.863 2693.99 247.263C2695.12 246.63 2696.02 245.697 2696.69 244.464C2697.35 243.231 2697.69 241.732 2697.69 239.966C2697.69 237.333 2696.99 235.317 2695.59 233.918C2694.22 232.485 2692.54 231.768 2690.54 231.768C2688.54 231.768 2686.86 232.485 2685.49 233.918C2684.16 235.317 2683.49 237.333 2683.49 239.966C2683.49 242.598 2684.14 244.631 2685.44 246.063C2686.77 247.463 2688.44 248.163 2690.44 248.163ZM2722.31 254.26C2719.65 254.26 2717.25 253.677 2715.11 252.511C2712.98 251.311 2711.3 249.629 2710.07 247.463C2708.87 245.297 2708.27 242.798 2708.27 239.966C2708.27 237.133 2708.88 234.634 2710.12 232.468C2711.38 230.302 2713.1 228.636 2715.26 227.47C2717.43 226.27 2719.85 225.671 2722.51 225.671C2725.18 225.671 2727.59 226.27 2729.76 227.47C2731.92 228.636 2733.62 230.302 2734.86 232.468C2736.12 234.634 2736.76 237.133 2736.76 239.966C2736.76 242.798 2736.11 245.297 2734.81 247.463C2733.54 249.629 2731.81 251.311 2729.61 252.511C2727.44 253.677 2725.01 254.26 2722.31 254.26ZM2722.31 248.163C2723.58 248.163 2724.76 247.863 2725.86 247.263C2726.99 246.63 2727.89 245.697 2728.56 244.464C2729.23 243.231 2729.56 241.732 2729.56 239.966C2729.56 237.333 2728.86 235.317 2727.46 233.918C2726.09 232.485 2724.41 231.768 2722.41 231.768C2720.41 231.768 2718.73 232.485 2717.36 233.918C2716.03 235.317 2715.36 237.333 2715.36 239.966C2715.36 242.598 2716.01 244.631 2717.31 246.063C2718.65 247.463 2720.31 248.163 2722.31 248.163ZM2740.09 239.866C2740.09 237.067 2740.64 234.584 2741.74 232.418C2742.87 230.252 2744.4 228.586 2746.34 227.42C2748.27 226.254 2750.42 225.671 2752.78 225.671C2754.58 225.671 2756.3 226.07 2757.93 226.87C2759.57 227.637 2760.87 228.67 2761.83 229.969V216.824H2768.93V253.811H2761.83V249.712C2760.97 251.078 2759.75 252.178 2758.18 253.011C2756.62 253.844 2754.8 254.26 2752.73 254.26C2750.4 254.26 2748.27 253.661 2746.34 252.461C2744.4 251.261 2742.87 249.579 2741.74 247.413C2740.64 245.214 2740.09 242.698 2740.09 239.866ZM2761.88 239.966C2761.88 238.266 2761.55 236.817 2760.88 235.617C2760.22 234.384 2759.32 233.451 2758.18 232.818C2757.05 232.152 2755.83 231.818 2754.53 231.818C2753.23 231.818 2752.04 232.135 2750.94 232.768C2749.84 233.401 2748.94 234.334 2748.24 235.567C2747.57 236.767 2747.24 238.199 2747.24 239.866C2747.24 241.532 2747.57 242.998 2748.24 244.264C2748.94 245.497 2749.84 246.447 2750.94 247.113C2752.07 247.779 2753.27 248.113 2754.53 248.113C2755.83 248.113 2757.05 247.796 2758.18 247.163C2759.32 246.496 2760.22 245.563 2760.88 244.364C2761.55 243.131 2761.88 241.665 2761.88 239.966ZM2784.81 218.323L2784.01 242.465H2778.11L2777.26 218.323H2784.81ZM2781.21 254.16C2779.95 254.16 2778.9 253.777 2778.06 253.011C2777.26 252.211 2776.86 251.228 2776.86 250.062C2776.86 248.896 2777.26 247.929 2778.06 247.163C2778.9 246.363 2779.95 245.963 2781.21 245.963C2782.44 245.963 2783.46 246.363 2784.26 247.163C2785.06 247.929 2785.46 248.896 2785.46 250.062C2785.46 251.228 2785.06 252.211 2784.26 253.011C2783.46 253.777 2782.44 254.16 2781.21 254.16Z" fill="white"/>
  <path d="M2205.9 96.8008C2186.8 96.8008 2171.3 112.301 2171.3 131.401C2171.3 150.501 2186.8 166.001 2205.9 166.001C2225 166.001 2240.5 150.501 2240.5 131.401C2240.5 112.301 2225 96.8008 2205.9 96.8008ZM2218.6 136.001L2202.4 152.201C2201.2 153.401 2199.6 154.001 2198.1 154.001C2196.6 154.001 2195 153.401 2193.8 152.201C2191.4 149.801 2191.4 146.001 2193.8 143.601L2205.7 131.701L2193.1 119.101C2190.7 116.701 2190.7 112.901 2193.1 110.501C2195.5 108.101 2199.3 108.101 2201.7 110.501L2218.6 127.401C2221 129.801 2221 133.601 2218.6 136.001Z" fill="white"/>
  <path d="M1989.9 72.2007H2707.7C2781.6 72.2007 2843 126.201 2854.8 196.801C2856.1 188.801 2856.9 180.601 2856.9 172.201C2856.9 90.0007 2790 23.1006 2707.8 23.1006H1989.9C1907.7 23.1006 1840.8 90.0007 1840.8 172.201C1840.8 180.601 1841.5 188.801 1842.9 196.801C1854.5 126.201 1916 72.2007 1989.9 72.2007Z" fill="url(#paint3_linear_920_2815)" opacity="0.2"/>
  <path d="M3801.7 356C3703.5 356 3623.7 276.1 3623.7 178C3623.7 79.9 3703.6 0 3801.7 0H4519.5C4617.7 0 4697.5 79.9 4697.5 178C4697.5 276.1 4617.6 356 4519.5 356H3801.7Z" fill="#F4F4F4"/>
  <path d="M3801.7 338.501H4519.5C4608.2 338.501 4680.1 266.601 4680.1 177.901C4680.1 89.2008 4608.2 17.3008 4519.5 17.3008H3801.6C3712.9 17.3008 3641 89.2008 3641 177.901C3641.2 266.601 3713.1 338.501 3801.7 338.501Z" fill="url(#paint4_linear_920_2815)"/>
  <path d="M3804.9 325.7C3885.86 325.7 3951.5 260.065 3951.5 179.1C3951.5 98.135 3885.86 32.5 3804.9 32.5C3723.93 32.5 3658.3 98.135 3658.3 179.1C3658.3 260.065 3723.93 325.7 3804.9 325.7Z" fill="white"/>
  <path d="M4127.48 150.619H4119L4110.33 138.198C4109.79 138.259 4109.24 138.259 4108.7 138.259H4099.13V150.619H4091.25V108.205H4108.7C4119.85 108.205 4126.75 113.901 4126.75 123.293C4126.75 129.715 4123.48 134.441 4117.73 136.683L4127.48 150.619ZM4118.82 123.293C4118.82 117.96 4115.24 114.87 4108.34 114.87H4099.13V131.775H4108.34C4115.24 131.775 4118.82 128.625 4118.82 123.293ZM4138.66 112.931C4135.87 112.931 4133.81 110.932 4133.81 108.387C4133.81 105.842 4135.87 103.843 4138.66 103.843C4141.44 103.843 4143.5 105.721 4143.5 108.205C4143.5 110.871 4141.51 112.931 4138.66 112.931ZM4134.84 150.619V118.263H4142.41V150.619H4134.84ZM4176.47 105.66H4184.04V150.619H4176.77V146.438C4174.23 149.528 4170.47 151.043 4166.05 151.043C4156.66 151.043 4149.69 144.499 4149.69 134.441C4149.69 124.383 4156.66 117.9 4166.05 117.9C4170.23 117.9 4173.93 119.293 4176.47 122.262V105.66ZM4166.96 144.56C4172.41 144.56 4176.59 140.622 4176.59 134.441C4176.59 128.261 4172.41 124.323 4166.96 124.323C4161.5 124.323 4157.32 128.261 4157.32 134.441C4157.32 140.622 4161.5 144.56 4166.96 144.56ZM4224.37 134.623C4224.37 135.229 4224.31 136.138 4224.25 136.865H4198.86C4199.77 141.591 4203.71 144.621 4209.34 144.621C4212.98 144.621 4215.83 143.469 4218.13 141.106L4222.19 145.772C4219.28 149.226 4214.74 151.043 4209.16 151.043C4198.31 151.043 4191.29 144.075 4191.29 134.441C4191.29 124.807 4198.38 117.9 4208.01 117.9C4217.46 117.9 4224.37 124.504 4224.37 134.623ZM4208.01 123.959C4203.1 123.959 4199.53 127.11 4198.8 131.836H4217.16C4216.55 127.17 4212.98 123.959 4208.01 123.959ZM4238.85 122.99C4241.04 119.596 4244.97 117.9 4250.37 117.9V125.11C4249.7 124.989 4249.16 124.928 4248.61 124.928C4242.85 124.928 4239.22 128.322 4239.22 134.926V150.619H4231.64V118.263H4238.85V122.99ZM4310.55 146.378L4306.37 151.286L4301.04 146.135C4297.22 149.407 4292.37 151.225 4286.8 151.225C4277.83 151.225 4271.35 146.56 4271.35 139.894C4271.35 134.623 4274.26 130.927 4281.16 127.049C4277.71 123.595 4276.44 120.808 4276.44 117.718C4276.44 111.78 4281.29 107.721 4288.74 107.721C4295.59 107.721 4300.07 111.295 4300.07 117.052C4300.07 121.414 4297.52 124.565 4291.4 128.019L4300.55 136.744C4301.58 134.744 4302.37 132.321 4302.92 129.594L4309.04 131.594C4308.25 135.29 4306.98 138.561 4305.22 141.288L4310.55 146.378ZM4288.74 113.113C4285.35 113.113 4283.35 114.992 4283.35 117.597C4283.35 119.475 4284.13 120.869 4287.16 123.898C4292.07 121.232 4293.65 119.475 4293.65 117.173C4293.65 114.749 4291.89 113.113 4288.74 113.113ZM4287.35 145.045C4290.86 145.045 4293.95 143.954 4296.55 141.833L4285.35 131.109C4280.44 133.835 4278.74 136.077 4278.74 139.107C4278.74 142.621 4282.13 145.045 4287.35 145.045ZM4334.09 150.619V108.205H4352.63C4366.38 108.205 4375.77 116.688 4375.77 129.412C4375.77 142.136 4366.38 150.619 4352.63 150.619H4334.09ZM4341.96 143.954H4352.26C4361.72 143.954 4367.84 138.198 4367.84 129.412C4367.84 120.626 4361.72 114.87 4352.26 114.87H4341.96V143.954ZM4390.63 122.99C4392.81 119.596 4396.75 117.9 4402.14 117.9V125.11C4401.47 124.989 4400.93 124.928 4400.38 124.928C4394.63 124.928 4390.99 128.322 4390.99 134.926V150.619H4383.42V118.263H4390.63V122.99ZM4412.38 112.931C4409.6 112.931 4407.54 110.932 4407.54 108.387C4407.54 105.842 4409.6 103.843 4412.38 103.843C4415.17 103.843 4417.23 105.721 4417.23 108.205C4417.23 110.871 4415.23 112.931 4412.38 112.931ZM4408.57 150.619V118.263H4416.14V150.619H4408.57ZM4449.11 118.263H4456.38L4442.5 150.619H4434.68L4420.81 118.263H4428.69L4438.74 142.258L4449.11 118.263ZM4490.64 134.623C4490.64 135.229 4490.58 136.138 4490.52 136.865H4465.13C4466.04 141.591 4469.98 144.621 4475.61 144.621C4479.25 144.621 4482.1 143.469 4484.4 141.106L4488.46 145.772C4485.55 149.226 4481 151.043 4475.43 151.043C4464.58 151.043 4457.56 144.075 4457.56 134.441C4457.56 124.807 4464.65 117.9 4474.28 117.9C4483.73 117.9 4490.64 124.504 4490.64 134.623ZM4474.28 123.959C4469.37 123.959 4465.8 127.11 4465.07 131.836H4483.43C4482.82 127.17 4479.25 123.959 4474.28 123.959ZM4505.12 122.99C4507.31 119.596 4511.24 117.9 4516.64 117.9V125.11C4515.97 124.989 4515.43 124.928 4514.88 124.928C4509.12 124.928 4505.49 128.322 4505.49 134.926V150.619H4497.91V118.263H4505.12V122.99Z" fill="white"/>
  <path d="M3993.59 218.923H4000.59V248.263H4012.08V253.811H3993.59V218.923ZM4028.43 231.419C4025.08 231.419 4022.43 233.568 4021.88 237.366H4035.02C4034.92 233.718 4032.02 231.419 4028.43 231.419ZM4041.57 245.114C4040.07 250.212 4035.47 254.26 4028.63 254.26C4020.58 254.26 4014.73 248.662 4014.73 239.966C4014.73 231.219 4020.43 225.671 4028.63 225.671C4036.62 225.671 4042.27 231.119 4042.27 239.366C4042.27 240.265 4042.22 241.165 4042.07 242.065H4021.83C4022.18 246.163 4024.98 248.462 4028.48 248.462C4031.48 248.462 4033.12 246.963 4034.02 245.114H4041.57ZM4048.48 245.214V231.868H4045.18V226.12H4048.48V219.273H4055.53V226.12H4061.72V231.868H4055.53V245.264C4055.53 247.113 4056.28 247.913 4058.47 247.913H4061.72V253.811H4057.33C4052.03 253.811 4048.48 251.561 4048.48 245.214ZM4065.81 224.521L4065.16 213.925H4071.15L4070.56 224.521H4065.81ZM4098.01 245.913C4098.01 250.662 4093.86 254.26 4087.11 254.26C4080.17 254.26 4075.32 250.212 4075.02 245.064H4082.07C4082.32 247.163 4084.27 248.762 4087.06 248.762C4089.81 248.762 4091.31 247.513 4091.31 245.913C4091.31 240.965 4075.67 244.114 4075.67 233.968C4075.67 229.369 4079.77 225.671 4086.62 225.671C4093.31 225.671 4097.36 229.319 4097.76 234.817H4091.06C4090.86 232.668 4089.16 231.219 4086.42 231.219C4083.82 231.219 4082.47 232.268 4082.47 233.868C4082.47 238.916 4097.81 235.767 4098.01 245.913ZM4122.66 230.169C4124.36 227.62 4127.61 225.671 4131.81 225.671C4138.91 225.671 4144.45 231.219 4144.45 239.866C4144.45 248.512 4138.91 254.26 4131.81 254.26C4127.46 254.26 4124.36 252.261 4122.66 249.862V253.811H4115.66V216.824H4122.66V230.169ZM4137.31 239.866C4137.31 234.617 4133.76 231.818 4129.96 231.818C4126.21 231.818 4122.66 234.717 4122.66 239.966C4122.66 245.214 4126.21 248.113 4129.96 248.113C4133.76 248.113 4137.31 245.114 4137.31 239.866ZM4161.44 231.419C4158.09 231.419 4155.44 233.568 4154.89 237.366H4168.03C4167.93 233.718 4165.03 231.419 4161.44 231.419ZM4174.58 245.114C4173.08 250.212 4168.48 254.26 4161.64 254.26C4153.59 254.26 4147.74 248.662 4147.74 239.966C4147.74 231.219 4153.44 225.671 4161.64 225.671C4169.63 225.671 4175.28 231.119 4175.28 239.366C4175.28 240.265 4175.23 241.165 4175.08 242.065H4154.84C4155.19 246.163 4157.99 248.462 4161.49 248.462C4164.48 248.462 4166.13 246.963 4167.03 245.114H4174.58ZM4178.59 239.866C4178.59 231.219 4184.19 225.671 4191.23 225.671C4195.58 225.671 4198.73 227.67 4200.38 230.069V226.12H4207.43V254.01C4207.43 261.508 4202.83 267.456 4193.73 267.456C4185.94 267.456 4180.49 263.557 4179.79 257.209H4186.74C4187.44 259.708 4190.03 261.358 4193.53 261.358C4197.38 261.358 4200.38 259.159 4200.38 254.01V249.712C4198.73 252.111 4195.58 254.26 4191.23 254.26C4184.19 254.26 4178.59 248.512 4178.59 239.866ZM4200.38 239.966C4200.38 234.717 4196.88 231.818 4193.03 231.818C4189.28 231.818 4185.74 234.617 4185.74 239.866C4185.74 245.114 4189.28 248.113 4193.03 248.113C4196.88 248.113 4200.38 245.214 4200.38 239.966ZM4214.26 253.811V226.12H4221.26V253.811H4214.26ZM4217.81 222.822C4215.31 222.822 4213.51 221.022 4213.51 218.723C4213.51 216.424 4215.31 214.625 4217.81 214.625C4220.26 214.625 4222.11 216.424 4222.11 218.723C4222.11 221.022 4220.26 222.822 4217.81 222.822ZM4247.57 253.811V238.516C4247.57 234.068 4245.12 231.668 4241.42 231.668C4237.62 231.668 4235.17 234.068 4235.17 238.516V253.811H4228.17V226.12H4235.17V229.569C4236.97 227.22 4239.97 225.721 4243.52 225.721C4249.97 225.721 4254.56 229.919 4254.56 237.566V253.811H4247.57ZM4299.87 239.966C4299.87 248.662 4293.47 254.26 4285.42 254.26C4277.43 254.26 4271.38 248.662 4271.38 239.966C4271.38 231.219 4277.63 225.671 4285.62 225.671C4293.62 225.671 4299.87 231.219 4299.87 239.966ZM4278.48 239.966C4278.48 245.464 4281.67 248.163 4285.42 248.163C4289.12 248.163 4292.67 245.464 4292.67 239.966C4292.67 234.417 4289.22 231.768 4285.52 231.768C4281.82 231.768 4278.48 234.417 4278.48 239.966ZM4331.14 226.12V253.811H4324.09V250.312C4322.35 252.661 4319.3 254.16 4315.85 254.16C4309.4 254.16 4304.75 249.962 4304.75 242.365V226.12H4311.75V241.365C4311.75 245.813 4314.2 248.213 4317.9 248.213C4321.7 248.213 4324.09 245.813 4324.09 241.365V226.12H4331.14ZM4345.04 240.015V253.811H4338.05V226.12H4345.04V230.419C4346.79 227.57 4349.69 225.721 4353.54 225.721V233.068H4351.69C4347.54 233.068 4345.04 234.667 4345.04 240.015ZM4371.26 245.214V231.868H4367.96V226.12H4371.26V219.273H4378.31V226.12H4384.51V231.868H4378.31V245.264C4378.31 247.113 4379.06 247.913 4381.26 247.913H4384.51V253.811H4380.11C4374.81 253.811 4371.26 251.561 4371.26 245.214ZM4396.54 240.015V253.811H4389.54V226.12H4396.54V230.419C4398.29 227.57 4401.19 225.721 4405.04 225.721V233.068H4403.19C4399.04 233.068 4396.54 234.667 4396.54 240.015ZM4409.75 253.811V226.12H4416.75V253.811H4409.75ZM4413.3 222.822C4410.8 222.822 4409 221.022 4409 218.723C4409 216.424 4410.8 214.625 4413.3 214.625C4415.75 214.625 4417.6 216.424 4417.6 218.723C4417.6 221.022 4415.75 222.822 4413.3 222.822ZM4430.66 230.119C4432.31 227.77 4435.51 225.671 4439.8 225.671C4446.9 225.671 4452.45 231.219 4452.45 239.866C4452.45 248.512 4446.9 254.26 4439.8 254.26C4435.46 254.26 4432.36 252.111 4430.66 249.862V267.006H4423.66V226.12H4430.66V230.119ZM4445.3 239.866C4445.3 234.617 4441.75 231.818 4437.95 231.818C4434.21 231.818 4430.66 234.717 4430.66 239.966C4430.66 245.214 4434.21 248.113 4437.95 248.113C4441.75 248.113 4445.3 245.114 4445.3 239.866Z" fill="white"/>
  <path d="M4017.7 96.8008C3998.6 96.8008 3983.1 112.301 3983.1 131.401C3983.1 150.501 3998.6 166.001 4017.7 166.001C4036.8 166.001 4052.3 150.501 4052.3 131.401C4052.3 112.301 4036.8 96.8008 4017.7 96.8008ZM4030.5 136.001L4014.3 152.201C4013.1 153.401 4011.5 154.001 4010 154.001C4008.5 154.001 4006.9 153.401 4005.7 152.201C4003.3 149.801 4003.3 146.001 4005.7 143.601L4017.6 131.701L4005 119.101C4002.6 116.701 4002.6 112.901 4005 110.501C4007.4 108.101 4011.2 108.101 4013.6 110.501L4030.5 127.401C4032.9 129.801 4032.9 133.601 4030.5 136.001Z" fill="white"/>
  <path d="M3801.7 72.2007H4519.5C4593.4 72.2007 4654.8 126.201 4666.6 196.801C4667.9 188.801 4668.7 180.601 4668.7 172.201C4668.7 90.0007 4601.8 23.1006 4519.6 23.1006H3801.7C3719.5 23.1006 3652.6 90.0007 3652.6 172.201C3652.6 180.601 3653.3 188.801 3654.7 196.801C3666.4 126.201 3727.9 72.2007 3801.7 72.2007Z" fill="url(#paint5_linear_920_2815)" opacity="0.2"/>
  <path d="M1087 143.6H1776V155.2L1798.8 142.1L1776 128.9V140.5H1087V143.6Z" fill="#D0D0D0"/>
  <path d="M3147.92 107.465H3129.73L3126.61 116.337H3119.18L3134.73 72.8524H3142.98L3158.54 116.337H3151.04L3147.92 107.465ZM3145.92 101.655L3138.86 81.4744L3131.73 101.655H3145.92ZM3172.42 86.9724C3173.63 85.3896 3175.28 84.0568 3177.36 82.9738C3179.44 81.8909 3181.8 81.3494 3184.42 81.3494C3187.42 81.3494 3190.15 82.0991 3192.6 83.5986C3195.1 85.0564 3197.06 87.1182 3198.48 89.7839C3199.89 92.4496 3200.6 95.511 3200.6 98.9681C3200.6 102.425 3199.89 105.528 3198.48 108.277C3197.06 110.985 3195.1 113.109 3192.6 114.65C3190.15 116.149 3187.42 116.899 3184.42 116.899C3181.8 116.899 3179.46 116.379 3177.42 115.337C3175.38 114.254 3173.71 112.921 3172.42 111.339V132.706H3165.3V81.9117H3172.42V86.9724ZM3193.35 98.9681C3193.35 96.594 3192.85 94.553 3191.85 92.8453C3190.9 91.0959 3189.6 89.7839 3187.98 88.9092C3186.4 87.9929 3184.69 87.5347 3182.86 87.5347C3181.07 87.5347 3179.36 87.9929 3177.73 88.9092C3176.15 89.8255 3174.86 91.1584 3173.86 92.9078C3172.9 94.6572 3172.42 96.7189 3172.42 99.0931C3172.42 101.467 3172.9 103.55 3173.86 105.341C3174.86 107.09 3176.15 108.423 3177.73 109.339C3179.36 110.256 3181.07 110.714 3182.86 110.714C3184.69 110.714 3186.4 110.256 3187.98 109.339C3189.6 108.381 3190.9 107.007 3191.85 105.216C3192.85 103.425 3193.35 101.342 3193.35 98.9681ZM3214.77 86.9724C3215.97 85.3896 3217.62 84.0568 3219.7 82.9738C3221.79 81.8909 3224.14 81.3494 3226.76 81.3494C3229.76 81.3494 3232.49 82.0991 3234.95 83.5986C3237.45 85.0564 3239.4 87.1182 3240.82 89.7839C3242.24 92.4496 3242.94 95.511 3242.94 98.9681C3242.94 102.425 3242.24 105.528 3240.82 108.277C3239.4 110.985 3237.45 113.109 3234.95 114.65C3232.49 116.149 3229.76 116.899 3226.76 116.899C3224.14 116.899 3221.81 116.379 3219.77 115.337C3217.72 114.254 3216.06 112.921 3214.77 111.339V132.706H3207.64V81.9117H3214.77V86.9724ZM3235.7 98.9681C3235.7 96.594 3235.2 94.553 3234.2 92.8453C3233.24 91.0959 3231.95 89.7839 3230.32 88.9092C3228.74 87.9929 3227.03 87.5347 3225.2 87.5347C3223.41 87.5347 3221.7 87.9929 3220.08 88.9092C3218.49 89.8255 3217.2 91.1584 3216.2 92.9078C3215.25 94.6572 3214.77 96.7189 3214.77 99.0931C3214.77 101.467 3215.25 103.55 3216.2 105.341C3217.2 107.09 3218.49 108.423 3220.08 109.339C3221.7 110.256 3223.41 110.714 3225.2 110.714C3227.03 110.714 3228.74 110.256 3230.32 109.339C3231.95 108.381 3233.24 107.007 3234.2 105.216C3235.2 103.425 3235.7 101.342 3235.7 98.9681ZM3257.11 86.9099C3258.15 85.1605 3259.53 83.8069 3261.23 82.8489C3262.98 81.8492 3265.04 81.3494 3267.42 81.3494V88.7218H3265.61C3262.82 88.7218 3260.69 89.4298 3259.23 90.846C3257.82 92.2622 3257.11 94.7196 3257.11 98.2184V116.337H3249.99V81.9117H3257.11V86.9099ZM3288.9 116.899C3285.65 116.899 3282.71 116.17 3280.09 114.712C3277.46 113.213 3275.4 111.13 3273.9 108.465C3272.4 105.757 3271.65 102.633 3271.65 99.0931C3271.65 95.5943 3272.42 92.4913 3273.97 89.7839C3275.51 87.0765 3277.61 84.9939 3280.28 83.5361C3282.94 82.0783 3285.92 81.3494 3289.21 81.3494C3292.5 81.3494 3295.48 82.0783 3298.14 83.5361C3300.81 84.9939 3302.91 87.0765 3304.46 89.7839C3306 92.4913 3306.77 95.5943 3306.77 99.0931C3306.77 102.592 3305.98 105.695 3304.39 108.402C3302.81 111.11 3300.64 113.213 3297.89 114.712C3295.19 116.17 3292.19 116.899 3288.9 116.899ZM3288.9 110.714C3290.73 110.714 3292.44 110.277 3294.02 109.402C3295.65 108.527 3296.96 107.215 3297.96 105.466C3298.96 103.716 3299.46 101.592 3299.46 99.0931C3299.46 96.594 3298.98 94.4905 3298.02 92.7828C3297.06 91.0334 3295.79 89.7214 3294.21 88.8467C3292.63 87.972 3290.92 87.5347 3289.09 87.5347C3287.25 87.5347 3285.55 87.972 3283.96 88.8467C3282.42 89.7214 3281.19 91.0334 3280.28 92.7828C3279.36 94.4905 3278.9 96.594 3278.9 99.0931C3278.9 102.8 3279.84 105.674 3281.71 107.715C3283.63 109.714 3286.02 110.714 3288.9 110.714ZM3327.12 109.964L3336.86 81.9117H3344.42L3331.3 116.337H3322.8L3309.75 81.9117H3317.37L3327.12 109.964ZM3381.36 98.2809C3381.36 99.5721 3381.27 100.738 3381.11 101.78H3354.8C3355.01 104.529 3356.03 106.736 3357.87 108.402C3359.7 110.068 3361.95 110.901 3364.61 110.901C3368.44 110.901 3371.15 109.298 3372.73 106.091H3380.42C3379.38 109.256 3377.48 111.859 3374.73 113.9C3372.03 115.9 3368.65 116.899 3364.61 116.899C3361.32 116.899 3358.37 116.17 3355.74 114.712C3353.16 113.213 3351.12 111.13 3349.62 108.465C3348.16 105.757 3347.43 102.633 3347.43 99.0931C3347.43 95.5527 3348.14 92.4496 3349.56 89.7839C3351.01 87.0765 3353.03 84.9939 3355.62 83.5361C3358.24 82.0783 3361.24 81.3494 3364.61 81.3494C3367.86 81.3494 3370.76 82.0575 3373.3 83.4736C3375.84 84.8898 3377.82 86.8891 3379.23 89.4715C3380.65 92.0123 3381.36 94.9487 3381.36 98.2809ZM3373.92 96.0317C3373.88 93.4076 3372.94 91.3042 3371.11 89.7214C3369.28 88.1386 3367.01 87.3473 3364.3 87.3473C3361.84 87.3473 3359.74 88.1386 3357.99 89.7214C3356.24 91.2625 3355.2 93.3659 3354.87 96.0317H3373.92ZM3385.99 98.9681C3385.99 95.511 3386.7 92.4496 3388.12 89.7839C3389.57 87.1182 3391.53 85.0564 3393.99 83.5986C3396.49 82.0991 3399.26 81.3494 3402.3 81.3494C3404.55 81.3494 3406.76 81.8492 3408.92 82.8489C3411.13 83.8069 3412.88 85.0981 3414.17 86.7225V70.1034H3421.35V116.337H3414.17V111.151C3413 112.817 3411.38 114.192 3409.3 115.275C3407.26 116.358 3404.9 116.899 3402.24 116.899C3399.24 116.899 3396.49 116.149 3393.99 114.65C3391.53 113.109 3389.57 110.985 3388.12 108.277C3386.7 105.528 3385.99 102.425 3385.99 98.9681ZM3414.17 99.0931C3414.17 96.7189 3413.67 94.6572 3412.67 92.9078C3411.71 91.1584 3410.44 89.8255 3408.86 88.9092C3407.28 87.9929 3405.57 87.5347 3403.74 87.5347C3401.9 87.5347 3400.2 87.9929 3398.61 88.9092C3397.03 89.7839 3395.74 91.0959 3394.74 92.8453C3393.78 94.553 3393.3 96.594 3393.3 98.9681C3393.3 101.342 3393.78 103.425 3394.74 105.216C3395.74 107.007 3397.03 108.381 3398.61 109.339C3400.24 110.256 3401.94 110.714 3403.74 110.714C3405.57 110.714 3407.28 110.256 3408.86 109.339C3410.44 108.423 3411.71 107.09 3412.67 105.341C3413.67 103.55 3414.17 101.467 3414.17 99.0931Z" fill="#585858"/>
  <path d="M2900.5 184.401H3589.5V196.001L3612.3 182.801L3589.5 169.701V181.301H2900.5V184.401Z" fill="#D0D0D0"/>
  <path d="M1798.8 234.201H1109.8V222.601L1087 235.801L1109.8 248.901V237.401H1798.8V234.201Z" fill="#D0D0D0"/>
  <path d="M1282.73 298.731V304.542H1271.18V342.153H1264.05V304.542H1252.43V298.731H1282.73ZM1297.07 312.726C1298.11 310.977 1299.49 309.623 1301.19 308.665C1302.94 307.666 1305.01 307.166 1307.38 307.166V314.538H1305.57C1302.78 314.538 1300.65 315.246 1299.19 316.662C1297.78 318.079 1297.07 320.536 1297.07 324.035V342.153H1289.95V307.728H1297.07V312.726ZM1317.55 303.167C1316.26 303.167 1315.18 302.73 1314.3 301.855C1313.43 300.981 1312.99 299.898 1312.99 298.606C1312.99 297.315 1313.43 296.232 1314.3 295.358C1315.18 294.483 1316.26 294.045 1317.55 294.045C1318.8 294.045 1319.86 294.483 1320.74 295.358C1321.61 296.232 1322.05 297.315 1322.05 298.606C1322.05 299.898 1321.61 300.981 1320.74 301.855C1319.86 302.73 1318.8 303.167 1317.55 303.167ZM1321.05 307.728V342.153H1313.93V307.728H1321.05ZM1337.52 312.789C1338.73 311.206 1340.38 309.873 1342.46 308.79C1344.54 307.707 1346.89 307.166 1349.52 307.166C1352.52 307.166 1355.25 307.916 1357.7 309.415C1360.2 310.873 1362.16 312.935 1363.58 315.6C1364.99 318.266 1365.7 321.327 1365.7 324.785C1365.7 328.242 1364.99 331.345 1363.58 334.094C1362.16 336.801 1360.2 338.925 1357.7 340.466C1355.25 341.966 1352.52 342.716 1349.52 342.716C1346.89 342.716 1344.56 342.195 1342.52 341.154C1340.48 340.071 1338.81 338.738 1337.52 337.155V358.522H1330.4V307.728H1337.52V312.789ZM1358.45 324.785C1358.45 322.41 1357.95 320.369 1356.95 318.662C1356 316.912 1354.7 315.6 1353.08 314.726C1351.5 313.809 1349.79 313.351 1347.96 313.351C1346.17 313.351 1344.46 313.809 1342.83 314.726C1341.25 315.642 1339.96 316.975 1338.96 318.724C1338 320.474 1337.52 322.535 1337.52 324.909C1337.52 327.284 1338 329.366 1338.96 331.157C1339.96 332.907 1341.25 334.239 1342.83 335.156C1344.46 336.072 1346.17 336.53 1347.96 336.53C1349.79 336.53 1351.5 336.072 1353.08 335.156C1354.7 334.198 1356 332.823 1356.95 331.032C1357.95 329.241 1358.45 327.159 1358.45 324.785ZM1396.1 298.731V342.153H1388.97V298.731H1396.1ZM1422.82 307.166C1425.52 307.166 1427.94 307.728 1430.06 308.853C1432.23 309.977 1433.92 311.643 1435.12 313.851C1436.33 316.058 1436.94 318.724 1436.94 321.848V342.153H1429.88V322.91C1429.88 319.828 1429.1 317.475 1427.56 315.85C1426.02 314.184 1423.92 313.351 1421.25 313.351C1418.59 313.351 1416.46 314.184 1414.88 315.85C1413.34 317.475 1412.57 319.828 1412.57 322.91V342.153H1405.45V307.728H1412.57V311.664C1413.74 310.248 1415.21 309.144 1417 308.353C1418.84 307.562 1420.77 307.166 1422.82 307.166ZM1459.33 335.781L1469.07 307.728H1476.63L1463.51 342.153H1455.02L1441.96 307.728H1449.58L1459.33 335.781ZM1485.64 303.167C1484.35 303.167 1483.27 302.73 1482.39 301.855C1481.52 300.981 1481.08 299.898 1481.08 298.606C1481.08 297.315 1481.52 296.232 1482.39 295.358C1483.27 294.483 1484.35 294.045 1485.64 294.045C1486.89 294.045 1487.95 294.483 1488.83 295.358C1489.7 296.232 1490.14 297.315 1490.14 298.606C1490.14 299.898 1489.7 300.981 1488.83 301.855C1487.95 302.73 1486.89 303.167 1485.64 303.167ZM1489.14 307.728V342.153H1482.02V307.728H1489.14ZM1506.8 313.539V332.594C1506.8 333.885 1507.09 334.823 1507.68 335.406C1508.3 335.947 1509.34 336.218 1510.8 336.218H1515.17V342.153H1509.55C1506.34 342.153 1503.89 341.404 1502.18 339.904C1500.47 338.405 1499.62 335.968 1499.62 332.594V313.539H1495.56V307.728H1499.62V299.169H1506.8V307.728H1515.17V313.539H1506.8ZM1519.36 324.785C1519.36 321.327 1520.07 318.266 1521.49 315.6C1522.95 312.935 1524.9 310.873 1527.36 309.415C1529.86 307.916 1532.61 307.166 1535.61 307.166C1538.32 307.166 1540.67 307.707 1542.67 308.79C1544.71 309.832 1546.33 311.144 1547.54 312.726V307.728H1554.73V342.153H1547.54V337.03C1546.33 338.655 1544.69 340.008 1542.61 341.091C1540.52 342.174 1538.15 342.716 1535.48 342.716C1532.53 342.716 1529.82 341.966 1527.36 340.466C1524.9 338.925 1522.95 336.801 1521.49 334.094C1520.07 331.345 1519.36 328.242 1519.36 324.785ZM1547.54 324.909C1547.54 322.535 1547.04 320.474 1546.04 318.724C1545.08 316.975 1543.81 315.642 1542.23 314.726C1540.65 313.809 1538.94 313.351 1537.11 313.351C1535.27 313.351 1533.57 313.809 1531.98 314.726C1530.4 315.6 1529.11 316.912 1528.11 318.662C1527.15 320.369 1526.67 322.41 1526.67 324.785C1526.67 327.159 1527.15 329.241 1528.11 331.032C1529.11 332.823 1530.4 334.198 1531.98 335.156C1533.61 336.072 1535.32 336.53 1537.11 336.53C1538.94 336.53 1540.65 336.072 1542.23 335.156C1543.81 334.239 1545.08 332.907 1546.04 331.157C1547.04 329.366 1547.54 327.284 1547.54 324.909ZM1572.39 313.539V332.594C1572.39 333.885 1572.68 334.823 1573.27 335.406C1573.89 335.947 1574.93 336.218 1576.39 336.218H1580.76V342.153H1575.14C1571.93 342.153 1569.48 341.404 1567.77 339.904C1566.06 338.405 1565.21 335.968 1565.21 332.594V313.539H1561.14V307.728H1565.21V299.169H1572.39V307.728H1580.76V313.539H1572.39ZM1590.95 303.167C1589.66 303.167 1588.58 302.73 1587.7 301.855C1586.83 300.981 1586.39 299.898 1586.39 298.606C1586.39 297.315 1586.83 296.232 1587.7 295.358C1588.58 294.483 1589.66 294.045 1590.95 294.045C1592.2 294.045 1593.26 294.483 1594.14 295.358C1595.01 296.232 1595.45 297.315 1595.45 298.606C1595.45 299.898 1595.01 300.981 1594.14 301.855C1593.26 302.73 1592.2 303.167 1590.95 303.167ZM1594.45 307.728V342.153H1587.33V307.728H1594.45ZM1618.73 342.716C1615.48 342.716 1612.55 341.987 1609.92 340.529C1607.3 339.029 1605.24 336.947 1603.74 334.281C1602.24 331.574 1601.49 328.45 1601.49 324.909C1601.49 321.411 1602.26 318.308 1603.8 315.6C1605.34 312.893 1607.45 310.81 1610.11 309.353C1612.78 307.895 1615.76 307.166 1619.05 307.166C1622.34 307.166 1625.31 307.895 1627.98 309.353C1630.65 310.81 1632.75 312.893 1634.29 315.6C1635.83 318.308 1636.6 321.411 1636.6 324.909C1636.6 328.408 1635.81 331.511 1634.23 334.219C1632.64 336.926 1630.48 339.029 1627.73 340.529C1625.02 341.987 1622.02 342.716 1618.73 342.716ZM1618.73 336.53C1620.57 336.53 1622.27 336.093 1623.86 335.218C1625.48 334.344 1626.79 333.032 1627.79 331.282C1628.79 329.533 1629.29 327.409 1629.29 324.909C1629.29 322.41 1628.81 320.307 1627.85 318.599C1626.9 316.85 1625.63 315.538 1624.04 314.663C1622.46 313.788 1620.75 313.351 1618.92 313.351C1617.09 313.351 1615.38 313.788 1613.8 314.663C1612.26 315.538 1611.03 316.85 1610.11 318.599C1609.19 320.307 1608.74 322.41 1608.74 324.909C1608.74 328.616 1609.67 331.49 1611.55 333.531C1613.46 335.531 1615.86 336.53 1618.73 336.53ZM1661.01 307.166C1663.72 307.166 1666.13 307.728 1668.26 308.853C1670.42 309.977 1672.11 311.643 1673.32 313.851C1674.53 316.058 1675.13 318.724 1675.13 321.848V342.153H1668.07V322.91C1668.07 319.828 1667.3 317.475 1665.76 315.85C1664.22 314.184 1662.12 313.351 1659.45 313.351C1656.78 313.351 1654.66 314.184 1653.08 315.85C1651.54 317.475 1650.77 319.828 1650.77 322.91V342.153H1643.64V307.728H1650.77V311.664C1651.93 310.248 1653.41 309.144 1655.2 308.353C1657.03 307.562 1658.97 307.166 1661.01 307.166Z" fill="#585858"/>
  <path d="M149.1 145.701V143.001C149.1 141.501 147.9 140.301 146.4 140.301C144.9 140.301 143.7 141.501 143.7 143.001V145.701C143.7 147.201 144.9 148.401 146.4 148.401C147.9 148.401 149.1 147.201 149.1 145.701Z" fill="#878787"/>
  <path d="M162.5 148.401C164 148.401 165.2 147.201 165.2 145.701V143.001C165.2 141.501 164 140.301 162.5 140.301C161 140.301 159.8 141.501 159.8 143.001V145.701C159.8 147.201 161 148.401 162.5 148.401Z" fill="#878787"/>
  <path d="M175.9 177.901H165.2V172.301C171 168.901 174.9 163.101 175.7 156.401H178.6C183 156.401 186.6 152.801 186.6 148.301V145.601C186.6 143.301 185.6 141.201 183.9 139.701V121.501C183.9 114.101 177.9 108.101 170.5 108.101H167.8C166.2 108.101 164.6 108.601 163.3 109.501C162.7 108.501 162 107.501 161.2 106.701C158.7 104.201 155.3 102.801 151.7 102.801H143.7C133.3 102.801 124.9 111.201 124.9 121.601V139.801C123.2 141.301 122.2 143.501 122.2 145.701V148.401C122.2 152.801 125.8 156.401 130.2 156.501H133.1C134 163.101 137.9 169.001 143.6 172.401V178.001H132.9C119.6 178.001 108.8 188.801 108.8 202.101V218.201C108.8 219.701 110 220.901 111.5 220.901V250.401C111.5 251.901 112.7 253.101 114.2 253.101H194.7C196.2 253.101 197.4 251.901 197.4 250.401V220.901C198.9 220.901 200.1 219.701 200.1 218.201V202.101C200 188.701 189.2 178.001 175.9 177.901ZM181.2 145.701V148.401C181.2 149.901 180 151.101 178.5 151.101H175.8V143.001H178.5C180 143.101 181.2 144.301 181.2 145.701ZM133 151.101H130.3C128.8 151.101 127.6 149.901 127.6 148.401V145.701C127.6 144.201 128.8 143.001 130.3 143.001H133V151.101ZM133 135.001V137.701H130.3V121.601C130.3 114.201 136.3 108.201 143.7 108.201H151.7C156.1 108.201 159.7 111.801 159.7 116.201C159.7 116.201 159.7 116.201 159.7 116.301C159.7 117.801 160.9 119.001 162.4 119.001C163.9 119.001 165.1 117.801 165.1 116.301C165.1 114.801 166.3 113.601 167.8 113.601H170.5C174.9 113.601 178.5 117.201 178.5 121.701V137.801H175.8V135.101C175.8 130.701 172.2 127.101 167.8 127.001H141C136.6 127.001 133 130.601 133 135.001ZM138.3 153.801V135.001C138.3 133.501 139.5 132.301 141 132.301H167.8C169.3 132.301 170.5 133.501 170.5 135.001V153.801C170.5 162.701 163.3 169.901 154.4 169.901C145.5 169.901 138.3 162.701 138.3 153.801ZM143.7 183.301C146.7 183.301 149.1 180.901 149.1 177.901V174.501C152.6 175.401 156.3 175.401 159.8 174.501V177.901C159.8 180.901 162.2 183.301 165.2 183.301H167.6C166.1 190.601 159.1 195.201 151.8 193.801C146.5 192.701 142.4 188.601 141.3 183.301H143.7ZM127.6 247.701H116.9V220.901H127.6V247.701ZM192 247.701H181.2V220.901H191.9V247.701H192ZM194.7 215.501H181.2V207.401C181.2 205.901 180 204.701 178.5 204.701C177 204.701 175.8 205.901 175.8 207.401V247.601H132.9V207.401C132.9 205.901 131.7 204.701 130.2 204.701C128.7 204.701 127.5 205.901 127.5 207.401V215.501H114.2V202.101C114.2 191.701 122.6 183.301 133 183.301H135.9C137.4 193.501 146.9 200.701 157.1 199.201C165.3 198.001 171.8 191.501 173 183.301H175.9C186.3 183.301 194.7 191.701 194.7 202.101V215.501Z" fill="#878787"/>
  <path d="M163 160.201C163.9 159.001 163.6 157.301 162.5 156.401C161.4 155.501 159.6 155.701 158.7 156.901C156.8 159.301 153.3 159.601 150.9 157.701C150.6 157.501 150.3 157.201 150.1 156.901C149.2 155.701 147.5 155.501 146.3 156.401C145.1 157.301 144.9 159.001 145.8 160.201C149.4 164.901 156.1 165.901 160.8 162.401C161.7 161.801 162.4 161.101 163 160.201Z" fill="#878787"/>
  <path d="M260.5 151.501C260.5 147.201 257 143.701 252.7 143.701H214.7C210.4 143.701 206.9 147.201 206.9 151.501V201.801C206.9 206.101 210.4 209.601 214.7 209.601H252.7C257 209.601 260.5 206.101 260.5 201.801V151.501ZM256.3 201.901C256.3 204.001 254.7 205.601 252.6 205.601H214.6C212.5 205.601 210.9 203.901 210.9 201.901V151.601C210.9 149.501 212.5 147.901 214.6 147.901H252.6C254.7 147.901 256.3 149.601 256.3 151.601V201.901Z" fill="#878787"/>
  <path d="M221.1 180.801H245.5C246.1 180.801 246.7 180.601 247.1 180.001C247.5 179.601 247.7 179.001 247.5 178.301C246.7 173.401 243.6 169.401 239.5 167.601C240.7 166.201 241.6 164.301 241.6 162.001C241.6 157.501 237.9 153.801 233.4 153.801C228.9 153.801 225.2 157.501 225.2 162.001C225.2 164.101 226 165.901 227.3 167.601C223.2 169.701 219.9 173.601 219.3 178.301C219.3 178.901 219.3 179.501 219.7 180.001C219.8 180.601 220.4 180.801 221.1 180.801ZM229.1 162.301C229.1 160.001 231 158.201 233.2 158.201C235.4 158.201 237.3 160.101 237.3 162.301C237.3 164.501 235.4 166.401 233.2 166.401C231 166.401 229.1 164.501 229.1 162.301ZM233.2 170.501C237.3 170.501 241 173.001 242.7 176.701H223.7C225.4 173.001 229.1 170.501 233.2 170.501Z" fill="#878787"/>
  <path d="M250.2 187.001H217.2C216 187.001 215.1 187.801 215.1 189.101C215.1 190.301 215.9 191.201 217.2 191.201H250.2C251.4 191.201 252.3 190.401 252.3 189.101C252.2 187.801 251.4 187.001 250.2 187.001Z" fill="#878787"/>
  <path d="M250.2 195.301H217.2C216 195.301 215.1 196.101 215.1 197.401C215.1 198.701 215.9 199.501 217.2 199.501H250.2C251.4 199.501 252.3 198.701 252.3 197.401C252.3 196.101 251.4 195.301 250.2 195.301Z" fill="#878787"/>
  <path d="M1974.4 190.201C1952.4 190.201 1934.4 172.334 1934.4 150.334C1934.4 128.334 1952.27 110.468 1974.4 110.468C1996.53 110.468 2014.27 128.334 2014.27 150.334C2014.27 172.201 1996.4 190.201 1974.4 190.201ZM1974.4 121.135C1958.27 121.135 1945.2 134.201 1945.2 150.201C1945.2 166.335 1958.27 179.268 1974.4 179.268C1990.53 179.268 2003.47 166.201 2003.47 150.201C2003.47 134.201 1990.4 121.135 1974.4 121.135Z" fill="#878787"/>
  <path d="M1974.4 208.467C1952.4 208.467 1934.4 226.334 1934.4 248.334H1945.2C1945.2 242.201 1947.07 236.601 1950.27 231.934L1962.8 244.467C1962.4 245.667 1962.13 247.001 1962.13 248.334H1986.4C1986.4 247.001 1986.13 245.667 1985.73 244.467L1998.27 231.934C2001.47 236.601 2003.33 242.334 2003.33 248.334H2014.13C2014.27 226.467 1996.4 208.467 1974.4 208.467ZM1978.27 236.867C1977.07 236.467 1975.73 236.201 1974.4 236.201C1973.07 236.201 1971.73 236.467 1970.53 236.867L1958 224.334C1962.67 221.134 1968.4 219.267 1974.4 219.267C1980.4 219.267 1986.13 221.134 1990.8 224.334L1978.27 236.867Z" fill="#878787"/>
  <path d="M2043.47 248.468H2032.67C2032.67 216.334 2006.53 190.201 1974.4 190.201C1942.27 190.201 1916.13 216.334 1916.13 248.468H1905.33C1905.33 239.134 1907.2 230.068 1910.8 221.534C1914.27 213.268 1919.2 205.934 1925.6 199.534C1932 193.134 1939.33 188.201 1947.6 184.734C1956.13 181.134 1965.2 179.268 1974.53 179.268C1983.87 179.268 1992.93 181.134 2001.47 184.734C2009.73 188.201 2017.07 193.134 2023.47 199.534C2029.87 205.934 2034.8 213.268 2038.27 221.534C2041.6 230.068 2043.47 239.134 2043.47 248.468Z" fill="#878787"/>
  <path d="M2082.1 139.701C2082.1 135.501 2078.7 132.201 2074.6 132.201H2038.2C2034.1 132.201 2030.7 135.601 2030.7 139.701V187.901C2030.7 192.101 2034.1 195.401 2038.2 195.401H2074.6C2078.7 195.401 2082.1 192.001 2082.1 187.901V139.701ZM2078.2 188.001C2078.2 190.001 2076.6 191.601 2074.6 191.601H2038.2C2036.2 191.601 2034.6 190.001 2034.6 188.001V139.801C2034.6 137.801 2036.2 136.201 2038.2 136.201H2074.6C2076.6 136.201 2078.2 137.801 2078.2 139.801V188.001Z" fill="#878787"/>
  <path d="M2044.4 167.801H2067.7C2068.3 167.801 2068.9 167.601 2069.3 167.001C2069.7 166.601 2069.9 166.001 2069.7 165.401C2068.9 160.701 2065.9 156.901 2062 155.101C2063.2 153.701 2064 151.901 2064 149.801C2064 145.501 2060.4 141.901 2056.1 141.901C2051.8 141.901 2048.2 145.501 2048.2 149.801C2048.2 151.801 2049 153.601 2050.2 155.101C2046.3 157.101 2043.1 160.801 2042.5 165.401C2042.5 166.001 2042.5 166.601 2042.9 167.001C2043.2 167.601 2043.8 167.801 2044.4 167.801ZM2052.1 150.001C2052.1 147.801 2053.9 146.101 2056 146.101C2058.1 146.101 2059.9 147.901 2059.9 150.001C2059.9 152.101 2058.1 153.901 2056 153.901C2053.9 153.901 2052.1 152.201 2052.1 150.001ZM2056 157.901C2059.9 157.901 2063.5 160.301 2065.1 163.801H2046.9C2048.5 160.301 2052.1 157.901 2056 157.901Z" fill="#878787"/>
  <path d="M2072.2 173.701H2040.6C2039.4 173.701 2038.6 174.501 2038.6 175.701C2038.6 176.901 2039.4 177.701 2040.6 177.701H2072.2C2073.4 177.701 2074.2 176.901 2074.2 175.701C2074.2 174.501 2073.4 173.701 2072.2 173.701Z" fill="#878787"/>
  <path d="M2072.2 181.602H2040.6C2039.4 181.602 2038.6 182.402 2038.6 183.602C2038.6 184.802 2039.4 185.602 2040.6 185.602H2072.2C2073.4 185.602 2074.2 184.802 2074.2 183.602C2074.2 182.402 2073.4 181.602 2072.2 181.602Z" fill="#878787"/>
  <path d="M3845 173.1H3760.5C3756.3 173.1 3752.3 172.3 3748.5 170.6L3733.9 164.2C3732.4 163.5 3731.7 161.8 3732.4 160.3C3733.1 158.8 3734.8 158.1 3736.3 158.8L3750.9 165.2C3753.9 166.5 3757.2 167.2 3760.5 167.2H3845C3848.3 167.2 3851.6 166.5 3854.6 165.2L3869.2 158.8C3870.7 158.1 3872.4 158.8 3873.1 160.3C3873.8 161.8 3873.1 163.5 3871.6 164.2L3857 170.6C3853.2 172.2 3849.2 173.1 3845 173.1Z" fill="#878787"/>
  <path d="M3874 221.5H3731.6C3725.2 221.5 3720 216.3 3720 209.9V182.1C3720 178.6 3721.2 175.1 3723.3 172.3L3750.6 135.9C3753.4 132.2 3757 129.2 3761.1 127.1C3765.2 125 3769.8 123.9 3774.5 123.9H3831.1C3835.7 123.9 3840.3 125 3844.5 127.1C3848.7 129.2 3852.3 132.2 3855 135.9L3882.3 172.3C3884.4 175.1 3885.6 178.6 3885.6 182.1V209.9C3885.5 216.3 3880.3 221.5 3874 221.5ZM3774.5 129.9C3767 129.9 3759.9 133.5 3755.4 139.5L3728.1 175.9C3726.7 177.7 3726 179.9 3726 182.2V210C3726 213.1 3728.5 215.6 3731.6 215.6H3874C3877.1 215.6 3879.6 213.1 3879.6 210V182.2C3879.6 180 3878.9 177.7 3877.5 175.9L3850.2 139.4C3845.7 133.4 3838.6 129.8 3831.1 129.8H3774.5V129.9Z" fill="#878787"/>
  <path d="M3825.3 204.501H3780.3C3777.2 204.501 3774.5 202.401 3773.6 199.501L3771.7 193.001C3771.1 190.901 3771.5 188.701 3772.8 186.901C3774.1 185.101 3776.1 184.101 3778.3 184.101H3827C3829.2 184.101 3831.2 185.101 3832.5 186.901C3833.8 188.701 3834.2 190.901 3833.6 193.001L3831.7 199.501C3831.1 202.401 3828.3 204.501 3825.3 204.501ZM3778.4 190.001C3778 190.001 3777.7 190.201 3777.6 190.401C3777.5 190.601 3777.3 190.901 3777.4 191.301L3779.3 197.801C3779.4 198.201 3779.8 198.501 3780.3 198.501H3825.3C3825.7 198.501 3826.1 198.201 3826.3 197.801L3828.2 191.301C3828.3 190.901 3828.1 190.601 3828 190.401C3827.9 190.201 3827.6 190.001 3827.2 190.001H3778.4Z" fill="#878787"/>
  <path d="M3863.8 203.401C3863.7 203.401 3863.5 203.401 3863.4 203.401L3853.1 202.901C3848.5 202.701 3845 198.901 3845 194.301C3845 189.701 3848.6 186.001 3853.1 185.701L3863.4 185.201C3865.7 185.101 3868 185.901 3869.7 187.501C3871.4 189.101 3872.4 191.401 3872.4 193.701V194.701C3872.4 197.001 3871.4 199.301 3869.7 200.901C3868.1 202.501 3866 203.401 3863.8 203.401ZM3863.8 191.201C3863.7 191.201 3863.7 191.201 3863.7 191.201L3853.4 191.701C3852 191.801 3850.9 192.901 3850.9 194.301C3850.9 195.701 3852 196.901 3853.4 196.901L3863.7 197.401C3864.4 197.401 3865.1 197.201 3865.6 196.701C3866.1 196.201 3866.4 195.501 3866.4 194.801V193.801C3866.4 193.101 3866.1 192.401 3865.6 191.901C3865.1 191.401 3864.5 191.201 3863.8 191.201Z" fill="#878787"/>
  <path d="M3741.7 203.4C3739.5 203.4 3737.4 202.6 3735.8 201C3734.1 199.4 3733.1 197.1 3733.1 194.8V193.8C3733.1 191.5 3734.1 189.2 3735.8 187.6C3737.5 186 3739.8 185.1 3742.1 185.3L3752.4 185.8C3757 186 3760.5 189.8 3760.5 194.4C3760.5 199 3756.9 202.7 3752.4 203L3742.1 203.5C3742 203.4 3741.8 203.4 3741.7 203.4ZM3741.7 191.2C3741 191.2 3740.4 191.5 3739.9 191.9C3739.4 192.4 3739.1 193.1 3739.1 193.8V194.8C3739.1 195.5 3739.4 196.2 3739.9 196.7C3740.4 197.2 3741.1 197.5 3741.8 197.4L3752.1 196.9C3753.5 196.8 3754.6 195.7 3754.6 194.3C3754.6 192.9 3753.5 191.7 3752.1 191.7L3741.8 191.2C3741.8 191.2 3741.8 191.2 3741.7 191.2Z" fill="#878787"/>
  <path d="M3748.5 238.101H3742.5C3736.8 238.101 3732.1 233.401 3732.1 227.701V218.601C3732.1 216.901 3733.4 215.601 3735.1 215.601H3755.9C3757.5 215.601 3758.9 216.901 3758.9 218.601V227.701C3758.9 233.401 3754.3 238.101 3748.5 238.101ZM3738.1 221.501V227.701C3738.1 230.201 3740.1 232.101 3742.5 232.101H3748.5C3751 232.101 3752.9 230.101 3752.9 227.701V221.501H3738.1Z" fill="#878787"/>
  <path d="M3863 238.101H3857C3851.3 238.101 3846.6 233.401 3846.6 227.701V218.601C3846.6 216.901 3847.9 215.601 3849.6 215.601H3870.4C3872 215.601 3873.4 216.901 3873.4 218.601V227.701C3873.4 233.401 3868.7 238.101 3863 238.101ZM3852.5 221.501V227.701C3852.5 230.201 3854.5 232.101 3856.9 232.101H3862.9C3865.4 232.101 3867.3 230.101 3867.3 227.701V221.501H3852.5Z" fill="#878787"/>
  <path d="M3730.6 170.5H3714C3710.6 170.5 3707.8 167.7 3707.8 164.3V158.6C3707.8 155.2 3710.6 152.4 3714 152.4H3725.5C3727.9 152.4 3730.1 153.8 3731.1 155.9L3735 164.1C3735.7 165.6 3735.1 167.3 3733.6 168C3733.3 169.4 3732.1 170.5 3730.6 170.5ZM3714 158.3C3713.9 158.3 3713.8 158.4 3713.8 158.5V164.2C3713.8 164.3 3713.9 164.4 3714 164.4H3728.6L3725.7 158.3C3725.7 158.2 3725.6 158.2 3725.5 158.2L3714 158.3Z" fill="#878787"/>
  <path d="M3891.6 170.5H3875C3873.5 170.5 3872.3 169.4 3872.1 168C3870.6 167.3 3870 165.5 3870.7 164.1L3874.6 155.9C3875.6 153.8 3877.8 152.4 3880.2 152.4H3891.7C3895.1 152.4 3897.9 155.2 3897.9 158.6V164.3C3897.8 167.7 3895 170.5 3891.6 170.5ZM3877 164.6H3891.6C3891.7 164.6 3891.8 164.5 3891.8 164.4V158.7C3891.8 158.6 3891.7 158.5 3891.6 158.5H3880.1C3880 158.5 3879.9 158.6 3879.9 158.6L3877 164.6Z" fill="#878787"/>
  <path d="M3792 173.1C3790.4 173.1 3789 171.8 3789 170.1V164.3C3789 160.5 3785.9 157.4 3782.1 157.4H3775.7C3771.9 157.4 3768.8 160.5 3768.8 164.3V170.1C3768.8 171.8 3767.5 173.1 3765.8 173.1C3764.1 173.1 3762.8 171.8 3762.8 170.1V164.3C3762.8 157.2 3768.6 151.4 3775.7 151.4H3782.1C3789.2 151.4 3795 157.2 3795 164.3V170.1C3794.9 171.7 3793.6 173.1 3792 173.1Z" fill="#878787"/>
  <path d="M3778.9 157.4C3773 157.4 3768.2 152.6 3768.2 146.7C3768.2 140.8 3773 136 3778.9 136C3784.8 136 3789.6 140.8 3789.6 146.7C3789.6 152.6 3784.8 157.4 3778.9 157.4ZM3778.9 141.9C3776.3 141.9 3774.1 144.1 3774.1 146.7C3774.1 149.3 3776.2 151.5 3778.9 151.5C3781.5 151.5 3783.7 149.3 3783.7 146.7C3783.7 144.1 3781.5 141.9 3778.9 141.9Z" fill="#878787"/>
  <path d="M3839.8 173.1C3838.2 173.1 3836.8 171.8 3836.8 170.1V164.3C3836.8 160.5 3833.7 157.4 3829.9 157.4H3823.5C3819.7 157.4 3816.6 160.5 3816.6 164.3V170.1C3816.6 171.8 3815.3 173.1 3813.6 173.1C3811.9 173.1 3810.6 171.8 3810.6 170.1V164.3C3810.6 157.2 3816.4 151.4 3823.5 151.4H3829.9C3837 151.4 3842.8 157.2 3842.8 164.3V170.1C3842.7 171.7 3841.4 173.1 3839.8 173.1Z" fill="#878787"/>
  <path d="M3826.6 157.4C3820.7 157.4 3815.9 152.6 3815.9 146.7C3815.9 140.8 3820.7 136 3826.6 136C3832.5 136 3837.3 140.8 3837.3 146.7C3837.3 152.6 3832.6 157.4 3826.6 157.4ZM3826.6 141.9C3824 141.9 3821.8 144.1 3821.8 146.7C3821.8 149.3 3823.9 151.5 3826.6 151.5C3829.3 151.5 3831.4 149.3 3831.4 146.7C3831.4 144.1 3829.3 141.9 3826.6 141.9Z" fill="#878787"/>
  <defs>
    <linearGradient gradientUnits="userSpaceOnUse" id="paint0_linear_920_2815" x1="1056.44" x2="17.4499" y1="177.941" y2="177.941">
      <stop stop-color="#55EDC3"/>
      <stop offset="1" stop-color="#1EE0AC"/>
    </linearGradient>
    <linearGradient gradientUnits="userSpaceOnUse" id="paint1_linear_920_2815" x1="536.945" x2="536.945" y1="24.2068" y2="68.8571">
      <stop stop-color="white"/>
      <stop offset="1" stop-color="white" stop-opacity="0"/>
    </linearGradient>
    <linearGradient gradientUnits="userSpaceOnUse" id="paint2_linear_920_2815" x1="2868.3" x2="1829.31" y1="177.941" y2="177.941">
      <stop stop-color="#4BC4F7"/>
      <stop offset="1" stop-color="#016A99"/>
    </linearGradient>
    <linearGradient gradientUnits="userSpaceOnUse" id="paint3_linear_920_2815" x1="2348.8" x2="2348.8" y1="24.2068" y2="68.8571">
      <stop stop-color="white"/>
      <stop offset="1" stop-color="white" stop-opacity="0"/>
    </linearGradient>
    <linearGradient gradientUnits="userSpaceOnUse" id="paint4_linear_920_2815" x1="4680.15" x2="3641.16" y1="177.941" y2="177.941">
      <stop stop-color="#55EDC3"/>
      <stop offset="1" stop-color="#1EE0AC"/>
    </linearGradient>
    <linearGradient gradientUnits="userSpaceOnUse" id="paint5_linear_920_2815" x1="4160.65" x2="4160.65" y1="24.2068" y2="68.8571">
      <stop stop-color="white"/>
      <stop offset="1" stop-color="white" stop-opacity="0"/>
    </linearGradient>
  </defs>
</svg>