<svg width="327" height="219" viewBox="0 0 327 219" fill="none" xmlns="http://www.w3.org/2000/svg">
<path d="M283.404 96.6754C282.297 97.3499 281.072 97.858 279.742 98.1646C276.302 98.9661 272.871 98.2785 270.111 96.5133C267.412 94.792 265.354 92.0413 264.574 88.6644C263 81.8272 267.233 75.0075 274.035 73.4263C280.832 71.8408 287.625 76.0981 289.203 82.9309C290.472 88.4322 287.969 93.9204 283.404 96.6754Z" fill="#EBEBEB"/>
<path d="M280.749 84.3895C280.723 86.5225 278.983 88.2307 276.856 88.2088C274.732 88.1825 273.032 86.4349 273.054 84.2975C273.08 82.1644 274.82 80.4562 276.947 80.4781C279.075 80.5088 280.775 82.2564 280.749 84.3895Z" fill="white"/>
<path d="M283.426 95.081L283.409 96.6754C282.301 97.3499 281.076 97.858 279.746 98.1646C276.306 98.9661 272.875 98.2784 270.115 96.5133L270.133 94.9234C270.176 91.2442 273.185 88.2833 276.856 88.3271C280.531 88.3709 283.47 91.4062 283.426 95.081Z" fill="white"/>
<path d="M50.0179 60.8032C49.2942 61.2456 48.4876 61.5785 47.6199 61.7799C45.3658 62.3055 43.1204 61.8544 41.311 60.6981C39.5452 59.5724 38.1936 57.7679 37.6835 55.556C36.6545 51.0796 39.4231 46.612 43.8834 45.5739C48.335 44.5359 52.7865 47.3216 53.8198 51.8023C54.6439 55.4027 53.0089 58.9986 50.0179 60.8032Z" fill="#EBEBEB"/>
<path d="M48.2783 52.7571C48.2608 54.1544 47.1185 55.2756 45.7277 55.2581C44.3368 55.2406 43.2207 54.093 43.2381 52.6958C43.2556 51.2986 44.3979 50.1773 45.7887 50.1948C47.1796 50.2124 48.2957 51.3599 48.2783 52.7571Z" fill="white"/>
<path d="M50.031 59.7608L50.0179 60.8032C49.2942 61.2456 48.4876 61.5785 47.6199 61.78C45.3658 62.3056 43.1204 61.8544 41.311 60.6981L41.3241 59.6557C41.3546 57.2467 43.3253 55.3063 45.7277 55.3326C48.1344 55.3633 50.0572 57.3518 50.031 59.7608Z" fill="white"/>
<path d="M113.822 23.7265H59.0431V61.2368H113.822V23.7265Z" stroke="#EBEBEB" stroke-miterlimit="10"/>
<path d="M63.1415 25.9515C63.1415 26.5604 62.6488 27.0553 62.0428 27.0553C61.4368 27.0553 60.9441 26.5604 60.9441 25.9515C60.9441 25.3427 61.4368 24.8478 62.0428 24.8478C62.6488 24.8478 63.1415 25.3383 63.1415 25.9515Z" fill="#A6A6A6"/>
<path d="M67.628 25.9515C67.628 26.5604 67.1353 27.0553 66.5292 27.0553C65.9232 27.0553 65.4305 26.5604 65.4305 25.9515C65.4305 25.3427 65.9232 24.8478 66.5292 24.8478C67.1353 24.8478 67.628 25.3383 67.628 25.9515Z" fill="#EBEBEB"/>
<path d="M72.1188 25.9515C72.1188 26.5604 71.6261 27.0553 71.02 27.0553C70.414 27.0553 69.9213 26.5604 69.9213 25.9515C69.9213 25.3427 70.414 24.8478 71.02 24.8478C71.6261 24.8478 72.1188 25.3383 72.1188 25.9515Z" fill="#FFC727"/>
<path d="M59.0431 28.1109H113.822" stroke="#EBEBEB" stroke-miterlimit="10"/>
<path d="M64.9612 79.1518L36.195 83.0922L38.6825 101.419L67.4487 97.4784L64.9612 79.1518Z" fill="#EBEBEB"/>
<path d="M64.9642 79.1555C63.9527 80.43 62.915 81.6608 61.8948 82.9223C60.8614 84.1574 59.8238 85.397 58.7817 86.6234C57.6917 87.9023 56.5974 89.1725 55.503 90.434C55.4681 90.4734 55.4376 90.5128 55.4071 90.5566C54.4348 91.6691 53.4625 92.786 52.4859 93.8985L52.342 94.0562L52.1632 93.9423C50.925 93.132 49.6955 92.3174 48.4616 91.5027C48.418 91.4764 48.3744 91.4501 48.3308 91.4195C46.9356 90.4997 45.5404 89.5711 44.1496 88.625C42.8241 87.7315 41.4943 86.8161 40.1689 85.905C38.8478 84.9677 37.5224 84.0611 36.2056 83.1018C37.5703 83.8902 38.9219 84.7268 40.2779 85.5415C41.6338 86.3737 42.9854 87.2059 44.3327 88.0556C45.8325 88.9929 47.3367 89.9478 48.8366 90.9158C48.8409 90.9158 48.8409 90.9158 48.8453 90.9201C49.9702 91.6385 51.0907 92.3612 52.2156 93.0882C53.1006 92.0896 53.9901 91.0822 54.8795 90.0923C54.8839 90.0792 54.8839 90.0792 54.8882 90.0792C56.0742 88.7477 57.2644 87.4249 58.4634 86.1109C59.536 84.9371 60.6129 83.7632 61.6986 82.6069C62.7798 81.4506 63.8611 80.2811 64.9642 79.1555Z" fill="white"/>
<path d="M48.9279 91.3187C48.9148 91.3274 48.9105 91.3449 48.8974 91.3537C48.7622 91.5026 48.6314 91.6559 48.4963 91.8005C47.8597 92.51 47.197 93.1977 46.5256 93.8678C45.7059 94.6956 44.86 95.4972 44.0098 96.2943C43.1509 97.0784 42.292 97.8624 41.4026 98.6201C40.5175 99.3779 39.6193 100.122 38.6776 100.823C39.4449 99.9341 40.2559 99.0932 41.0756 98.2697C41.8996 97.4419 42.7454 96.6404 43.5913 95.8432C44.4502 95.0548 45.3135 94.2708 46.2029 93.513C46.9092 92.9086 47.6286 92.3085 48.3698 91.7391C48.5399 91.6034 48.7143 91.4763 48.8887 91.3449C48.8974 91.3406 48.9148 91.3274 48.9279 91.3187Z" fill="white"/>
<path d="M67.3053 96.9031C66.2153 96.4827 65.1471 96.0052 64.092 95.5147C63.0369 95.0241 61.9948 94.5029 60.9572 93.9773C59.9238 93.4386 58.8949 92.8954 57.8834 92.3173C57.0593 91.853 56.2396 91.3712 55.4418 90.8587C55.2674 90.7492 55.1017 90.6397 54.9316 90.5302C54.9186 90.5215 54.9055 90.5127 54.8924 90.504C54.9055 90.5127 54.9229 90.5171 54.9404 90.5215C55.1453 90.6047 55.3458 90.6835 55.5464 90.7668C56.414 91.1172 57.2599 91.4982 58.1057 91.8924C59.1608 92.383 60.2029 92.9042 61.2362 93.4342C62.2695 93.9729 63.2985 94.516 64.31 95.0942C65.3215 95.6636 66.3287 96.2549 67.3053 96.9031Z" fill="white"/>
<path d="M255.507 102.881L248.79 131.395L293.546 142.036L300.263 113.522L255.507 102.881Z" fill="#EBEBEB"/>
<path d="M300.278 113.525C298.058 114.83 295.826 116.057 293.602 117.331C291.374 118.567 289.138 119.802 286.901 121.015C284.564 122.285 282.227 123.534 279.89 124.773C279.816 124.812 279.751 124.856 279.677 124.896C277.61 125.986 275.535 127.073 273.464 128.163L273.158 128.312L272.958 128.041C271.589 126.135 270.228 124.23 268.868 122.311C268.82 122.25 268.772 122.18 268.724 122.11C267.181 119.946 265.65 117.778 264.129 115.584C262.677 113.499 261.225 111.392 259.786 109.281C258.369 107.139 256.917 105.037 255.518 102.873C257.087 104.818 258.609 106.828 260.152 108.808C261.683 110.81 263.213 112.816 264.722 114.844C266.409 117.086 268.088 119.359 269.753 121.65C269.762 121.65 269.762 121.65 269.766 121.663C271.018 123.367 272.269 125.084 273.52 126.797C275.395 125.824 277.279 124.848 279.158 123.897C279.171 123.88 279.171 123.88 279.175 123.884C281.687 122.596 284.194 121.322 286.709 120.069C288.963 118.943 291.217 117.831 293.476 116.74C295.748 115.671 298.002 114.559 300.278 113.525Z" fill="white"/>
<path d="M269.67 122.325C269.649 122.333 269.627 122.351 269.605 122.36C269.322 122.504 269.038 122.653 268.759 122.793C267.412 123.477 266.047 124.116 264.669 124.725C262.986 125.478 261.282 126.179 259.573 126.871C257.859 127.541 256.141 128.203 254.402 128.816C252.662 129.429 250.909 130.016 249.126 130.515C250.765 129.644 252.44 128.864 254.118 128.115C255.806 127.362 257.515 126.661 259.215 125.969C260.937 125.294 262.655 124.633 264.395 124.02C265.781 123.529 267.185 123.056 268.602 122.64C268.929 122.539 269.256 122.447 269.592 122.355C269.618 122.342 269.644 122.333 269.67 122.325Z" fill="white"/>
<path d="M293.668 141.102C292.294 139.853 290.986 138.539 289.709 137.208C288.427 135.876 287.184 134.51 285.946 133.139C284.725 131.75 283.513 130.358 282.345 128.925C281.39 127.765 280.453 126.586 279.563 125.369C279.367 125.11 279.18 124.852 278.992 124.593C278.975 124.576 278.966 124.55 278.948 124.532C278.966 124.55 278.988 124.572 279.009 124.58C279.267 124.821 279.515 125.049 279.764 125.29C280.845 126.302 281.883 127.357 282.907 128.417C284.189 129.749 285.432 131.115 286.661 132.491C287.882 133.879 289.094 135.272 290.263 136.704C291.44 138.132 292.591 139.582 293.668 141.102Z" fill="white"/>
<path d="M205.971 17.0646H179.545V33.9014H205.971V17.0646Z" fill="#EBEBEB"/>
<path d="M205.966 17.0645C204.898 18.0894 203.813 19.0705 202.736 20.0823C201.654 21.0678 200.564 22.0577 199.474 23.0344C198.336 24.055 197.194 25.0624 196.052 26.0654C196.017 26.0961 195.986 26.1311 195.947 26.1618C194.936 27.0465 193.92 27.9313 192.904 28.816L192.751 28.9387L192.603 28.816C191.587 27.9313 190.576 27.0465 189.564 26.1574C189.529 26.1311 189.494 26.0961 189.455 26.0654C188.308 25.0624 187.166 24.0506 186.028 23.0257C184.943 22.0533 183.852 21.0678 182.771 20.0779C181.694 19.0705 180.609 18.085 179.54 17.0601C180.674 17.9405 181.79 18.8603 182.915 19.7626C184.036 20.678 185.152 21.5978 186.264 22.5307C187.502 23.56 188.74 24.6069 189.974 25.6668C189.978 25.6668 189.978 25.6668 189.983 25.6712C190.907 26.4596 191.831 27.248 192.756 28.0408C193.676 27.248 194.6 26.4508 195.524 25.6712C195.529 25.6624 195.529 25.6624 195.533 25.6624C196.767 24.6112 198.001 23.5644 199.243 22.5264C200.355 21.5978 201.471 20.678 202.587 19.767C203.717 18.8647 204.833 17.9449 205.966 17.0645Z" fill="white"/>
<path d="M190.018 26.0522C190.004 26.061 189.996 26.0741 189.987 26.0785C189.847 26.1968 189.708 26.3194 189.568 26.4333C188.906 26.9939 188.226 27.5327 187.537 28.0539C186.695 28.6978 185.836 29.3197 184.969 29.9329C184.101 30.533 183.225 31.133 182.335 31.7068C181.441 32.2806 180.543 32.8412 179.61 33.3581C180.412 32.6529 181.245 31.9959 182.087 31.352C182.933 30.7082 183.791 30.0862 184.655 29.473C185.527 28.8686 186.399 28.2685 187.293 27.6947C188.003 27.2348 188.727 26.7837 189.464 26.3632C189.634 26.2625 189.804 26.1661 189.978 26.0741C189.987 26.0698 190.004 26.061 190.018 26.0522Z" fill="white"/>
<path d="M205.905 33.3581C204.972 32.8456 204.07 32.2806 203.18 31.7068C202.287 31.133 201.415 30.533 200.543 29.9329C199.679 29.3197 198.816 28.7021 197.975 28.0539C197.29 27.5327 196.61 26.9983 195.951 26.4333C195.808 26.315 195.668 26.1924 195.533 26.0741C195.52 26.0654 195.511 26.0522 195.502 26.0479C195.515 26.0566 195.529 26.0654 195.542 26.0698C195.716 26.1705 195.886 26.2669 196.056 26.3632C196.793 26.7837 197.512 27.2348 198.227 27.6947C199.121 28.2685 199.993 28.8686 200.861 29.473C201.724 30.0862 202.587 30.7038 203.429 31.352C204.27 31.9959 205.103 32.6529 205.905 33.3581Z" fill="white"/>
<path d="M259.372 31.9871H66.8998V161.324H259.372V31.9871Z" fill="#C6D6F4"/>
<path d="M257.968 33.5639H68.295V159.747H257.968V33.5639Z" fill="#E7EEFD"/>
<path d="M284.438 171.026H41.8298V179.904H284.438V171.026Z" fill="#E7EEFD"/>
<path d="M41.8298 171.026L66.8998 161.324H259.368L284.438 171.026H41.8298Z" fill="#E7EEFD"/>
<path d="M69.1365 167.583L85.3121 161.324H240.951L257.131 167.583H69.1365Z" fill="#C8D9F4"/>
<path d="M247.251 43.1517H79.0163V150.164H247.251V43.1517Z" fill="white"/>
<path d="M247.251 43.1517H78.8724V47.2689H247.251V43.1517Z" fill="#424E9B"/>
<path d="M82.1337 45.2104C82.1337 45.7754 81.6802 46.2309 81.1178 46.2309C80.5554 46.2309 80.1019 45.7754 80.1019 45.2104C80.1019 44.6453 80.5554 44.1898 81.1178 44.1898C81.6759 44.1898 82.1337 44.6453 82.1337 45.2104Z" fill="#C7C7C7"/>
<path d="M86.2844 45.2104C86.2844 45.7754 85.831 46.2309 85.2685 46.2309C84.7061 46.2309 84.2526 45.7754 84.2526 45.2104C84.2526 44.6453 84.7061 44.1898 85.2685 44.1898C85.8266 44.1898 86.2844 44.6453 86.2844 45.2104Z" fill="white"/>
<path d="M90.4351 45.2104C90.4351 45.7754 89.9817 46.2309 89.4192 46.2309C88.8568 46.2309 88.4034 45.7754 88.4034 45.2104C88.4034 44.6453 88.8568 44.1898 89.4192 44.1898C89.9773 44.1898 90.4351 44.6453 90.4351 45.2104Z" fill="#FFC727"/>
<path d="M247.251 47.2689H244.265V150.159H247.251V47.2689Z" fill="#DBDBDB"/>
<path d="M245.756 82.9396C245.328 82.9396 244.984 82.5936 244.984 82.1644V48.6442C244.984 48.215 245.328 47.869 245.756 47.869C246.183 47.869 246.527 48.215 246.527 48.6442V82.1644C246.527 82.5936 246.183 82.9396 245.756 82.9396Z" fill="#A6A6A6"/>
<path d="M218.183 53.7426H127.499V57.2071H218.183V53.7426Z" fill="white"/>
<path d="M218.218 57.2422H127.465V53.7075H218.218V57.2422Z" fill="#EBEBEB"/>
<path d="M218.218 53.7075H214.695V57.2466H218.218V53.7075Z" fill="#FFC727"/>
<path d="M217.551 56.445L217.233 56.6859L216.644 55.9019L216.426 55.6172C216.47 55.5997 216.509 55.5778 216.548 55.5471C216.622 55.4902 216.679 55.4157 216.714 55.3325L216.945 55.6347L217.551 56.445Z" fill="white"/>
<path d="M216.923 54.601C216.631 54.22 216.086 54.1455 215.702 54.439C215.323 54.7324 215.249 55.2799 215.541 55.6654C215.803 56.0114 216.269 56.1034 216.64 55.9063C216.683 55.8844 216.723 55.8581 216.762 55.8274C216.832 55.7705 216.893 55.7092 216.941 55.6391C217.159 55.3369 217.163 54.912 216.923 54.601ZM216.548 55.5471C216.509 55.5778 216.47 55.5997 216.426 55.6172C216.217 55.7004 215.964 55.6391 215.82 55.4508C215.646 55.223 215.689 54.8945 215.916 54.7193C216.143 54.5441 216.47 54.5879 216.644 54.8157C216.762 54.969 216.779 55.1661 216.709 55.3369C216.679 55.4157 216.622 55.4902 216.548 55.5471Z" fill="white"/>
<path d="M128.402 54.4214H128.219V56.5238H128.402V54.4214Z" fill="#C7C7C7"/>
<path d="M238.204 57.3429C238.034 57.448 237.847 57.5313 237.637 57.5795C237.106 57.7109 236.574 57.6101 236.142 57.3429C235.719 57.0801 235.396 56.6596 235.27 56.1384C235.013 55.0828 235.658 54.0185 236.709 53.7601C237.76 53.5017 238.819 54.1499 239.076 55.2055C239.286 56.0508 238.911 56.9049 238.204 57.3429Z" fill="#FFC727"/>
<path d="M237.773 55.442C237.773 55.7749 237.507 56.042 237.175 56.042C236.844 56.042 236.578 55.7749 236.578 55.442C236.578 55.1091 236.844 54.8419 237.175 54.8419C237.507 54.8419 237.773 55.1091 237.773 55.442Z" fill="white"/>
<path d="M238.204 57.0933V57.3385C238.034 57.4437 237.847 57.5269 237.637 57.575C237.106 57.7064 236.574 57.6057 236.142 57.3385V57.0933C236.142 56.5239 236.604 56.0596 237.171 56.0596C237.746 56.0596 238.204 56.5239 238.204 57.0933Z" fill="white"/>
<path d="M231.42 57.6364H230.06V57.1502C230.06 57.1239 230.042 57.0976 230.016 57.0845C229.964 57.0582 229.916 57.0276 229.868 56.9969C229.842 56.9838 229.816 56.9794 229.789 56.9925L229.371 57.2334L228.691 56.0508L229.109 55.8099C229.131 55.7968 229.144 55.7705 229.144 55.7398C229.144 55.7136 229.144 55.6829 229.144 55.6566C229.144 55.6303 229.144 55.5997 229.144 55.5734C229.144 55.5427 229.131 55.5165 229.109 55.5033L228.691 55.2624L229.371 54.0754L229.789 54.3163C229.816 54.3295 229.842 54.3295 229.868 54.312C229.916 54.2813 229.964 54.2506 230.016 54.2244C230.042 54.2112 230.055 54.1849 230.055 54.1587V53.6725H231.416V54.1587C231.416 54.1849 231.433 54.2112 231.459 54.2244C231.512 54.2506 231.56 54.2813 231.608 54.312C231.634 54.3295 231.664 54.3295 231.686 54.3163L232.105 54.0754L232.785 55.2624L232.366 55.5033C232.344 55.5165 232.331 55.5427 232.331 55.5734C232.331 55.5997 232.331 55.6303 232.331 55.6566C232.331 55.6829 232.331 55.7136 232.331 55.7398C232.331 55.7705 232.344 55.7968 232.366 55.8099L232.785 56.0552L232.105 57.2378L231.686 56.9969C231.664 56.9838 231.634 56.9838 231.608 57.0013C231.56 57.0319 231.512 57.0626 231.459 57.0889C231.433 57.102 231.416 57.1283 231.416 57.1546V57.6364H231.42ZM230.395 57.2947H231.08V57.1502C231.08 56.9969 231.167 56.8524 231.307 56.7823C231.346 56.7604 231.385 56.7385 231.424 56.7166C231.555 56.629 231.721 56.6246 231.856 56.7034L231.983 56.7779L232.323 56.1822L232.196 56.1078C232.061 56.0289 231.987 55.8844 231.996 55.7267V55.661V55.5953C231.987 55.4376 232.065 55.2887 232.201 55.2142L232.327 55.1398L231.987 54.5441L231.865 54.6142C231.73 54.693 231.564 54.6886 231.433 54.601C231.394 54.5748 231.355 54.5529 231.315 54.5353C231.176 54.4609 231.089 54.3207 231.089 54.1674V54.0229H230.404V54.1674C230.404 54.3251 230.317 54.4653 230.177 54.5353C230.138 54.5572 230.099 54.5791 230.06 54.601C229.929 54.6886 229.763 54.693 229.628 54.6142L229.506 54.5441L229.166 55.1398L229.292 55.2099C229.428 55.2887 229.506 55.4332 229.497 55.5909V55.6566V55.7223C229.506 55.88 229.428 56.0289 229.292 56.1034L229.166 56.1778L229.506 56.7735L229.632 56.6991C229.763 56.6202 229.933 56.6246 230.064 56.7122C230.103 56.7385 230.138 56.7604 230.182 56.7779C230.321 56.848 230.409 56.9925 230.409 57.1458V57.2947H230.395ZM230.74 56.6684C230.186 56.6684 229.733 56.2129 229.733 55.6566C229.733 55.1004 230.186 54.6448 230.74 54.6448C231.294 54.6448 231.747 55.1004 231.747 55.6566C231.747 56.2129 231.294 56.6684 230.74 56.6684ZM230.74 54.9865C230.369 54.9865 230.073 55.2887 230.073 55.6566C230.073 56.0245 230.374 56.3268 230.74 56.3268C231.106 56.3268 231.407 56.0245 231.407 55.6566C231.407 55.2843 231.106 54.9865 230.74 54.9865Z" fill="#DBDBDB"/>
<path d="M244.265 71.4947H118.653V78.6472H244.265V71.4947Z" fill="#E7EEFD"/>
<path d="M126.362 73.9957H124.225V76.1462H126.362V73.9957Z" fill="white"/>
<path d="M135.448 76.1419H133.311L134.183 75.0688L133.311 73.9957H135.448L136.32 75.0688L135.448 76.1419Z" fill="white"/>
<path d="M129.954 73.9957L130.299 74.7008L131.079 74.8147L130.517 75.3666L130.647 76.1419L129.954 75.7739L129.257 76.1419L129.392 75.3666L128.829 74.8147L129.605 74.7008L129.954 73.9957Z" fill="#FFC727"/>
<path d="M154.889 74.6307H137.854V75.5067H154.889V74.6307Z" fill="#016A95"/>
<path d="M234.921 74.6307H219.456V75.5067H234.921V74.6307Z" fill="#016A95"/>
<path d="M212.96 74.6307H160.09V75.5067H212.96V74.6307Z" fill="#016A95"/>
<path d="M126.362 81.1482H124.225V83.2944H126.362V81.1482Z" fill="white" stroke="#EBEBEB" stroke-width="0.5" stroke-miterlimit="10"/>
<path d="M135.448 83.2944H133.311L134.183 82.2213L133.311 81.1482H135.448L136.32 82.2213L135.448 83.2944Z" fill="white" stroke="#EBEBEB" stroke-width="0.5" stroke-miterlimit="10"/>
<path d="M129.954 81.1482L130.299 81.8534L131.079 81.9673L130.517 82.5191L130.647 83.2944L129.954 82.9265L129.257 83.2944L129.392 82.5191L128.829 81.9673L129.605 81.8534L129.954 81.1482Z" fill="#FFC727"/>
<path d="M154.889 81.7833H137.854V82.6593H154.889V81.7833Z" fill="#016A95"/>
<path d="M234.921 81.7833H219.456V82.6593H234.921V81.7833Z" fill="#016A95"/>
<path d="M212.96 81.7833H160.09V82.6593H212.96V81.7833Z" fill="#016A95"/>
<path d="M244.265 85.7954H118.653V92.948H244.265V85.7954Z" fill="#E7EEFD"/>
<path d="M126.362 88.2964H124.225V90.447H126.362V88.2964Z" fill="white"/>
<path d="M135.448 90.447H133.311L134.183 89.3739L133.311 88.2964H135.448L136.32 89.3739L135.448 90.447Z" fill="white"/>
<path d="M129.954 88.2964L130.299 89.006L131.079 89.1198L130.517 89.6673L130.647 90.447L129.954 90.079L129.257 90.447L129.392 89.6673L128.829 89.1198L129.605 89.006L129.954 88.2964Z" fill="white"/>
<path d="M154.889 88.9359H137.854V89.8119H154.889V88.9359Z" fill="#DBDBDB"/>
<path d="M234.921 88.9359H219.456V89.8119H234.921V88.9359Z" fill="#DBDBDB"/>
<path d="M212.96 88.9359H160.09V89.8119H212.96V88.9359Z" fill="#C7C7C7"/>
<path d="M126.362 95.4489H124.225V97.5995H126.362V95.4489Z" fill="white" stroke="#EBEBEB" stroke-width="0.5" stroke-miterlimit="10"/>
<path d="M135.448 97.5995H133.311L134.183 96.5264L133.311 95.4489H135.448L136.32 96.5264L135.448 97.5995Z" fill="white" stroke="#EBEBEB" stroke-width="0.5" stroke-miterlimit="10"/>
<path d="M129.954 95.4489L130.299 96.1585L131.079 96.2724L130.517 96.8199L130.647 97.5995L129.954 97.2316L129.257 97.5995L129.392 96.8199L128.829 96.2724L129.605 96.1585L129.954 95.4489Z" fill="#FFC727"/>
<path d="M154.889 96.0884H137.854V96.9644H154.889V96.0884Z" fill="#DBDBDB"/>
<path d="M234.921 96.0884H219.456V96.9644H234.921V96.0884Z" fill="#DBDBDB"/>
<path d="M212.96 96.0884H160.09V96.9644H212.96V96.0884Z" fill="#C7C7C7"/>
<path d="M244.265 100.1H118.653V107.253H244.265V100.1Z" fill="#E7EEFD"/>
<path d="M126.362 102.601H124.225V104.752H126.362V102.601Z" fill="white"/>
<path d="M135.448 104.752H133.311L134.183 103.675L133.311 102.601H135.448L136.32 103.675L135.448 104.752Z" fill="white"/>
<path d="M129.954 102.601L130.299 103.311L131.079 103.425L130.517 103.972L130.647 104.752L129.954 104.384L129.257 104.752L129.392 103.972L128.829 103.425L129.605 103.311L129.954 102.601Z" fill="#FFC727"/>
<path d="M154.889 103.241H137.854V104.117H154.889V103.241Z" fill="#DBDBDB"/>
<path d="M234.921 103.241H219.456V104.117H234.921V103.241Z" fill="#DBDBDB"/>
<path d="M212.96 103.241H160.09V104.117H212.96V103.241Z" fill="#C7C7C7"/>
<path d="M126.362 109.754H124.225V111.905H126.362V109.754Z" fill="white" stroke="#EBEBEB" stroke-width="0.5" stroke-miterlimit="10"/>
<path d="M135.448 111.905H133.311L134.183 110.827L133.311 109.754H135.448L136.32 110.827L135.448 111.905Z" fill="white" stroke="#EBEBEB" stroke-width="0.5" stroke-miterlimit="10"/>
<path d="M129.954 109.754L130.299 110.459L131.079 110.573L130.517 111.125L130.647 111.905L129.954 111.537L129.257 111.905L129.392 111.125L128.829 110.573L129.605 110.459L129.954 109.754Z" fill="white" stroke="#EBEBEB" stroke-width="0.5" stroke-miterlimit="10"/>
<path d="M154.889 110.393H137.854V111.269H154.889V110.393Z" fill="#DBDBDB"/>
<path d="M234.921 110.393H219.456V111.269H234.921V110.393Z" fill="#DBDBDB"/>
<path d="M212.96 110.393H160.09V111.269H212.96V110.393Z" fill="#C7C7C7"/>
<path d="M244.265 114.406H118.653V121.558H244.265V114.406Z" fill="#E7EEFD"/>
<path d="M126.362 116.907H124.225V119.057H126.362V116.907Z" fill="white"/>
<path d="M135.448 119.053H133.311L134.183 117.98L133.311 116.907H135.448L136.32 117.98L135.448 119.053Z" fill="white"/>
<path d="M129.954 116.907L130.299 117.612L131.079 117.726L130.517 118.277L130.647 119.053L129.954 118.689L129.257 119.053L129.392 118.277L128.829 117.726L129.605 117.612L129.954 116.907Z" fill="#FFC727"/>
<path d="M154.889 117.542H137.854V118.418H154.889V117.542Z" fill="#DBDBDB"/>
<path d="M234.921 117.542H219.456V118.418H234.921V117.542Z" fill="#DBDBDB"/>
<path d="M212.96 117.542H160.09V118.418H212.96V117.542Z" fill="#C7C7C7"/>
<path d="M126.362 124.059H124.225V126.205H126.362V124.059Z" fill="white" stroke="#EBEBEB" stroke-width="0.5" stroke-miterlimit="10"/>
<path d="M135.448 126.205H133.311L134.183 125.132L133.311 124.059H135.448L136.32 125.132L135.448 126.205Z" fill="white" stroke="#EBEBEB" stroke-width="0.5" stroke-miterlimit="10"/>
<path d="M129.954 124.059L130.299 124.764L131.079 124.878L130.517 125.43L130.647 126.205L129.954 125.837L129.257 126.205L129.392 125.43L128.829 124.878L129.605 124.764L129.954 124.059Z" fill="white" stroke="#EBEBEB" stroke-width="0.5" stroke-miterlimit="10"/>
<path d="M154.889 124.694H137.854V125.57H154.889V124.694Z" fill="#DBDBDB"/>
<path d="M234.921 124.694H219.456V125.57H234.921V124.694Z" fill="#DBDBDB"/>
<path d="M212.96 124.694H160.09V125.57H212.96V124.694Z" fill="#C7C7C7"/>
<path d="M244.265 128.706H118.653V135.859H244.265V128.706Z" fill="#E7EEFD"/>
<path d="M126.362 131.212H124.225V133.362H126.362V131.212Z" fill="white"/>
<path d="M135.448 133.358H133.311L134.183 132.285L133.311 131.212H135.448L136.32 132.285L135.448 133.358Z" fill="white"/>
<path d="M129.954 131.212L130.299 131.917L131.079 132.031L130.517 132.583L130.647 133.358L129.954 132.99L129.257 133.358L129.392 132.583L128.829 132.031L129.605 131.917L129.954 131.212Z" fill="white"/>
<path d="M154.889 131.847H137.854V132.723H154.889V131.847Z" fill="#DBDBDB"/>
<path d="M234.921 131.847H219.456V132.723H234.921V131.847Z" fill="#DBDBDB"/>
<path d="M212.96 131.847H160.09V132.723H212.96V131.847Z" fill="#C7C7C7"/>
<path d="M126.362 138.36H124.225V140.51H126.362V138.36Z" fill="white" stroke="#EBEBEB" stroke-width="0.5" stroke-miterlimit="10"/>
<path d="M135.448 140.51H133.311L134.183 139.437L133.311 138.36H135.448L136.32 139.437L135.448 140.51Z" fill="white" stroke="#EBEBEB" stroke-width="0.5" stroke-miterlimit="10"/>
<path d="M129.954 138.36L130.299 139.069L131.079 139.183L130.517 139.735L130.647 140.51L129.954 140.142L129.257 140.51L129.392 139.735L128.829 139.183L129.605 139.069L129.954 138.36Z" fill="white" stroke="#EBEBEB" stroke-width="0.5" stroke-miterlimit="10"/>
<path d="M154.889 138.999H137.854V139.875H154.889V138.999Z" fill="#DBDBDB"/>
<path d="M234.921 138.999H219.456V139.875H234.921V138.999Z" fill="#DBDBDB"/>
<path d="M212.96 138.999H160.09V139.875H212.96V138.999Z" fill="#C7C7C7"/>
<path d="M244.265 143.011H118.653V150.164H244.265V143.011Z" fill="#E7EEFD"/>
<path d="M126.362 145.512H124.225V147.663H126.362V145.512Z" fill="white"/>
<path d="M135.448 147.663H133.311L134.183 146.59L133.311 145.512H135.448L136.32 146.59L135.448 147.663Z" fill="white"/>
<path d="M129.954 145.512L130.299 146.222L131.079 146.336L130.517 146.883L130.647 147.663L129.954 147.295L129.257 147.663L129.392 146.883L128.829 146.336L129.605 146.222L129.954 145.512Z" fill="#FFC727"/>
<path d="M154.889 146.152H137.854V147.028H154.889V146.152Z" fill="#DBDBDB"/>
<path d="M234.921 146.152H219.456V147.028H234.921V146.152Z" fill="#DBDBDB"/>
<path d="M212.96 146.152H160.09V147.028H212.96V146.152Z" fill="#C7C7C7"/>
<path d="M154.893 65.043H131.114V67.6009H154.893V65.043Z" fill="#DBDBDB"/>
<path d="M127.465 65.043H124.225V67.6009H127.465V65.043Z" fill="#DBDBDB"/>
<path d="M127.469 65.043C127.338 65.1831 127.203 65.3189 127.072 65.4591C126.941 65.5948 126.806 65.7306 126.671 65.8664C126.532 66.0066 126.392 66.1467 126.253 66.2869C126.248 66.2913 126.244 66.2956 126.239 66.3C126.117 66.4227 125.991 66.5453 125.864 66.668L125.847 66.6855L125.83 66.668C125.703 66.5453 125.581 66.4227 125.455 66.3C125.45 66.2956 125.446 66.2913 125.442 66.2869C125.302 66.1467 125.163 66.0066 125.023 65.8664C124.888 65.7306 124.757 65.5948 124.622 65.4591C124.491 65.3189 124.356 65.1831 124.225 65.043C124.365 65.1656 124.5 65.2926 124.639 65.4153C124.779 65.5423 124.914 65.6693 125.049 65.7963C125.202 65.9409 125.354 66.0854 125.503 66.23C125.616 66.3395 125.729 66.449 125.843 66.5585C125.956 66.449 126.069 66.3395 126.183 66.23C126.335 66.0854 126.484 65.9409 126.636 65.7963C126.771 65.6693 126.911 65.5423 127.046 65.4153C127.194 65.2883 127.329 65.1612 127.469 65.043Z" fill="white"/>
<path d="M125.511 66.2256L125.507 66.23C125.49 66.2519 125.472 66.2738 125.455 66.2957C125.372 66.4008 125.289 66.5015 125.206 66.6023C125.101 66.7249 124.997 66.8388 124.892 66.957C124.788 67.0709 124.679 67.1848 124.57 67.2899C124.461 67.3994 124.352 67.5045 124.234 67.6009C124.334 67.4695 124.434 67.3425 124.539 67.2242C124.644 67.1016 124.748 66.9877 124.853 66.8694C124.962 66.7556 125.067 66.6417 125.176 66.5366C125.263 66.449 125.35 66.3657 125.442 66.2869C125.463 66.2694 125.485 66.2519 125.507 66.2343C125.507 66.23 125.511 66.2256 125.511 66.2256Z" fill="white"/>
<path d="M127.46 67.6009C127.347 67.5045 127.234 67.3994 127.125 67.2899C127.016 67.1804 126.907 67.0709 126.802 66.957C126.697 66.8432 126.588 66.7249 126.488 66.6023C126.405 66.5059 126.322 66.4052 126.239 66.2957C126.222 66.2738 126.205 66.2519 126.187 66.23C126.209 66.2475 126.231 66.265 126.253 66.2869C126.344 66.3657 126.431 66.4533 126.518 66.5366C126.627 66.6461 126.736 66.7556 126.841 66.8694C126.946 66.9833 127.055 67.1016 127.155 67.2242C127.26 67.3425 127.36 67.4695 127.46 67.6009Z" fill="white"/>
<path d="M194.909 65.043H171.13V67.6009H194.909V65.043Z" fill="#DBDBDB"/>
<path d="M165.706 65.9102C165.706 66.208 165.466 66.4533 165.166 66.4533C164.869 66.4533 164.625 66.2124 164.625 65.9102C164.625 65.6123 164.865 65.3671 165.166 65.3671C165.466 65.3671 165.706 65.608 165.706 65.9102Z" fill="#DBDBDB"/>
<path d="M166.099 67.4037V67.6008H164.232V67.4037C164.232 66.8869 164.651 66.4708 165.166 66.4708C165.68 66.4664 166.099 66.8869 166.099 67.4037Z" fill="#DBDBDB"/>
<path d="M167.088 65.5817C167.088 65.8795 166.848 66.1248 166.548 66.1248C166.251 66.1248 166.007 65.8839 166.007 65.5817C166.007 65.2838 166.247 65.0386 166.548 65.0386C166.848 65.043 167.088 65.2838 167.088 65.5817Z" fill="#DBDBDB"/>
<path d="M167.481 67.0753V67.2724H165.615V67.0753C165.615 66.5584 166.033 66.1423 166.548 66.1423C167.062 66.1423 167.481 66.5628 167.481 67.0753Z" fill="#DBDBDB"/>
<path d="M234.926 65.043H211.146V67.6009H234.926V65.043Z" fill="#DBDBDB"/>
<path d="M207.497 65.043H204.257V67.6009H207.497L208.465 66.3219L207.497 65.043ZM207.523 66.5146C207.418 66.5146 207.331 66.427 207.331 66.3219C207.331 66.2124 207.418 66.1292 207.523 66.1292C207.632 66.1292 207.715 66.2124 207.715 66.3219C207.715 66.427 207.632 66.5146 207.523 66.5146Z" fill="#DBDBDB"/>
<path d="M118.653 47.2689H78.8724V150.159H118.653V47.2689Z" fill="#03E5D4"/>
<path d="M113.094 62.5026H84.4358V70.1369H113.094V62.5026Z" fill="white"/>
<path d="M88.4295 53.7075H84.4358V54.3514H88.4295V53.7075Z" fill="white"/>
<path d="M88.4295 56.5983H84.4358V57.2422H88.4295V56.5983Z" fill="white"/>
<path d="M88.4295 55.1704H84.4358V55.8143H88.4295V55.1704Z" fill="white"/>
<path d="M97.7774 53.7075H92.2227V57.2466H97.7774V53.7075Z" fill="#EBEBEB"/>
<path d="M97.7774 53.7075V57.2466H92.2227V53.7075C92.4625 53.8433 92.6936 53.9878 92.9334 54.1236C93.1688 54.2638 93.4043 54.4083 93.6354 54.5529C93.897 54.7105 94.1542 54.8726 94.4158 55.039C94.612 55.1617 94.8038 55.2843 95 55.407C95.1919 55.2843 95.3881 55.1617 95.5843 55.039C95.8415 54.877 96.1031 54.7149 96.3647 54.5529C96.6002 54.4083 96.8312 54.2682 97.0667 54.128C97.3021 53.9835 97.5376 53.8433 97.7774 53.7075Z" fill="#EBEBEB"/>
<path d="M97.7774 53.7075C97.555 53.8652 97.3239 54.0185 97.0972 54.1718C96.8705 54.3251 96.6394 54.4784 96.4127 54.6273C96.1729 54.785 95.9331 54.9427 95.6933 55.096C95.6846 55.1004 95.6802 55.1047 95.6715 55.1091C95.4578 55.2449 95.2442 55.3807 95.0306 55.5208L95 55.5384L94.9695 55.5208C94.7559 55.3851 94.5422 55.2493 94.3286 55.1091C94.3199 55.1047 94.3155 55.1004 94.3068 55.096C94.067 54.9427 93.8272 54.785 93.5874 54.6273C93.3607 54.4784 93.1296 54.3251 92.9029 54.1718C92.6762 54.0141 92.4494 53.8652 92.2227 53.7075C92.4625 53.8433 92.6936 53.9878 92.9334 54.1236C93.1688 54.2638 93.4043 54.4083 93.6354 54.5529C93.897 54.7105 94.1542 54.8726 94.4158 55.039C94.612 55.1617 94.8038 55.2843 95 55.407C95.1919 55.2843 95.3881 55.1617 95.5843 55.039C95.8415 54.877 96.1031 54.7149 96.3647 54.5529C96.6002 54.4083 96.8312 54.2682 97.0667 54.128C97.3021 53.9835 97.5376 53.8433 97.7774 53.7075Z" fill="white"/>
<path d="M94.4245 55.0303C94.4202 55.0303 94.4202 55.0347 94.4158 55.0347C94.3853 55.0609 94.3591 55.0828 94.3286 55.1091C94.1891 55.2274 94.0452 55.3413 93.9013 55.4508C93.7226 55.5865 93.5438 55.7179 93.3607 55.845C93.1776 55.972 92.9944 56.099 92.807 56.2173C92.6195 56.3399 92.432 56.4582 92.2358 56.5633C92.4058 56.4144 92.5802 56.2786 92.7546 56.1428C92.9334 56.007 93.1122 55.8756 93.2953 55.7486C93.4784 55.6216 93.6615 55.4946 93.849 55.3763C93.9972 55.2799 94.1498 55.1836 94.3068 55.096C94.3417 55.0741 94.3766 55.0566 94.4158 55.0347C94.4202 55.0303 94.4202 55.0303 94.4245 55.0303Z" fill="white"/>
<path d="M97.7643 56.5633C97.5681 56.4538 97.3762 56.3355 97.1931 56.2173C97.0056 56.0946 96.8225 55.972 96.6394 55.845C96.4563 55.7179 96.2775 55.5865 96.0988 55.4508C95.9549 55.3413 95.811 55.2274 95.6715 55.1091C95.641 55.0828 95.6104 55.0609 95.5843 55.0347C95.6192 55.0566 95.6584 55.0741 95.6933 55.096C95.8502 55.1836 95.9985 55.2799 96.1511 55.3763C96.3386 55.4989 96.5217 55.6216 96.7048 55.7486C96.8879 55.8756 97.0667 56.007 97.2454 56.1428C97.4198 56.2786 97.5942 56.4144 97.7643 56.5633Z" fill="white"/>
<path d="M107.505 77.9596H84.4358V81.1482H107.505V77.9596Z" fill="white"/>
<path d="M107.505 84.2011H84.4358V87.3898H107.505V84.2011Z" fill="white"/>
<path d="M107.505 90.447H84.4358V93.6356H107.505V90.447Z" fill="white"/>
<path d="M107.505 96.6885H84.4358V99.8771H107.505V96.6885Z" fill="white"/>
<path d="M112.401 102.934H89.332V106.123H112.401V102.934Z" fill="#455A64"/>
<path d="M112.401 109.176H89.332V112.364H112.401V109.176Z" fill="#455A64"/>
<path d="M107.505 115.422H84.4358V118.61H107.505V115.422Z" fill="white"/>
<path d="M107.505 121.663H84.4358V124.852H107.505V121.663Z" fill="white"/>
<path d="M78.7634 116.701C78.7634 116.99 78.7765 117.279 78.7983 117.577" stroke="#263238" stroke-width="0.75" stroke-miterlimit="10"/>
<path d="M79.1732 119.736C82.0465 130.756 99.5606 144.089 119.054 135.609C140.065 126.468 139.285 91.6953 166.417 77.0092" stroke="#263238" stroke-width="0.75" stroke-miterlimit="10" stroke-dasharray="4.01 4.01"/>
<path d="M167.385 76.4967C167.642 76.3653 167.904 76.2339 168.165 76.1069" stroke="#263238" stroke-width="0.75" stroke-miterlimit="10"/>
<path d="M166.469 71.3502L163.735 78.8925L169.478 74.3899L191.426 66.392L166.469 71.3502Z" fill="#FFC727"/>
<path d="M166.469 71.3502L163.735 78.8925L169.478 74.3899L191.426 66.392L166.469 71.3502Z" fill="#EF4D73"/>
<path d="M170.214 76.1463L163.735 78.8925L169.478 74.3899L170.214 76.1463Z" fill="#EF4D73"/>
<path d="M169.478 74.3899L191.426 66.392L173.423 84.0434L169.478 74.3899Z" fill="#FE5F80"/>
<path d="M166.469 71.3502L157.348 65.4328L191.426 66.392L166.469 71.3502Z" fill="#FE5F80"/>
<path d="M265.629 52.1551C268.452 40.7009 261.498 29.1159 250.096 26.2792C238.695 23.4425 227.162 30.4283 224.339 41.8825C221.515 53.3367 228.469 64.9217 239.871 67.7584C251.273 70.5951 262.805 63.6093 265.629 52.1551Z" fill="#016A95"/>
<path d="M259.503 37.7777H230.47V56.2744H259.503V37.7777Z" fill="white"/>
<path d="M259.503 37.7775C258.33 38.9032 257.135 39.985 255.954 41.0932C254.764 42.1794 253.569 43.2613 252.37 44.3344C251.119 45.4557 249.863 46.5638 248.607 47.6676C248.568 47.7026 248.533 47.7376 248.494 47.7727C247.382 48.745 246.266 49.7174 245.15 50.6854L244.984 50.8212L244.823 50.6854C243.707 49.713 242.595 48.7407 241.483 47.7639C241.444 47.7333 241.404 47.6982 241.365 47.6632C240.105 46.5594 238.85 45.4513 237.598 44.3256C236.404 43.2569 235.209 42.175 234.019 41.0888C232.837 39.9807 231.642 38.9032 230.47 37.7731C231.717 38.7367 232.942 39.7529 234.176 40.7428C235.405 41.7502 236.635 42.7576 237.855 43.7825C239.216 44.9169 240.576 46.0645 241.932 47.2296C241.936 47.2296 241.936 47.2296 241.941 47.2339C242.957 48.0968 243.973 48.9684 244.988 49.84C246 48.9684 247.016 48.0924 248.032 47.2339C248.036 47.2208 248.036 47.2208 248.04 47.2208C249.396 46.0645 250.752 44.9125 252.117 43.7737C253.338 42.7532 254.563 41.7414 255.792 40.7384C257.031 39.7573 258.256 38.7411 259.503 37.7775Z" fill="#DBDBDB"/>
<path d="M241.976 47.65C241.963 47.6588 241.954 47.6719 241.941 47.6807C241.788 47.8121 241.636 47.9435 241.483 48.0705C240.755 48.6881 240.009 49.2794 239.251 49.8532C238.326 50.5627 237.38 51.2416 236.43 51.9161C235.475 52.5775 234.516 53.2345 233.535 53.8652C232.554 54.496 231.564 55.1135 230.539 55.6786C231.42 54.9033 232.336 54.1806 233.26 53.4754C234.189 52.7659 235.135 52.087 236.081 51.4124C237.04 50.7467 237.999 50.0897 238.98 49.459C239.761 48.9553 240.554 48.4603 241.365 47.996C241.553 47.8865 241.74 47.7814 241.932 47.6763C241.945 47.6675 241.963 47.6588 241.976 47.65Z" fill="#DBDBDB"/>
<path d="M259.433 55.683C258.408 55.1179 257.414 54.5004 256.438 53.8696C255.457 53.2389 254.498 52.5819 253.538 51.9205C252.588 51.246 251.642 50.5671 250.717 49.8576C249.963 49.2838 249.218 48.6969 248.494 48.0793C248.337 47.9479 248.184 47.8165 248.032 47.6851C248.019 47.6763 248.01 47.6632 247.997 47.6544C248.01 47.6632 248.027 47.6719 248.04 47.6763C248.232 47.7858 248.42 47.8909 248.607 48.0004C249.418 48.4647 250.207 48.9597 250.992 49.4634C251.973 50.0941 252.932 50.7511 253.887 51.4168C254.838 52.0914 255.784 52.7703 256.708 53.4798C257.637 54.185 258.552 54.9077 259.433 55.683Z" fill="#DBDBDB"/>
<path d="M257.845 42.2147C260.292 41.3717 261.594 38.6961 260.755 36.2386C259.916 33.7812 257.253 32.4724 254.806 33.3155C252.36 34.1585 251.057 36.8341 251.897 39.2916C252.736 41.7491 255.399 43.0578 257.845 42.2147Z" fill="#FFC727"/>
<path d="M255.81 38.8113V34.9831C255.81 34.6984 256.045 34.4619 256.329 34.4619C256.612 34.4619 256.839 34.6984 256.839 34.9831V38.8113C256.839 39.1047 256.612 39.3325 256.329 39.3325C256.045 39.3281 255.81 39.1047 255.81 38.8113ZM256.329 41.0932C256.045 41.0932 255.81 40.8655 255.81 40.572V40.3837C255.81 40.099 256.045 39.8625 256.329 39.8625C256.612 39.8625 256.839 40.099 256.839 40.3837V40.572C256.839 40.8655 256.612 41.0932 256.329 41.0932Z" fill="white"/>
<path d="M278.185 115.562C278.308 113.744 278.53 111.927 278.948 110.157C279.328 108.558 279.864 106.92 280.871 105.597C281.791 104.389 283.108 103.425 284.638 103.237C286.116 103.057 287.503 103.714 288.606 104.651C289.975 105.808 291.021 107.341 292.007 108.825C293.105 110.486 294.043 112.216 294.941 113.99C294.971 114.046 294.88 114.099 294.854 114.038C294.113 112.54 293.197 111.081 292.229 109.719C291.313 108.431 290.337 107.148 289.203 106.04C288.192 105.046 286.901 104.117 285.436 104.069C283.976 104.021 282.628 104.844 281.748 105.978C280.762 107.244 280.265 108.821 279.89 110.363C279.48 112.054 279.275 113.779 279.132 115.509C278.844 119.07 278.765 122.653 278.687 126.223C278.643 128.242 278.613 130.266 278.595 132.285C278.587 133.31 278.578 134.335 278.569 135.355C278.56 136.341 278.613 137.344 278.451 138.316C278.417 138.513 278.094 138.496 278.059 138.307C277.898 137.383 277.937 136.437 277.924 135.5C277.911 134.527 277.898 133.559 277.889 132.587C277.872 130.699 277.863 128.811 277.867 126.924C277.885 123.144 277.928 119.342 278.185 115.562Z" fill="#263238"/>
<path d="M283.252 112.877C283.439 111.87 283.779 110.556 284.35 109.776C285.375 108.374 286.487 108.983 285.462 110.538C284.342 112.233 284.18 113.573 284.023 114.366C284.023 114.366 285.75 116.841 287.83 118.063C287.743 117.112 287.472 115.645 287.66 114.235C288.061 111.178 289.901 111.348 289.447 113.779C289.081 115.728 288.933 117.796 289.029 118.694C289.652 119.171 290.72 119.578 291.252 119.789C291.135 119.434 291.008 119.009 290.864 118.492C290.127 115.75 291.946 114.896 292.002 116.438C292.046 117.708 292.534 119.67 292.709 120.327C293.707 120.665 294.535 120.892 295.041 121.072C297.147 121.812 298.455 123.415 298.455 123.415C299.41 122.561 300.177 121.527 300.783 120.393C300.147 119.841 299.14 119.027 297.744 118.037C295.128 116.18 296.035 113.836 298.115 115.295C299.615 116.346 300.775 118.295 301.298 119.294C302.022 117.564 302.401 115.663 302.484 113.819C300.426 111.878 295.346 109.18 296.877 109.18C298.255 109.18 301.341 111.213 302.475 111.997C302.444 111.449 302.388 110.919 302.301 110.407C300.365 109.132 294.073 107.148 295.076 106.579C296.179 105.952 300.565 107.993 301.895 108.642C301.603 107.691 301.211 106.868 300.731 106.224C298.054 102.628 293.232 101.388 291.126 102.072C289.635 102.558 290.071 106.351 289.753 106.224C283.771 103.797 281.05 105.505 283.252 112.877ZM297.914 112.461C298.337 111.944 300.304 113.46 299.733 114.287C299.17 115.12 297.369 113.122 297.914 112.461ZM287.66 109.224C288.174 109.553 287.416 111.471 286.618 110.893C285.938 110.398 287.137 108.891 287.66 109.224Z" fill="#1F8A73"/>
<path d="M288.44 109.811C288.71 109.277 288.994 108.742 289.299 108.225C289.591 107.735 289.905 107.214 290.289 106.784C290.202 106.679 290.123 106.57 290.032 106.469C289.997 106.425 290.058 106.368 290.093 106.408C290.193 106.522 290.289 106.64 290.385 106.758C290.402 106.771 290.42 106.784 290.428 106.806C290.799 107.253 291.148 107.709 291.479 108.177C292.068 108.304 292.648 108.493 293.219 108.681C293.807 108.878 294.387 109.084 294.958 109.325C295.019 109.351 294.989 109.447 294.928 109.421C294.361 109.172 293.79 108.926 293.206 108.729C292.652 108.541 292.089 108.396 291.527 108.239C291.71 108.497 291.889 108.76 292.063 109.023C293.118 109.329 294.147 109.811 295.137 110.28C296.175 110.775 297.173 111.353 298.167 111.927C298.224 111.957 298.172 112.045 298.115 112.014C297.143 111.427 296.127 110.928 295.098 110.446C294.134 109.995 293.14 109.623 292.168 109.189C294.61 113.017 296.075 117.437 298.037 121.532C298.067 121.593 297.971 121.641 297.949 121.58C297.352 120.143 296.663 118.746 296.013 117.336C295.429 116.07 294.858 114.795 294.274 113.53C294.104 113.157 293.925 112.789 293.746 112.421C293.855 114.467 293.812 116.547 294.143 118.571C294.156 118.645 294.047 118.654 294.043 118.584C293.903 116.398 293.52 114.248 293.533 112.049C293.533 112.036 293.541 112.032 293.546 112.023C293.132 111.186 292.691 110.363 292.212 109.561C291.401 111.475 290.55 113.42 290.175 115.474C290.162 115.536 290.062 115.509 290.08 115.444C290.629 113.385 291.139 111.318 292.129 109.417C291.606 108.55 291.039 107.713 290.407 106.925C290.136 107.433 289.787 107.914 289.478 108.401C289.177 108.878 288.881 109.355 288.601 109.842C288.004 110.888 287.481 111.953 287.075 113.087C287.054 113.149 286.953 113.118 286.98 113.057C287.433 111.966 287.908 110.871 288.44 109.811Z" fill="#263238"/>
<path d="M269.182 114.471C270.752 112.89 272.574 110.818 274.994 110.823C277.331 110.827 279.053 112.719 280.043 114.668C281.076 116.709 281.447 119.022 281.739 121.269C282.088 123.958 282.284 126.67 282.358 129.381C282.402 130.888 282.393 132.394 282.358 133.901C282.319 135.421 282.284 136.963 282.014 138.461C281.97 138.706 281.582 138.715 281.569 138.452C281.499 137.182 281.547 135.907 281.556 134.641C281.564 133.393 281.543 132.14 281.499 130.892C281.407 128.365 281.224 125.842 280.928 123.328C280.671 121.133 280.466 118.878 279.812 116.758C279.223 114.848 278.116 112.658 276.189 111.821C273.555 110.674 270.983 112.767 269.261 114.537C269.217 114.581 269.138 114.515 269.182 114.471Z" fill="#263238"/>
<path d="M261.186 117.997C261.199 118.321 261.216 118.641 261.238 118.956C261.953 118.453 262.851 117.993 263.806 117.888C266.03 117.651 265.89 119.351 264.403 119.421C262.986 119.491 262.036 119.732 261.351 120.034C261.713 122.986 262.524 125.36 262.642 125.391C262.764 125.421 265.485 125.224 268.519 124.646C267.966 123.463 266.706 121.887 267.346 121.76C268.005 121.628 268.689 123.034 269.047 124.537C270.512 124.239 272.02 123.849 273.324 123.354C272.347 122.504 270.834 121.444 271.41 120.993C271.99 120.538 273.189 122.031 273.908 123.117C274.623 122.811 275.256 122.469 275.757 122.084C274.44 120.139 271.223 119.74 271.645 118.334C272.073 116.898 275.072 118.878 276.424 121.484C278.011 119.832 278.473 117.494 278.308 115.496C276.925 115.334 274.27 115.628 274.462 114.633C274.645 113.687 276.572 113.827 278.146 114.41C277.954 113.503 277.623 112.732 277.222 112.216C275.766 110.337 271.323 112.724 271.323 112.724C271.323 112.724 271.798 108.239 270.102 107.463C269.125 107.017 267.403 107.021 265.672 108.046C266.64 108.125 267.813 108.436 268.284 109.11C268.886 109.973 267.935 110.442 267.333 110.043C266.91 109.763 266.113 108.874 264.678 108.755C264.12 109.22 263.579 109.811 263.074 110.538C262.908 110.77 262.755 111.016 262.607 111.278C264.002 110.696 265.851 110.398 267.809 111.375C269.736 112.334 268.659 114.344 267.002 113.565C265.363 112.794 263.767 112.019 262.01 112.461C261.365 113.954 261.151 115.724 261.164 117.463C261.822 116.985 262.795 116.412 264.015 116.088C265.929 115.584 266.509 116.731 264.403 116.946C263.078 117.077 261.953 117.568 261.186 117.997ZM263.514 114.909C263.383 114.287 264.739 114.108 264.966 114.611C265.153 115.045 263.645 115.536 263.514 114.909ZM275.129 118.361C275.256 118.019 276.167 118.409 276.084 118.829C275.971 119.399 275.007 118.702 275.129 118.361ZM268.716 120.546C269.378 120.279 270.412 121.935 269.688 122.312C268.968 122.693 268.175 120.765 268.716 120.546Z" fill="#03E5D4"/>
<path d="M262.904 125.049C263.902 123.371 264.887 121.69 265.934 120.043C266.422 119.276 266.932 118.527 267.464 117.787C267.386 117.769 267.303 117.748 267.229 117.73C267.098 117.704 266.963 117.677 266.832 117.651C266.527 117.599 266.217 117.555 265.908 117.52C265.616 117.489 265.323 117.476 265.031 117.472C264.726 117.467 264.395 117.458 264.094 117.52C264.055 117.529 264.05 117.467 264.085 117.472C264.395 117.485 264.717 117.441 265.027 117.437C265.332 117.432 265.633 117.441 265.938 117.458C266.222 117.476 266.505 117.502 266.788 117.546C266.945 117.568 267.098 117.599 267.255 117.629C267.346 117.647 267.442 117.66 267.534 117.691C268.075 116.946 268.637 116.21 269.217 115.496C267.469 114.69 265.668 114.025 263.754 113.744C263.723 113.74 263.732 113.692 263.767 113.696C265.672 114.003 267.582 114.498 269.308 115.382C269.627 114.988 269.949 114.598 270.272 114.209C270.634 113.771 271.018 113.346 271.345 112.881C271.366 112.851 271.41 112.886 271.384 112.912C270.93 113.398 270.521 113.933 270.119 114.471C270.124 114.471 270.124 114.471 270.128 114.471C270.848 114.958 271.51 115.531 272.16 116.109C272.823 116.701 273.472 117.31 274.1 117.94C274.122 117.962 274.087 118.002 274.065 117.975C273.442 117.353 272.796 116.762 272.125 116.197C271.449 115.636 270.743 115.12 270.063 114.559C270.058 114.555 270.058 114.55 270.058 114.55C269.901 114.756 269.749 114.962 269.592 115.163C269.513 115.264 269.435 115.369 269.356 115.47C269.352 115.479 269.348 115.483 269.339 115.492C269.077 115.829 268.82 116.171 268.563 116.512C268.877 116.937 269.108 117.437 269.335 117.91C269.557 118.383 269.753 118.873 269.932 119.364C270.303 120.38 270.551 121.444 270.765 122.504C270.769 122.535 270.721 122.552 270.717 122.517C270.516 121.462 270.189 120.441 269.81 119.438C269.618 118.926 269.396 118.426 269.169 117.927C268.96 117.472 268.711 117.038 268.515 116.578C268.293 116.876 268.07 117.178 267.848 117.48C267.782 117.568 267.726 117.66 267.66 117.748C267.669 117.765 267.665 117.791 267.639 117.796C267.634 117.796 267.63 117.796 267.63 117.796C266.945 118.759 266.291 119.74 265.659 120.739C265.703 120.805 265.72 120.884 265.746 120.958C265.786 121.081 265.825 121.199 265.86 121.322C265.929 121.567 265.991 121.817 266.034 122.066C266.078 122.303 266.108 122.539 266.134 122.78C266.161 123.043 266.134 123.336 266.195 123.59C266.204 123.63 266.139 123.634 266.147 123.59C266.187 123.35 266.126 123.074 266.091 122.833C266.056 122.574 266.008 122.316 265.947 122.062C265.895 121.83 265.829 121.602 265.764 121.374C265.729 121.26 265.694 121.146 265.655 121.037C265.633 120.976 265.607 120.914 265.585 120.853C265.289 121.322 264.992 121.79 264.704 122.263C264.129 123.201 263.562 124.142 262.986 125.08C262.947 125.141 262.873 125.097 262.904 125.049Z" fill="#263238"/>
<path d="M278.29 137.922C278.316 136.971 278.464 136.017 278.569 135.07C278.669 134.12 278.778 133.174 278.879 132.223C279.075 130.393 279.18 128.522 279.611 126.731C279.977 125.189 280.658 123.713 281.835 122.622C282.432 122.071 283.191 121.619 284.015 121.576C284.861 121.532 285.637 121.825 286.33 122.294C287.119 122.828 287.725 123.586 288.279 124.357C288.846 125.15 289.347 125.969 289.796 126.836C289.814 126.871 289.761 126.889 289.744 126.858C288.915 125.413 287.773 124.169 286.456 123.161C285.85 122.697 285.157 122.347 284.385 122.294C283.622 122.241 282.938 122.609 282.375 123.1C281.272 124.063 280.636 125.478 280.256 126.871C279.807 128.518 279.659 130.252 279.437 131.943C279.302 132.946 279.175 133.954 279.044 134.957C278.914 135.955 278.831 136.98 278.617 137.966C278.573 138.176 278.286 138.132 278.29 137.922Z" fill="#263238"/>
<path d="M282.942 130.546C283.217 130.927 283.561 131.277 283.971 131.601C283.814 130.673 283.627 129.026 284.093 128.15C284.817 126.788 285.672 127.467 285.24 128.649C284.616 130.34 284.538 131.479 284.542 132.004C285.458 132.609 286.565 133.099 287.682 133.494C287.581 133.038 287.52 132.473 287.577 131.869C287.721 130.414 288.833 130.441 288.54 131.956C288.414 132.609 288.388 133.24 288.388 133.735C290.917 134.532 293.284 134.843 293.284 134.843C294.226 133.581 294.889 132.372 295.312 131.22C294.134 130.923 291.745 130.857 291.793 130.012C291.863 128.873 294.174 129.749 295.53 130.577C295.861 129.486 295.979 128.457 295.939 127.511C295.412 127.335 294.435 127.121 292.687 126.967C290.258 126.757 290.376 125.373 292.137 125.404C293.437 125.426 295.076 126.227 295.857 126.643C295.351 123.323 292.831 121.199 290.808 121.116C287.411 120.98 288.632 125.224 288.632 125.224C288.632 125.224 286.33 123.599 284.159 123.639C281.996 123.687 280.618 127.296 282.942 130.546ZM292.011 124.405C291.937 123.928 293.45 123.814 293.528 124.427C293.624 125.115 292.089 124.891 292.011 124.405ZM294.453 129.385C294.422 129.074 295.076 129.017 295.224 129.411C295.32 129.67 294.479 129.696 294.453 129.385ZM286.295 129.679C286.805 129.753 287.097 131.588 286.217 131.553C285.545 131.523 285.863 129.617 286.295 129.679Z" fill="#FFC727"/>
<path d="M287.006 131.72C287.089 131.492 287.167 131.26 287.237 131.023C287.171 131.26 287.11 131.496 287.067 131.737C287.058 131.785 286.988 131.764 287.006 131.72Z" fill="#263238"/>
<path d="M287.9 128.763C288.061 128.29 288.235 127.826 288.418 127.362C288.514 127.116 288.615 126.871 288.724 126.626C288.815 126.42 288.889 126.188 289.024 126.008C288.92 125.811 288.824 125.614 288.75 125.413C288.741 125.395 288.767 125.377 288.78 125.395C289.038 125.697 289.238 126.083 289.443 126.424C289.539 126.586 289.626 126.748 289.718 126.91C289.909 126.924 290.101 126.967 290.289 126.998C290.494 127.038 290.694 127.077 290.899 127.121C291.1 127.165 291.305 127.213 291.505 127.261C291.706 127.309 291.906 127.375 292.107 127.405C292.155 127.414 292.133 127.489 292.089 127.467C291.889 127.384 291.667 127.348 291.453 127.3C291.257 127.257 291.061 127.221 290.864 127.195C290.668 127.165 290.468 127.143 290.271 127.121C290.123 127.108 289.971 127.099 289.822 127.086C289.905 127.23 289.988 127.37 290.066 127.515C290.08 127.537 290.088 127.563 290.101 127.585C290.263 127.572 290.428 127.616 290.59 127.642C290.764 127.673 290.938 127.708 291.113 127.747C291.466 127.826 291.819 127.909 292.168 128.01C292.905 128.216 293.629 128.452 294.352 128.689C294.392 128.702 294.365 128.763 294.326 128.75C293.607 128.505 292.87 128.308 292.129 128.137C291.78 128.058 291.435 127.979 291.087 127.905C290.912 127.87 290.738 127.83 290.563 127.791C290.428 127.76 290.289 127.747 290.158 127.699C290.533 128.391 290.882 129.096 291.209 129.814C291.915 131.378 292.508 132.994 293.11 134.597C293.123 134.637 293.062 134.663 293.049 134.624C292.486 133.016 291.771 131.474 291.026 129.946C290.89 129.67 290.751 129.394 290.611 129.114C290.598 129.171 290.585 129.228 290.577 129.284C290.542 129.473 290.507 129.666 290.476 129.854C290.411 130.235 290.35 130.616 290.293 130.997C290.18 131.768 289.992 132.587 290.018 133.367C290.018 133.415 289.944 133.415 289.953 133.367C290.014 132.99 290.014 132.596 290.036 132.21C290.062 131.812 290.088 131.413 290.136 131.015C290.18 130.633 290.228 130.248 290.293 129.867C290.324 129.679 290.359 129.486 290.393 129.298C290.42 129.157 290.424 129.004 290.498 128.886C290.298 128.483 290.101 128.084 289.901 127.681C289.713 127.305 289.521 126.932 289.325 126.56C289.242 126.402 289.155 126.245 289.068 126.083C289.02 126.28 288.92 126.468 288.841 126.656C288.754 126.871 288.667 127.086 288.58 127.3C288.383 127.778 288.205 128.255 288.022 128.737C287.764 129.42 287.481 130.117 287.272 130.831C287.494 130.16 287.668 129.451 287.9 128.763Z" fill="#263238"/>
<path d="M287.237 131.023C287.254 130.966 287.272 130.914 287.285 130.857C287.267 130.914 287.254 130.971 287.237 131.023Z" fill="#263238"/>
<path d="M272.609 136.073L272.849 141.15L273.464 154.242H286.91L287.525 141.15L287.764 136.073H272.609Z" fill="#37474F"/>
<path d="M272.609 136.073L272.849 141.15H287.525L287.764 136.073H272.609Z" fill="#263238"/>
<path d="M271.654 138.126H288.719V134.017H271.654V138.126Z" fill="#37474F"/>
<path d="M285.82 154.242H283.461V156.392H285.82V154.242Z" fill="#37474F"/>
<path d="M285.82 154.242H283.461V155.315H285.82V154.242Z" fill="#263238"/>
<path d="M276.912 154.242H274.554V156.392H276.912V154.242Z" fill="#37474F"/>
<path d="M276.912 154.242H274.554V155.315H276.912V154.242Z" fill="#263238"/>
<path d="M22.1139 156.265L57.4604 156.156L92.807 156.116L163.5 156.046L234.193 156.116L269.54 156.156L304.886 156.265L269.54 156.37L234.193 156.41L163.5 156.48L92.807 156.41L57.4604 156.37L22.1139 156.265Z" fill="#C8D9F4"/>
<path d="M202.304 187.858C202.304 187.858 200.024 191.073 200.338 191.586C200.652 192.094 203.045 192.168 204.506 191.586C205.966 191.003 206.001 187.232 206.66 185.616C206.934 184.937 206.346 182.935 205.513 182.791C204.68 182.646 203.778 183.071 203.778 183.071C203.778 183.071 204.641 185.353 202.304 187.858Z" fill="#3A3D5D"/>
<path d="M203.76 183.045C203.76 183.045 203.281 184.416 203.106 185.721C202.962 186.807 201.484 189.107 201.554 189.4C201.624 189.689 203.499 189.956 204.262 189.203C205.025 188.454 205.517 186.268 205.687 184.963C205.844 183.745 206.041 183.145 206.041 183.145C206.041 183.145 204.493 182.243 203.76 183.045Z" fill="#DBA585"/>
<path d="M222.142 187.911C222.142 187.911 219.945 191.073 220.258 191.581C220.572 192.089 222.966 192.164 224.427 191.581C225.887 190.999 225.922 187.228 226.58 185.611C226.855 184.932 226.267 182.931 225.434 182.786C224.601 182.642 223.629 183.097 223.629 183.097C223.629 183.097 224.475 185.405 222.142 187.911Z" fill="#3A3D5D"/>
<path d="M223.624 183.102C223.624 183.102 223.45 184.595 223.171 185.651C222.892 186.706 221.401 189.111 221.471 189.4C221.54 189.689 223.415 189.956 224.178 189.203C224.941 188.454 225.534 186.277 225.604 184.963C225.674 183.649 225.429 182.791 225.429 182.791C225.429 182.791 224.353 182.3 223.624 183.102Z" fill="#DBA585"/>
<path d="M212.646 130.743C212.646 130.743 210.688 140.278 210.239 142.683C209.79 145.083 208.534 156.712 208.399 158.692C208.264 160.667 206.359 168.118 206.45 168.827C206.542 169.532 203.625 183.719 203.625 183.719C203.625 183.719 204.619 184.56 205.67 183.794C206.211 183.399 212.066 170.513 212.066 166.983C212.066 162.104 215.51 155.731 215.955 154.64C220.084 144.496 219.269 141.395 219.809 140.734C220.35 140.072 220.394 141.141 220.708 142.6C221.021 144.058 221.693 156.677 222.098 158.276C222.504 159.874 222.19 165.292 222.412 168.021C222.635 170.75 223.624 183.102 223.624 183.102C223.624 183.102 224.387 184.354 225.46 183.132C225.691 182.869 227.309 169.375 227.357 166.125C227.4 162.875 227.448 158.394 227.535 156.992C228.368 143.533 230.413 141.61 227.191 132.079C221.161 114.244 212.646 130.743 212.646 130.743Z" fill="#DBA585"/>
<path d="M225.778 128.076C225.778 128.076 231.35 136.249 228.952 153.637C228.952 153.637 215.737 155.521 208.661 151.456C208.661 151.456 211.586 133.529 212.65 130.739C213.71 127.953 225.778 128.076 225.778 128.076Z" fill="#32A4EA"/>
<path d="M206.721 185.331V188.699H206.302V186.093L206.721 185.331Z" fill="#3A3D5D"/>
<path d="M226.637 185.331V188.699H226.223V186.093L226.637 185.331Z" fill="#3A3D5D"/>
<path d="M219.177 91.8355C219.177 91.8355 215.445 95.6111 216.718 100.473C217.987 105.335 220.032 105.361 222.282 103.272C224.531 101.182 225.857 98.9793 226.153 96.5352C226.45 94.0868 222.582 88.4673 219.177 91.8355Z" fill="#DBA585"/>
<path d="M218.445 108.05C218.445 108.05 218.998 106.78 219.386 105.348C219.456 105.094 219.517 104.84 219.574 104.581C219.766 103.679 219.84 102.794 219.635 102.185C219.042 100.42 223.367 101.642 223.367 101.642C223.367 101.642 222.53 106.316 223.367 107.888C224.204 109.461 218.445 108.05 218.445 108.05Z" fill="#DBA585"/>
<path d="M229.41 110.275C228.73 108.909 228.22 108.471 226.903 108.055C226.166 107.822 222.874 106.96 222.874 106.96L218.924 106.815C218.924 106.815 216.208 107.271 214.098 108.002C211.988 108.734 209.228 112.75 209.228 112.75C209.228 112.75 213.038 121.742 213.771 124.322C214.499 126.902 214.015 130.896 214.015 130.896C218.584 133.397 225.909 130.651 225.909 130.651C225.355 128.636 225.329 126.28 225.621 124.611C225.656 124.414 225.695 124.226 225.739 124.05C225.778 123.888 225.831 123.661 225.896 123.402C225.9 123.389 225.9 123.38 225.905 123.367C228.813 123.665 231.538 123.788 231.608 123.201C231.926 120.56 230.348 112.15 229.41 110.275ZM227.396 120.524C227.278 120.507 227.03 120.507 226.768 120.481C227.091 119.574 227.452 118.777 227.452 118.777C227.653 119.355 228.438 120.682 227.396 120.524Z" fill="#E6D8D1"/>
<path d="M220.394 94.5511C220.394 94.5511 222.177 97.8098 223.284 98.9792C224.392 100.149 224.261 101.073 224.261 101.073C224.261 101.073 228.582 95.7205 225.499 92.4881C222.417 89.2556 218.445 90.5609 217.281 93.386C216.116 96.2111 216.544 99.6625 216.544 99.6625C216.544 99.6625 216.579 96.3425 220.394 94.5511Z" fill="#2F324A"/>
<path d="M221.571 91.1391C221.571 91.1391 221.139 88.752 224.863 87.8059C228.586 86.8554 230.26 91.1697 229.803 93.7977C229.345 96.4257 226.158 103.096 227.888 103.964C229.615 104.831 230.291 102.961 230.291 102.961C230.291 102.961 229.75 106.241 227.348 105.484C224.945 104.726 225.268 99.3954 225.63 97.2667C225.992 95.138 221.571 91.1391 221.571 91.1391Z" fill="#2F324A"/>
<path d="M222.77 102.794C222.757 102.829 221.815 105.006 219.386 105.343C219.456 105.089 219.517 104.835 219.574 104.577C219.57 104.577 220.904 104.848 222.77 102.794Z" fill="#997761"/>
<path d="M227.396 118.808C227.396 118.808 227.217 119.184 226.729 120.669C226.232 116.504 226.493 114.331 226.493 114.331C226.546 116.561 227.396 118.808 227.396 118.808Z" fill="#C8BCB6"/>
<path d="M222.151 90.6353C222.151 90.6353 224.793 91.1434 226.114 93.3072C226.114 93.3072 225.848 91.3493 224.531 90.7843C223.215 90.2236 222.151 90.6353 222.151 90.6353Z" fill="#E6D8D1"/>
<path d="M225.892 123.398C225.831 123.656 225.774 123.884 225.735 124.046C225.691 124.221 225.652 124.41 225.617 124.607C223.982 123.713 222.805 123.012 222.805 123.012C223.249 123.113 225.892 123.398 225.892 123.398Z" fill="#C8BCB6"/>
<path d="M223.097 107.017L218.445 110.827L218.924 106.815C218.924 106.811 221.636 106.224 223.097 107.017Z" fill="#DBA585"/>
<path d="M219.788 110.179L218.445 110.823L223.014 106.276L219.788 110.179Z" fill="#CFC3BC"/>
<path d="M226.166 123.069C225.525 125.737 227.897 131.733 227.897 131.733L223.201 133.209C222.526 133.419 221.815 133.003 221.667 132.311C221.039 129.376 219.565 122.149 219.386 118.133C219.164 113.008 222.879 106.96 222.879 106.96C229.48 108.098 227.67 118.133 227.67 118.133C227.67 118.133 227.431 118.764 227.112 119.754C227.03 120.003 226.947 120.27 226.86 120.56C226.628 121.3 226.384 122.163 226.166 123.069Z" fill="#47ADF6"/>
<path d="M218.458 107.03L218.541 106.811C218.541 106.811 215.157 107.328 213.439 108.19C211.722 109.053 208.43 113.508 208.43 113.508L212.733 119.215C212.737 123.599 212.031 131.4 212.031 131.4L213.998 132.539C214.525 132.845 215.188 132.469 215.201 131.856C215.258 128.89 215.388 121.847 215.458 118.44C215.545 114.055 218.663 106.96 218.663 106.96C218.593 106.982 218.523 107.008 218.458 107.03Z" fill="#47ADF6"/>
<path d="M212.328 127.594C212.328 127.594 215.571 127.721 216.077 127.594C216.583 127.467 219.949 126 220.149 124.55C220.35 123.1 212.328 125.846 212.328 125.846V127.594Z" fill="#DBA585"/>
<path d="M222.391 123.069L209.228 121.519L215.175 126.381L222.391 123.069Z" fill="#6D76BA"/>
<path d="M215.175 126.381L222.391 123.91V123.069L214.931 125.474L215.175 126.381Z" fill="#363957"/>
<path d="M218.567 120.638C218.567 120.638 217.477 120.638 216.866 120.516C216.396 120.419 215.223 120.551 214.922 120.818C214.621 121.085 213.675 122.938 213.492 123.052C213.313 123.166 213.583 123.428 213.902 123.297C213.902 123.297 214.189 124.107 214.909 123.805C215.624 123.503 216.108 122.837 216.483 122.723C216.858 122.605 219.038 122.018 219.038 122.018C219.038 122.018 219.129 120.441 218.567 120.638Z" fill="#DBA585"/>
<path d="M219.173 106.07L216.666 110.061L215.458 110.823L218.275 106.855L219.173 106.07Z" fill="#F3E4DC"/>
<path d="M216.666 110.061L218.445 110.823L218.946 106.824L219.173 106.07L216.666 110.061Z" fill="#CFC3BC"/>
<path d="M212.724 125.728C212.724 125.728 212.589 127.41 212.724 127.765C212.724 127.765 204.606 126.95 203.847 125.811C203.089 124.672 203.119 123.284 203.119 123.284L212.724 125.728Z" fill="#47ADF6"/>
<path d="M215.175 126.381L211.334 112.04L196.736 110.494L200.734 123.691L215.175 126.381Z" fill="#2A2B41"/>
<path d="M223.014 106.276L219.788 110.179L221.553 111.76L223.459 107.087L223.014 106.276Z" fill="#F3E4DC"/>
<path d="M227.217 119.421L227.108 119.749C227.025 119.999 226.942 120.266 226.855 120.555C226.232 120.752 220.838 120.354 220.838 120.354C220.838 120.354 225.351 119.294 227.217 119.421Z" fill="#30A1E5"/>
<path d="M226.907 120.454C226.04 120.389 224.614 120.297 223.45 120.292C221.636 120.284 218.541 120.489 218.541 120.489L218.911 122.434C218.911 122.434 224.4 123.332 227.4 123.542C227.4 123.542 231.355 123.998 231.651 123.407C231.943 122.815 231.555 119.005 230.91 115.575C230.265 112.146 229.606 110.17 228.817 109.11C228.032 108.05 223.873 107.227 223.873 107.227L227.4 118.821C227.4 118.821 227.906 119.854 227.88 120.301C227.871 120.437 227.779 120.503 227.653 120.524C227.566 120.516 227.37 120.498 227.099 120.481L226.907 120.454Z" fill="#47ADF6"/>
</svg>
